<?xml version="1.0" encoding="utf-8"?>
<!-- Generator: Adobe Illustrator 24.0.1, SVG Export Plug-In . SVG Version: 6.00 Build 0)  -->
<svg version="1.1" xmlns="http://www.w3.org/2000/svg" xmlns:xlink="http://www.w3.org/1999/xlink" x="0px" y="0px"
	 viewBox="0 0 700 700" style="enable-background:new 0 0 700 700;" xml:space="preserve">
<style type="text/css">
	.st0{fill:none;stroke:#000000;stroke-width:0.5;stroke-miterlimit:10;}
	.st1{display:none;}
	.st2{display:inline;fill:none;stroke:#000000;stroke-miterlimit:10;}
</style>
<g id="fondo">
	<g>
		<defs>
			<rect id="SVGID_1_" x="-740" width="700" height="700"/>
		</defs>
		<clipPath id="SVGID_2_">
			<use xlink:href="#SVGID_1_"  style="overflow:visible;"/>
		</clipPath>
		<g style="clip-path:url(#SVGID_2_);">
			
				<image style="overflow:visible;" width="1920" height="926" xlink:href="mapa1.png"  transform="matrix(0.75 0 0 0.75 -740 2.75)">
			</image>
		</g>
	</g>
</g>
<g id="fondo2">
	<g>
		<defs>
			<rect id="SVGID_3_" width="700" height="700"/>
		</defs>
		<clipPath id="SVGID_4_">
			<use xlink:href="#SVGID_3_"  style="overflow:visible;"/>
		</clipPath>
		<g style="clip-path:url(#SVGID_4_);">
			
				<image style="overflow:visible;" width="1920" height="926" xlink:href="mapa1.png"  transform="matrix(0.75 0 0 0.75 -740 5.5)">
			</image>
		</g>
	</g>
</g>
<g id="texto">
	<g>
		<path d="M47.2,573.3v-13.5h4c1.4,0,2.5,0.3,3.3,0.9c0.7,0.6,1.1,1.5,1.1,2.6c0,0.7-0.2,1.3-0.6,1.8c-0.4,0.5-0.9,0.9-1.6,1.1
			c0.8,0.2,1.4,0.6,1.9,1.2s0.7,1.3,0.7,2.1c0,1.2-0.4,2.1-1.2,2.8c-0.8,0.7-1.8,1-3.2,1H47.2z M48.3,565.9h3.1c1,0,1.7-0.2,2.2-0.7
			c0.5-0.4,0.8-1.1,0.8-1.9c0-0.9-0.3-1.5-0.8-1.9s-1.4-0.6-2.5-0.6h-2.8V565.9z M48.3,566.9v5.5h3.4c1,0,1.8-0.2,2.3-0.7
			s0.9-1.2,0.9-2.1c0-0.8-0.3-1.5-0.8-2c-0.5-0.5-1.3-0.7-2.3-0.7H48.3z"/>
		<path d="M64.9,573.3c-0.1-0.3-0.2-0.8-0.2-1.4c-0.4,0.5-0.9,0.9-1.5,1.2c-0.6,0.3-1.2,0.4-1.9,0.4c-1,0-1.7-0.3-2.3-0.8
			c-0.6-0.5-0.9-1.2-0.9-2c0-1,0.4-1.8,1.2-2.3c0.8-0.6,1.9-0.9,3.4-0.9h2v-1.1c0-0.7-0.2-1.3-0.7-1.7c-0.4-0.4-1.1-0.6-1.9-0.6
			c-0.8,0-1.4,0.2-1.9,0.6c-0.5,0.4-0.8,0.9-0.8,1.4l-1.1,0c0-0.8,0.4-1.5,1.1-2.1c0.7-0.6,1.7-0.9,2.7-0.9c1.1,0,2,0.3,2.6,0.8
			s1,1.3,1,2.3v4.8c0,1,0.1,1.7,0.3,2.2v0.1H64.9z M61.4,572.6c0.7,0,1.4-0.2,2-0.5c0.6-0.4,1-0.8,1.3-1.4v-2.2h-2
			c-1.1,0-2,0.2-2.6,0.6s-0.9,0.9-0.9,1.6c0,0.6,0.2,1,0.6,1.4S60.7,572.6,61.4,572.6z"/>
		<path d="M69.8,563.3l0,1.7c0.4-0.6,0.8-1.1,1.4-1.4c0.6-0.3,1.2-0.5,1.9-0.5c1.1,0,1.9,0.3,2.4,0.9c0.5,0.6,0.8,1.5,0.8,2.7v6.6
			h-1.1v-6.6c0-0.9-0.2-1.6-0.6-2c-0.4-0.4-1-0.7-1.8-0.7c-0.7,0-1.3,0.2-1.8,0.6c-0.5,0.4-0.9,1-1.2,1.7v6.9h-1.1v-10H69.8z"/>
		<path d="M78.7,568.2c0-1.6,0.3-2.8,1-3.7c0.7-0.9,1.6-1.4,2.8-1.4c1.4,0,2.4,0.5,3.1,1.6l0.1-1.4h1v9.8c0,1.3-0.4,2.3-1.1,3.1
			c-0.7,0.8-1.7,1.1-2.9,1.1c-0.7,0-1.4-0.2-2-0.5c-0.6-0.3-1.1-0.7-1.5-1.2l0.6-0.7c0.8,1,1.7,1.4,2.8,1.4c0.9,0,1.7-0.3,2.2-0.8
			c0.5-0.5,0.8-1.3,0.8-2.3V572c-0.7,1-1.7,1.5-3.1,1.5c-1.2,0-2.1-0.5-2.8-1.4s-1.1-2.2-1.1-3.8V568.2z M79.9,568.4
			c0,1.3,0.3,2.3,0.8,3c0.5,0.7,1.2,1.1,2.2,1.1c1.4,0,2.3-0.6,2.9-1.8v-4.7c-0.3-0.6-0.6-1.1-1.1-1.5s-1.1-0.5-1.8-0.5
			c-0.9,0-1.7,0.4-2.2,1.1C80.1,565.9,79.9,567,79.9,568.4z"/>
		<path d="M92.1,568.3l-1.3,1.2v3.8h-1.1v-14.3h1.1v9.1l1-1.1l3.8-3.8h1.4l-4.3,4.2l4.6,5.8h-1.3L92.1,568.3z"/>
		<path d="M98.4,568.2c0-1,0.2-1.8,0.6-2.6c0.4-0.8,0.9-1.4,1.6-1.8c0.7-0.4,1.5-0.6,2.3-0.6c1.3,0,2.4,0.5,3.2,1.4
			c0.8,0.9,1.2,2.2,1.2,3.7v0.2c0,1-0.2,1.8-0.6,2.6s-0.9,1.4-1.6,1.8c-0.7,0.4-1.5,0.6-2.3,0.6c-1.3,0-2.4-0.5-3.2-1.4
			c-0.8-0.9-1.2-2.2-1.2-3.7V568.2z M99.5,568.5c0,1.2,0.3,2.2,0.9,3c0.6,0.8,1.4,1.2,2.4,1.2c1,0,1.8-0.4,2.4-1.2
			c0.6-0.8,0.9-1.8,0.9-3v-0.2c0-0.8-0.1-1.5-0.4-2.1c-0.3-0.6-0.7-1.1-1.2-1.5c-0.5-0.3-1.1-0.5-1.8-0.5c-1,0-1.8,0.4-2.4,1.2
			c-0.6,0.8-0.9,1.8-0.9,3V568.5z"/>
		<path d="M112,568.3l-1.3,1.2v3.8h-1.1v-14.3h1.1v9.1l1-1.1l3.8-3.8h1.4l-4.3,4.2l4.6,5.8h-1.3L112,568.3z"/>
	</g>
	<circle cx="129" cy="568.9" r="4"/>
	<g>
		<g>
			<path d="M182.5,432.8h-1.2v-6.5h-7.7v6.5h-1.1v-13.5h1.1v6.1h7.7v-6.1h1.2V432.8z"/>
			<path d="M185.1,427.6c0-1,0.2-1.8,0.6-2.6s0.9-1.4,1.6-1.8c0.7-0.4,1.5-0.6,2.3-0.6c1.3,0,2.4,0.5,3.2,1.4
				c0.8,0.9,1.2,2.2,1.2,3.7v0.2c0,1-0.2,1.8-0.6,2.6c-0.4,0.8-0.9,1.4-1.6,1.8c-0.7,0.4-1.5,0.6-2.3,0.6c-1.3,0-2.4-0.5-3.2-1.4
				c-0.8-0.9-1.2-2.2-1.2-3.7V427.6z M186.2,427.9c0,1.2,0.3,2.2,0.9,3c0.6,0.8,1.4,1.2,2.4,1.2c1,0,1.8-0.4,2.4-1.2
				c0.6-0.8,0.9-1.8,0.9-3v-0.2c0-0.8-0.1-1.5-0.4-2.1c-0.3-0.6-0.7-1.1-1.2-1.5s-1.1-0.5-1.8-0.5c-1,0-1.8,0.4-2.4,1.2
				c-0.6,0.8-0.9,1.8-0.9,3V427.9z"/>
			<path d="M197.4,422.8l0,1.7c0.4-0.6,0.8-1.1,1.4-1.4c0.6-0.3,1.2-0.5,1.9-0.5c1.1,0,1.9,0.3,2.4,0.9c0.5,0.6,0.8,1.5,0.8,2.7v6.6
				h-1.1v-6.6c0-0.9-0.2-1.6-0.6-2c-0.4-0.4-1-0.7-1.8-0.7c-0.7,0-1.3,0.2-1.8,0.6c-0.5,0.4-0.9,1-1.2,1.7v6.9h-1.1v-10H197.4z"/>
			<path d="M206.3,427.7c0-1.6,0.3-2.8,1-3.7c0.7-0.9,1.6-1.4,2.8-1.4c1.4,0,2.4,0.5,3.1,1.6l0.1-1.4h1v9.8c0,1.3-0.4,2.3-1.1,3.1
				c-0.7,0.8-1.7,1.1-2.9,1.1c-0.7,0-1.4-0.2-2-0.5c-0.6-0.3-1.1-0.7-1.5-1.2l0.6-0.7c0.8,1,1.7,1.4,2.8,1.4c0.9,0,1.7-0.3,2.2-0.8
				c0.5-0.5,0.8-1.3,0.8-2.3v-1.3c-0.7,1-1.7,1.5-3.1,1.5c-1.2,0-2.1-0.5-2.8-1.4s-1.1-2.2-1.1-3.8V427.7z M207.5,427.9
				c0,1.3,0.3,2.3,0.8,3s1.2,1.1,2.2,1.1c1.4,0,2.3-0.6,2.9-1.8v-4.7c-0.3-0.6-0.6-1.1-1.1-1.5s-1.1-0.5-1.8-0.5
				c-0.9,0-1.7,0.4-2.2,1.1C207.7,425.4,207.5,426.5,207.5,427.9z"/>
			<path d="M225.3,426.1l-1.9,1.9v4.8h-1.1v-13.5h1.1v7.3l6.9-7.3h1.4l-5.7,6l6.1,7.5h-1.4L225.3,426.1z"/>
			<path d="M233.1,427.6c0-1,0.2-1.8,0.6-2.6c0.4-0.8,0.9-1.4,1.6-1.8c0.7-0.4,1.5-0.6,2.3-0.6c1.3,0,2.4,0.5,3.2,1.4
				c0.8,0.9,1.2,2.2,1.2,3.7v0.2c0,1-0.2,1.8-0.6,2.6s-0.9,1.4-1.6,1.8s-1.5,0.6-2.3,0.6c-1.3,0-2.4-0.5-3.2-1.4
				c-0.8-0.9-1.2-2.2-1.2-3.7V427.6z M234.2,427.9c0,1.2,0.3,2.2,0.9,3c0.6,0.8,1.4,1.2,2.4,1.2c1,0,1.8-0.4,2.4-1.2
				c0.6-0.8,0.9-1.8,0.9-3v-0.2c0-0.8-0.1-1.5-0.4-2.1s-0.7-1.1-1.2-1.5c-0.5-0.3-1.1-0.5-1.8-0.5c-1,0-1.8,0.4-2.4,1.2
				c-0.6,0.8-0.9,1.8-0.9,3V427.9z"/>
			<path d="M245.4,422.8l0,1.7c0.4-0.6,0.8-1.1,1.4-1.4c0.6-0.3,1.2-0.5,1.9-0.5c1.1,0,1.9,0.3,2.4,0.9s0.8,1.5,0.8,2.7v6.6h-1.1
				v-6.6c0-0.9-0.2-1.6-0.6-2c-0.4-0.4-1-0.7-1.8-0.7c-0.7,0-1.3,0.2-1.8,0.6c-0.5,0.4-0.9,1-1.2,1.7v6.9h-1.1v-10H245.4z"/>
			<path d="M254.3,427.7c0-1.6,0.3-2.8,1-3.7c0.7-0.9,1.6-1.4,2.8-1.4c1.4,0,2.4,0.5,3.1,1.6l0.1-1.4h1v9.8c0,1.3-0.4,2.3-1.1,3.1
				c-0.7,0.8-1.7,1.1-2.9,1.1c-0.7,0-1.4-0.2-2-0.5c-0.6-0.3-1.1-0.7-1.5-1.2l0.6-0.7c0.8,1,1.7,1.4,2.8,1.4c0.9,0,1.7-0.3,2.2-0.8
				c0.5-0.5,0.8-1.3,0.8-2.3v-1.3c-0.7,1-1.7,1.5-3.1,1.5c-1.2,0-2.1-0.5-2.8-1.4s-1.1-2.2-1.1-3.8V427.7z M255.4,427.9
				c0,1.3,0.3,2.3,0.8,3c0.5,0.7,1.2,1.1,2.2,1.1c1.4,0,2.3-0.6,2.9-1.8v-4.7c-0.3-0.6-0.6-1.1-1.1-1.5c-0.5-0.3-1.1-0.5-1.8-0.5
				c-0.9,0-1.7,0.4-2.2,1.1C255.7,425.4,255.4,426.5,255.4,427.9z"/>
		</g>
	</g>
	<g>
		<g>
			<path d="M326.7,210.1v-13.5h4c1.4,0,2.5,0.3,3.3,0.9c0.7,0.6,1.1,1.5,1.1,2.6c0,0.7-0.2,1.3-0.6,1.8c-0.4,0.5-0.9,0.9-1.6,1.1
				c0.8,0.2,1.4,0.6,1.9,1.2c0.5,0.6,0.7,1.3,0.7,2.1c0,1.2-0.4,2.1-1.2,2.8c-0.8,0.7-1.8,1-3.2,1H326.7z M327.8,202.7h3.1
				c1,0,1.7-0.2,2.2-0.7s0.8-1.1,0.8-1.9c0-0.9-0.3-1.5-0.8-1.9c-0.5-0.4-1.4-0.6-2.5-0.6h-2.8V202.7z M327.8,203.7v5.5h3.4
				c1,0,1.8-0.2,2.3-0.7c0.6-0.5,0.9-1.2,0.9-2.1c0-0.8-0.3-1.5-0.8-2c-0.5-0.5-1.3-0.7-2.3-0.7H327.8z"/>
			<path d="M342,210.3c-0.9,0-1.6-0.2-2.3-0.6c-0.7-0.4-1.2-1-1.6-1.8c-0.4-0.8-0.6-1.6-0.6-2.5V205c0-1,0.2-1.8,0.6-2.6
				s0.9-1.4,1.6-1.8c0.7-0.4,1.4-0.7,2.2-0.7c1.2,0,2.2,0.4,2.9,1.2c0.7,0.8,1.1,2,1.1,3.4v0.6h-7.2v0.2c0,1.1,0.3,2.1,1,2.8
				s1.5,1.1,2.5,1.1c0.6,0,1.1-0.1,1.6-0.3c0.5-0.2,0.9-0.6,1.2-1l0.7,0.5C344.7,209.7,343.5,210.3,342,210.3z M341.8,200.9
				c-0.8,0-1.5,0.3-2.1,0.9c-0.6,0.6-0.9,1.4-1,2.5h6v-0.1c0-1-0.3-1.8-0.8-2.4S342.6,200.9,341.8,200.9z"/>
			<path d="M347.8,197.2c0-0.2,0.1-0.4,0.2-0.5c0.1-0.1,0.3-0.2,0.6-0.2c0.2,0,0.4,0.1,0.6,0.2c0.1,0.1,0.2,0.3,0.2,0.5
				s-0.1,0.4-0.2,0.5c-0.1,0.1-0.3,0.2-0.6,0.2c-0.2,0-0.4-0.1-0.6-0.2C347.9,197.6,347.8,197.4,347.8,197.2z M349.1,210.1H348v-10
				h1.1V210.1z"/>
			<path d="M353.4,200.1v11.2c0,0.9-0.2,1.6-0.7,2.1s-1.1,0.7-2,0.7c-0.3,0-0.7-0.1-1-0.2l0-0.9c0.3,0.1,0.6,0.1,0.8,0.1
				c1.1,0,1.7-0.6,1.7-1.9v-11.2H353.4z M352.8,196.5c0.2,0,0.4,0.1,0.6,0.2c0.1,0.1,0.2,0.3,0.2,0.5s-0.1,0.4-0.2,0.5
				c-0.1,0.1-0.3,0.2-0.6,0.2c-0.2,0-0.4-0.1-0.6-0.2c-0.1-0.1-0.2-0.3-0.2-0.5s0.1-0.4,0.2-0.5
				C352.4,196.5,352.6,196.5,352.8,196.5z"/>
			<path d="M356.4,197.2c0-0.2,0.1-0.4,0.2-0.5c0.1-0.1,0.3-0.2,0.6-0.2c0.2,0,0.4,0.1,0.6,0.2c0.1,0.1,0.2,0.3,0.2,0.5
				s-0.1,0.4-0.2,0.5c-0.1,0.1-0.3,0.2-0.6,0.2c-0.2,0-0.4-0.1-0.6-0.2C356.5,197.6,356.4,197.4,356.4,197.2z M357.7,210.1h-1.1v-10
				h1.1V210.1z"/>
			<path d="M361.8,200.1l0,1.7c0.4-0.6,0.8-1.1,1.4-1.4c0.6-0.3,1.2-0.5,1.9-0.5c1.1,0,1.9,0.3,2.4,0.9c0.5,0.6,0.8,1.5,0.8,2.7v6.6
				h-1.1v-6.6c0-0.9-0.2-1.6-0.6-2c-0.4-0.4-1-0.7-1.8-0.7c-0.7,0-1.3,0.2-1.8,0.6c-0.5,0.4-0.9,1-1.2,1.7v6.9h-1.1v-10H361.8z"/>
			<path d="M370.7,205c0-1.6,0.3-2.8,1-3.7c0.7-0.9,1.6-1.4,2.8-1.4c1.4,0,2.4,0.5,3.1,1.6l0.1-1.4h1v9.8c0,1.3-0.4,2.3-1.1,3.1
				c-0.7,0.8-1.7,1.1-2.9,1.1c-0.7,0-1.4-0.2-2-0.5c-0.6-0.3-1.1-0.7-1.5-1.2l0.6-0.7c0.8,1,1.7,1.4,2.8,1.4c0.9,0,1.7-0.3,2.2-0.8
				c0.5-0.5,0.8-1.3,0.8-2.3v-1.3c-0.7,1-1.7,1.5-3.1,1.5c-1.2,0-2.1-0.5-2.8-1.4s-1.1-2.2-1.1-3.8V205z M371.9,205.2
				c0,1.3,0.3,2.3,0.8,3s1.2,1.1,2.2,1.1c1.4,0,2.3-0.6,2.9-1.8v-4.7c-0.3-0.6-0.6-1.1-1.1-1.5s-1.1-0.5-1.8-0.5
				c-0.9,0-1.7,0.4-2.2,1.1C372.1,202.7,371.9,203.8,371.9,205.2z"/>
		</g>
	</g>
	<g>
		<g>
			<path d="M627.7,265.6h-4.6v12.5h-1.1v-12.5h-4.6v-1h10.4V265.6z"/>
			<path d="M628.1,273c0-1,0.2-1.8,0.6-2.6c0.4-0.8,0.9-1.4,1.6-1.8c0.7-0.4,1.5-0.6,2.3-0.6c1.3,0,2.4,0.5,3.2,1.4
				c0.8,0.9,1.2,2.2,1.2,3.7v0.2c0,1-0.2,1.8-0.6,2.6c-0.4,0.8-0.9,1.4-1.6,1.8c-0.7,0.4-1.5,0.6-2.3,0.6c-1.3,0-2.4-0.5-3.2-1.4
				c-0.8-0.9-1.2-2.2-1.2-3.7V273z M629.2,273.3c0,1.2,0.3,2.2,0.9,3c0.6,0.8,1.4,1.2,2.4,1.2c1,0,1.8-0.4,2.4-1.2
				c0.6-0.8,0.9-1.8,0.9-3V273c0-0.8-0.1-1.5-0.4-2.1s-0.7-1.1-1.2-1.5c-0.5-0.3-1.1-0.5-1.8-0.5c-1,0-1.8,0.4-2.4,1.2
				c-0.6,0.8-0.9,1.8-0.9,3V273.3z"/>
			<path d="M641.7,273.1l-1.3,1.2v3.8h-1.1v-14.3h1.1v9.1l1-1.1l3.8-3.8h1.4l-4.3,4.2l4.6,5.8h-1.3L641.7,273.1z"/>
			<path d="M651.8,276.6l2.9-8.4h1.2l-4.3,11.7l-0.2,0.5c-0.6,1.2-1.4,1.8-2.6,1.8c-0.3,0-0.6,0-0.9-0.1l0-0.9l0.6,0.1
				c0.5,0,1-0.1,1.3-0.4c0.3-0.3,0.6-0.7,0.9-1.4l0.5-1.4l-3.8-10h1.2L651.8,276.6z"/>
			<path d="M656.9,273c0-1,0.2-1.8,0.6-2.6c0.4-0.8,0.9-1.4,1.6-1.8c0.7-0.4,1.5-0.6,2.3-0.6c1.3,0,2.4,0.5,3.2,1.4
				c0.8,0.9,1.2,2.2,1.2,3.7v0.2c0,1-0.2,1.8-0.6,2.6c-0.4,0.8-0.9,1.4-1.6,1.8c-0.7,0.4-1.5,0.6-2.3,0.6c-1.3,0-2.4-0.5-3.2-1.4
				c-0.8-0.9-1.2-2.2-1.2-3.7V273z M658,273.3c0,1.2,0.3,2.2,0.9,3c0.6,0.8,1.4,1.2,2.4,1.2c1,0,1.8-0.4,2.4-1.2
				c0.6-0.8,0.9-1.8,0.9-3V273c0-0.8-0.1-1.5-0.4-2.1s-0.7-1.1-1.2-1.5c-0.5-0.3-1.1-0.5-1.8-0.5c-1,0-1.8,0.4-2.4,1.2
				c-0.6,0.8-0.9,1.8-0.9,3V273.3z"/>
		</g>
	</g>
	<circle cx="317" cy="204.2" r="4"/>
	<g>
		<g>
			<path class="st0" d="M266.6,428.4c15.8-0.2,20.6,10.9,22,16.1"/>
			<g>
				<polygon points="291.5,443.4 285.6,444.7 289.2,447.1 				"/>
			</g>
		</g>
	</g>
	<circle cx="447.2" cy="240.5" r="4"/>
	<g>
		<g>
			<path d="M402.4,242.2c0-0.7-0.3-1.3-0.8-1.8c-0.5-0.4-1.5-0.9-2.9-1.2s-2.4-0.8-3.1-1.3c-0.9-0.7-1.4-1.5-1.4-2.6
				c0-1,0.4-1.9,1.3-2.5c0.9-0.6,1.9-1,3.3-1c0.9,0,1.7,0.2,2.4,0.5s1.3,0.8,1.6,1.4s0.6,1.3,0.6,2.1h-1.2c0-0.9-0.3-1.7-0.9-2.2
				c-0.6-0.6-1.5-0.8-2.5-0.8c-1,0-1.9,0.2-2.5,0.7s-0.9,1.1-0.9,1.8c0,0.7,0.3,1.2,0.8,1.7c0.5,0.4,1.4,0.8,2.6,1.1s2.1,0.7,2.8,1
				c0.6,0.4,1.1,0.8,1.4,1.3c0.3,0.5,0.5,1.1,0.5,1.8c0,1.1-0.4,1.9-1.3,2.6s-2,1-3.4,1c-1,0-1.8-0.2-2.6-0.5
				c-0.8-0.3-1.4-0.8-1.8-1.4c-0.4-0.6-0.6-1.3-0.6-2.1h1.1c0,1,0.4,1.7,1.1,2.3c0.7,0.6,1.7,0.8,2.8,0.8c1.1,0,1.9-0.2,2.5-0.7
				C402.1,243.6,402.4,243,402.4,242.2z"/>
			<path d="M409.6,245.7c-0.9,0-1.6-0.2-2.3-0.6s-1.2-1-1.6-1.8c-0.4-0.8-0.6-1.6-0.6-2.5v-0.4c0-1,0.2-1.8,0.6-2.6
				c0.4-0.8,0.9-1.4,1.6-1.8c0.7-0.4,1.4-0.7,2.2-0.7c1.2,0,2.2,0.4,2.9,1.2c0.7,0.8,1.1,2,1.1,3.4v0.6h-7.2v0.2
				c0,1.1,0.3,2.1,1,2.8c0.7,0.8,1.5,1.1,2.5,1.1c0.6,0,1.1-0.1,1.6-0.3c0.5-0.2,0.9-0.6,1.2-1l0.7,0.5
				C412.3,245.2,411.2,245.7,409.6,245.7z M409.4,236.3c-0.8,0-1.5,0.3-2.1,0.9c-0.6,0.6-0.9,1.4-1,2.5h6v-0.1c0-1-0.3-1.8-0.8-2.4
				S410.2,236.3,409.4,236.3z"/>
			<path d="M414.9,240.4c0-1,0.2-1.8,0.6-2.6c0.4-0.8,0.9-1.4,1.6-1.8c0.7-0.4,1.5-0.6,2.3-0.6c1.3,0,2.4,0.5,3.2,1.4
				c0.8,0.9,1.2,2.2,1.2,3.7v0.2c0,1-0.2,1.8-0.6,2.6s-0.9,1.4-1.6,1.8s-1.5,0.6-2.3,0.6c-1.3,0-2.4-0.5-3.2-1.4
				c-0.8-0.9-1.2-2.2-1.2-3.7V240.4z M416,240.7c0,1.2,0.3,2.2,0.9,3c0.6,0.8,1.4,1.2,2.4,1.2c1,0,1.8-0.4,2.4-1.2
				c0.6-0.8,0.9-1.8,0.9-3v-0.2c0-0.8-0.1-1.5-0.4-2.1s-0.7-1.1-1.2-1.5c-0.5-0.3-1.1-0.5-1.8-0.5c-1,0-1.8,0.4-2.4,1.2
				c-0.6,0.8-0.9,1.8-0.9,3V240.7z"/>
			<path d="M432.6,244.3c-0.7,1-1.7,1.5-3.2,1.5c-1.1,0-1.9-0.3-2.4-0.9c-0.6-0.6-0.8-1.5-0.9-2.8v-6.5h1.1v6.4
				c0,1.9,0.8,2.9,2.3,2.9c1.6,0,2.6-0.7,3.1-2v-7.3h1.1v10h-1.1L432.6,244.3z"/>
			<path d="M437.9,245.6h-1.1v-14.3h1.1V245.6z"/>
		</g>
	</g>
	<circle cx="382.7" cy="422.5" r="4"/>
</g>
<g id="Capa_1" class="st1">
</g>
<g id="square">
</g>
</svg>
