<?xml version="1.0" encoding="utf-8"?>
<!-- Generator: Adobe Illustrator 24.0.1, SVG Export Plug-In . SVG Version: 6.00 Build 0)  -->
<svg version="1.1" xmlns="http://www.w3.org/2000/svg" xmlns:xlink="http://www.w3.org/1999/xlink" x="0px" y="0px"
	 viewBox="0 0 700 700" style="enable-background:new 0 0 700 700;" xml:space="preserve">
<style type="text/css">
	.st0{fill:none;stroke:#000000;stroke-width:0.5;stroke-miterlimit:10;}
	.st1{display:none;}
	.st2{display:inline;fill:none;stroke:#000000;stroke-miterlimit:10;}
</style>
<g id="fondo">
	<g>
		<defs>
			<rect id="SVGID_1_" width="700" height="700"/>
		</defs>
		<clipPath id="SVGID_2_">
			<use xlink:href="#SVGID_1_"  style="overflow:visible;"/>
		</clipPath>
		<g style="clip-path:url(#SVGID_2_);">
			<image style="overflow:visible;" width="1920" height="926" xlink:href="mapa1.png"  transform="matrix(0.75 0 0 0.75 0 2.75)">
			</image>
		</g>
	</g>
</g>
<g id="fondo2">
	<g>
		<defs>
			<rect id="SVGID_3_" x="740" width="700" height="700"/>
		</defs>
		<clipPath id="SVGID_4_">
			<use xlink:href="#SVGID_3_"  style="overflow:visible;"/>
		</clipPath>
		<g style="clip-path:url(#SVGID_4_);">
			<image style="overflow:visible;" width="1920" height="926" xlink:href="mapa1.png"  transform="matrix(0.75 0 0 0.75 0 5.5)">
			</image>
		</g>
	</g>
</g>
<g id="texto">
	<g>
		<path d="M71.2,563.3v-13.5h4c1.4,0,2.5,0.3,3.3,0.9c0.7,0.6,1.1,1.5,1.1,2.6c0,0.7-0.2,1.3-0.6,1.8c-0.4,0.5-0.9,0.9-1.6,1.1
			c0.8,0.2,1.4,0.6,1.9,1.2c0.5,0.6,0.7,1.3,0.7,2.1c0,1.2-0.4,2.1-1.2,2.8c-0.8,0.7-1.8,1-3.2,1H71.2z M72.3,555.9h3.1
			c1,0,1.7-0.2,2.2-0.7c0.5-0.4,0.8-1.1,0.8-1.9c0-0.9-0.3-1.5-0.8-1.9c-0.5-0.4-1.4-0.6-2.5-0.6h-2.8V555.9z M72.3,556.9v5.5h3.4
			c1,0,1.8-0.2,2.3-0.7c0.6-0.5,0.9-1.2,0.9-2.1c0-0.8-0.3-1.5-0.8-2c-0.5-0.5-1.3-0.7-2.3-0.7H72.3z"/>
		<path d="M88.9,563.3c-0.1-0.3-0.2-0.8-0.2-1.4c-0.4,0.5-0.9,0.9-1.5,1.2c-0.6,0.3-1.2,0.4-1.9,0.4c-1,0-1.7-0.3-2.3-0.8
			c-0.6-0.5-0.9-1.2-0.9-2c0-1,0.4-1.8,1.2-2.3c0.8-0.6,1.9-0.9,3.4-0.9h2v-1.1c0-0.7-0.2-1.3-0.7-1.7c-0.4-0.4-1.1-0.6-1.9-0.6
			c-0.8,0-1.4,0.2-1.9,0.6c-0.5,0.4-0.8,0.9-0.8,1.4l-1.1,0c0-0.8,0.4-1.5,1.1-2.1c0.7-0.6,1.7-0.9,2.7-0.9c1.1,0,2,0.3,2.6,0.8
			c0.6,0.6,1,1.3,1,2.3v4.8c0,1,0.1,1.7,0.3,2.2v0.1H88.9z M85.4,562.6c0.7,0,1.4-0.2,2-0.5c0.6-0.4,1-0.8,1.3-1.4v-2.2h-2
			c-1.1,0-2,0.2-2.6,0.6c-0.6,0.4-0.9,0.9-0.9,1.6c0,0.6,0.2,1,0.6,1.4C84.2,562.4,84.7,562.6,85.4,562.6z"/>
		<path d="M93.8,553.3l0,1.7c0.4-0.6,0.8-1.1,1.4-1.4c0.6-0.3,1.2-0.5,1.9-0.5c1.1,0,1.9,0.3,2.4,0.9c0.5,0.6,0.8,1.5,0.8,2.7v6.6
			h-1.1v-6.6c0-0.9-0.2-1.6-0.6-2c-0.4-0.4-1-0.7-1.8-0.7c-0.7,0-1.3,0.2-1.8,0.6c-0.5,0.4-0.9,1-1.2,1.7v6.9h-1.1v-10H93.8z"/>
		<path d="M102.7,558.2c0-1.6,0.3-2.8,1-3.7c0.7-0.9,1.6-1.4,2.8-1.4c1.4,0,2.4,0.5,3.1,1.6l0.1-1.4h1v9.8c0,1.3-0.4,2.3-1.1,3.1
			c-0.7,0.8-1.7,1.1-2.9,1.1c-0.7,0-1.4-0.2-2-0.5c-0.6-0.3-1.1-0.7-1.5-1.2l0.6-0.7c0.8,1,1.7,1.4,2.8,1.4c0.9,0,1.7-0.3,2.2-0.8
			c0.5-0.5,0.8-1.3,0.8-2.3V562c-0.7,1-1.7,1.5-3.1,1.5c-1.2,0-2.1-0.5-2.8-1.4s-1.1-2.2-1.1-3.8V558.2z M103.9,558.4
			c0,1.3,0.3,2.3,0.8,3c0.5,0.7,1.2,1.1,2.2,1.1c1.4,0,2.3-0.6,2.9-1.8v-4.7c-0.3-0.6-0.6-1.1-1.1-1.5c-0.5-0.3-1.1-0.5-1.8-0.5
			c-0.9,0-1.7,0.4-2.2,1.1C104.1,555.9,103.9,557,103.9,558.4z"/>
		<path d="M116.1,558.3l-1.3,1.2v3.8h-1.1v-14.3h1.1v9.1l1-1.1l3.8-3.8h1.4l-4.3,4.2l4.6,5.8h-1.3L116.1,558.3z"/>
		<path d="M122.4,558.2c0-1,0.2-1.8,0.6-2.6c0.4-0.8,0.9-1.4,1.6-1.8c0.7-0.4,1.5-0.6,2.3-0.6c1.3,0,2.4,0.5,3.2,1.4
			c0.8,0.9,1.2,2.2,1.2,3.7v0.2c0,1-0.2,1.8-0.6,2.6c-0.4,0.8-0.9,1.4-1.6,1.8c-0.7,0.4-1.5,0.6-2.3,0.6c-1.3,0-2.4-0.5-3.2-1.4
			c-0.8-0.9-1.2-2.2-1.2-3.7V558.2z M123.5,558.5c0,1.2,0.3,2.2,0.9,3c0.6,0.8,1.4,1.2,2.4,1.2c1,0,1.8-0.4,2.4-1.2
			c0.6-0.8,0.9-1.8,0.9-3v-0.2c0-0.8-0.1-1.5-0.4-2.1c-0.3-0.6-0.7-1.1-1.2-1.5c-0.5-0.3-1.1-0.5-1.8-0.5c-1,0-1.8,0.4-2.4,1.2
			c-0.6,0.8-0.9,1.8-0.9,3V558.5z"/>
		<path d="M136,558.3l-1.3,1.2v3.8h-1.1v-14.3h1.1v9.1l1-1.1l3.8-3.8h1.4l-4.3,4.2l4.6,5.8h-1.3L136,558.3z"/>
	</g>
	<circle cx="147" cy="568.9" r="4"/>
	<g>
		<g>
			<path d="M172.7,412h-1.2v-6.5h-7.7v6.5h-1.1v-13.5h1.1v6.1h7.7v-6.1h1.2V412z"/>
			<path d="M175.3,406.8c0-1,0.2-1.8,0.6-2.6c0.4-0.8,0.9-1.4,1.6-1.8c0.7-0.4,1.5-0.6,2.3-0.6c1.3,0,2.4,0.5,3.2,1.4
				c0.8,0.9,1.2,2.2,1.2,3.7v0.2c0,1-0.2,1.8-0.6,2.6c-0.4,0.8-0.9,1.4-1.6,1.8c-0.7,0.4-1.5,0.6-2.3,0.6c-1.3,0-2.4-0.5-3.2-1.4
				c-0.8-0.9-1.2-2.2-1.2-3.7V406.8z M176.4,407.1c0,1.2,0.3,2.2,0.9,3c0.6,0.8,1.4,1.2,2.4,1.2c1,0,1.8-0.4,2.4-1.2
				c0.6-0.8,0.9-1.8,0.9-3v-0.2c0-0.8-0.1-1.5-0.4-2.1c-0.3-0.6-0.7-1.1-1.2-1.5c-0.5-0.3-1.1-0.5-1.8-0.5c-1,0-1.8,0.4-2.4,1.2
				c-0.6,0.8-0.9,1.8-0.9,3V407.1z"/>
			<path d="M187.6,402l0,1.7c0.4-0.6,0.8-1.1,1.4-1.4c0.6-0.3,1.2-0.5,1.9-0.5c1.1,0,1.9,0.3,2.4,0.9c0.5,0.6,0.8,1.5,0.8,2.7v6.6
				H193v-6.6c0-0.9-0.2-1.6-0.6-2c-0.4-0.4-1-0.7-1.8-0.7c-0.7,0-1.3,0.2-1.8,0.6c-0.5,0.4-0.9,1-1.2,1.7v6.9h-1.1v-10H187.6z"/>
			<path d="M196.5,406.9c0-1.6,0.3-2.8,1-3.7c0.7-0.9,1.6-1.4,2.8-1.4c1.4,0,2.4,0.5,3.1,1.6l0.1-1.4h1v9.8c0,1.3-0.4,2.3-1.1,3.1
				c-0.7,0.8-1.7,1.1-2.9,1.1c-0.7,0-1.4-0.2-2-0.5c-0.6-0.3-1.1-0.7-1.5-1.2l0.6-0.7c0.8,1,1.7,1.4,2.8,1.4c0.9,0,1.7-0.3,2.2-0.8
				c0.5-0.5,0.8-1.3,0.8-2.3v-1.3c-0.7,1-1.7,1.5-3.1,1.5c-1.2,0-2.1-0.5-2.8-1.4s-1.1-2.2-1.1-3.8V406.9z M197.6,407.1
				c0,1.3,0.3,2.3,0.8,3c0.5,0.7,1.2,1.1,2.2,1.1c1.4,0,2.3-0.6,2.9-1.8v-4.7c-0.3-0.6-0.6-1.1-1.1-1.5c-0.5-0.3-1.1-0.5-1.8-0.5
				c-0.9,0-1.7,0.4-2.2,1.1C197.9,404.6,197.6,405.7,197.6,407.1z"/>
			<path d="M215.4,405.3l-1.9,1.9v4.8h-1.1v-13.5h1.1v7.3l6.9-7.3h1.4l-5.7,6l6.1,7.5h-1.4L215.4,405.3z"/>
			<path d="M223.2,406.8c0-1,0.2-1.8,0.6-2.6c0.4-0.8,0.9-1.4,1.6-1.8c0.7-0.4,1.5-0.6,2.3-0.6c1.3,0,2.4,0.5,3.2,1.4
				c0.8,0.9,1.2,2.2,1.2,3.7v0.2c0,1-0.2,1.8-0.6,2.6c-0.4,0.8-0.9,1.4-1.6,1.8c-0.7,0.4-1.5,0.6-2.3,0.6c-1.3,0-2.4-0.5-3.2-1.4
				c-0.8-0.9-1.2-2.2-1.2-3.7V406.8z M224.3,407.1c0,1.2,0.3,2.2,0.9,3c0.6,0.8,1.4,1.2,2.4,1.2c1,0,1.8-0.4,2.4-1.2
				c0.6-0.8,0.9-1.8,0.9-3v-0.2c0-0.8-0.1-1.5-0.4-2.1c-0.3-0.6-0.7-1.1-1.2-1.5c-0.5-0.3-1.1-0.5-1.8-0.5c-1,0-1.8,0.4-2.4,1.2
				c-0.6,0.8-0.9,1.8-0.9,3V407.1z"/>
			<path d="M235.5,402l0,1.7c0.4-0.6,0.8-1.1,1.4-1.4c0.6-0.3,1.2-0.5,1.9-0.5c1.1,0,1.9,0.3,2.4,0.9c0.5,0.6,0.8,1.5,0.8,2.7v6.6
				h-1.1v-6.6c0-0.9-0.2-1.6-0.6-2c-0.4-0.4-1-0.7-1.8-0.7c-0.7,0-1.3,0.2-1.8,0.6c-0.5,0.4-0.9,1-1.2,1.7v6.9h-1.1v-10H235.5z"/>
			<path d="M244.5,406.9c0-1.6,0.3-2.8,1-3.7c0.7-0.9,1.6-1.4,2.8-1.4c1.4,0,2.4,0.5,3.1,1.6l0.1-1.4h1v9.8c0,1.3-0.4,2.3-1.1,3.1
				c-0.7,0.8-1.7,1.1-2.9,1.1c-0.7,0-1.4-0.2-2-0.5c-0.6-0.3-1.1-0.7-1.5-1.2l0.6-0.7c0.8,1,1.7,1.4,2.8,1.4c0.9,0,1.7-0.3,2.2-0.8
				c0.5-0.5,0.8-1.3,0.8-2.3v-1.3c-0.7,1-1.7,1.5-3.1,1.5c-1.2,0-2.1-0.5-2.8-1.4s-1.1-2.2-1.1-3.8V406.9z M245.6,407.1
				c0,1.3,0.3,2.3,0.8,3c0.5,0.7,1.2,1.1,2.2,1.1c1.4,0,2.3-0.6,2.9-1.8v-4.7c-0.3-0.6-0.6-1.1-1.1-1.5c-0.5-0.3-1.1-0.5-1.8-0.5
				c-0.9,0-1.7,0.4-2.2,1.1C245.9,404.6,245.6,405.7,245.6,407.1z"/>
		</g>
	</g>
	<g>
		<g>
			<path d="M355.7,210.1v-13.5h4c1.4,0,2.5,0.3,3.3,0.9c0.7,0.6,1.1,1.5,1.1,2.6c0,0.7-0.2,1.3-0.6,1.8c-0.4,0.5-0.9,0.9-1.6,1.1
				c0.8,0.2,1.4,0.6,1.9,1.2s0.7,1.3,0.7,2.1c0,1.2-0.4,2.1-1.2,2.8c-0.8,0.7-1.8,1-3.2,1H355.7z M356.8,202.7h3.1
				c1,0,1.7-0.2,2.2-0.7c0.5-0.4,0.8-1.1,0.8-1.9c0-0.9-0.3-1.5-0.8-1.9s-1.4-0.6-2.5-0.6h-2.8V202.7z M356.8,203.7v5.5h3.4
				c1,0,1.8-0.2,2.3-0.7s0.9-1.2,0.9-2.1c0-0.8-0.3-1.5-0.8-2c-0.5-0.5-1.3-0.7-2.3-0.7H356.8z"/>
			<path d="M371,210.3c-0.9,0-1.6-0.2-2.3-0.6s-1.2-1-1.6-1.8c-0.4-0.8-0.6-1.6-0.6-2.5V205c0-1,0.2-1.8,0.6-2.6
				c0.4-0.8,0.9-1.4,1.6-1.8c0.7-0.4,1.4-0.7,2.2-0.7c1.2,0,2.2,0.4,2.9,1.2c0.7,0.8,1.1,2,1.1,3.4v0.6h-7.2v0.2
				c0,1.1,0.3,2.1,1,2.8c0.7,0.8,1.5,1.1,2.5,1.1c0.6,0,1.1-0.1,1.6-0.3c0.5-0.2,0.9-0.6,1.2-1l0.7,0.5
				C373.7,209.7,372.5,210.3,371,210.3z M370.8,200.9c-0.8,0-1.5,0.3-2.1,0.9c-0.6,0.6-0.9,1.4-1,2.5h6v-0.1c0-1-0.3-1.8-0.8-2.4
				S371.6,200.9,370.8,200.9z"/>
			<path d="M376.8,197.2c0-0.2,0.1-0.4,0.2-0.5c0.1-0.1,0.3-0.2,0.6-0.2s0.4,0.1,0.6,0.2c0.1,0.1,0.2,0.3,0.2,0.5s-0.1,0.4-0.2,0.5
				c-0.1,0.1-0.3,0.2-0.6,0.2s-0.4-0.1-0.6-0.2C376.9,197.6,376.8,197.4,376.8,197.2z M378.1,210.1H377v-10h1.1V210.1z"/>
			<path d="M382.4,200.1v11.2c0,0.9-0.2,1.6-0.7,2.1s-1.1,0.7-2,0.7c-0.3,0-0.7-0.1-1-0.2l0-0.9c0.3,0.1,0.6,0.1,0.8,0.1
				c1.1,0,1.7-0.6,1.7-1.9v-11.2H382.4z M381.8,196.5c0.2,0,0.4,0.1,0.6,0.2c0.1,0.1,0.2,0.3,0.2,0.5s-0.1,0.4-0.2,0.5
				c-0.1,0.1-0.3,0.2-0.6,0.2c-0.2,0-0.4-0.1-0.6-0.2c-0.1-0.1-0.2-0.3-0.2-0.5s0.1-0.4,0.2-0.5
				C381.4,196.5,381.6,196.5,381.8,196.5z"/>
			<path d="M385.4,197.2c0-0.2,0.1-0.4,0.2-0.5c0.1-0.1,0.3-0.2,0.6-0.2s0.4,0.1,0.6,0.2c0.1,0.1,0.2,0.3,0.2,0.5s-0.1,0.4-0.2,0.5
				c-0.1,0.1-0.3,0.2-0.6,0.2s-0.4-0.1-0.6-0.2C385.5,197.6,385.4,197.4,385.4,197.2z M386.7,210.1h-1.1v-10h1.1V210.1z"/>
			<path d="M390.8,200.1l0,1.7c0.4-0.6,0.8-1.1,1.4-1.4c0.6-0.3,1.2-0.5,1.9-0.5c1.1,0,1.9,0.3,2.4,0.9s0.8,1.5,0.8,2.7v6.6h-1.1
				v-6.6c0-0.9-0.2-1.6-0.6-2c-0.4-0.4-1-0.7-1.8-0.7c-0.7,0-1.3,0.2-1.8,0.6c-0.5,0.4-0.9,1-1.2,1.7v6.9h-1.1v-10H390.8z"/>
			<path d="M399.7,205c0-1.6,0.3-2.8,1-3.7c0.7-0.9,1.6-1.4,2.8-1.4c1.4,0,2.4,0.5,3.1,1.6l0.1-1.4h1v9.8c0,1.3-0.4,2.3-1.1,3.1
				c-0.7,0.8-1.7,1.1-2.9,1.1c-0.7,0-1.4-0.2-2-0.5c-0.6-0.3-1.1-0.7-1.5-1.2l0.6-0.7c0.8,1,1.7,1.4,2.8,1.4c0.9,0,1.7-0.3,2.2-0.8
				c0.5-0.5,0.8-1.3,0.8-2.3v-1.3c-0.7,1-1.7,1.5-3.1,1.5c-1.2,0-2.1-0.5-2.8-1.4s-1.1-2.2-1.1-3.8V205z M400.9,205.2
				c0,1.3,0.3,2.3,0.8,3c0.5,0.7,1.2,1.1,2.2,1.1c1.4,0,2.3-0.6,2.9-1.8v-4.7c-0.3-0.6-0.6-1.1-1.1-1.5c-0.5-0.3-1.1-0.5-1.8-0.5
				c-0.9,0-1.7,0.4-2.2,1.1C401.1,202.7,400.9,203.8,400.9,205.2z"/>
		</g>
	</g>
	<g>
		<g>
			<path d="M647.7,265.6h-4.6v12.5h-1.1v-12.5h-4.6v-1h10.4V265.6z"/>
			<path d="M648.1,273c0-1,0.2-1.8,0.6-2.6c0.4-0.8,0.9-1.4,1.6-1.8c0.7-0.4,1.5-0.6,2.3-0.6c1.3,0,2.4,0.5,3.2,1.4
				c0.8,0.9,1.2,2.2,1.2,3.7v0.2c0,1-0.2,1.8-0.6,2.6s-0.9,1.4-1.6,1.8s-1.5,0.6-2.3,0.6c-1.3,0-2.4-0.5-3.2-1.4
				c-0.8-0.9-1.2-2.2-1.2-3.7V273z M649.2,273.3c0,1.2,0.3,2.2,0.9,3c0.6,0.8,1.4,1.2,2.4,1.2c1,0,1.8-0.4,2.4-1.2
				c0.6-0.8,0.9-1.8,0.9-3V273c0-0.8-0.1-1.5-0.4-2.1s-0.7-1.1-1.2-1.5c-0.5-0.3-1.1-0.5-1.8-0.5c-1,0-1.8,0.4-2.4,1.2
				c-0.6,0.8-0.9,1.8-0.9,3V273.3z"/>
			<path d="M661.7,273.1l-1.3,1.2v3.8h-1.1v-14.3h1.1v9.1l1-1.1l3.8-3.8h1.4l-4.3,4.2l4.6,5.8h-1.3L661.7,273.1z"/>
			<path d="M671.8,276.6l2.9-8.4h1.2l-4.3,11.7l-0.2,0.5c-0.6,1.2-1.4,1.8-2.6,1.8c-0.3,0-0.6,0-0.9-0.1l0-0.9l0.6,0.1
				c0.5,0,1-0.1,1.3-0.4c0.3-0.3,0.6-0.7,0.9-1.4l0.5-1.4l-3.8-10h1.2L671.8,276.6z"/>
			<path d="M676.9,273c0-1,0.2-1.8,0.6-2.6c0.4-0.8,0.9-1.4,1.6-1.8c0.7-0.4,1.5-0.6,2.3-0.6c1.3,0,2.4,0.5,3.2,1.4
				c0.8,0.9,1.2,2.2,1.2,3.7v0.2c0,1-0.2,1.8-0.6,2.6s-0.9,1.4-1.6,1.8s-1.5,0.6-2.3,0.6c-1.3,0-2.4-0.5-3.2-1.4
				c-0.8-0.9-1.2-2.2-1.2-3.7V273z M678,273.3c0,1.2,0.3,2.2,0.9,3c0.6,0.8,1.4,1.2,2.4,1.2c1,0,1.8-0.4,2.4-1.2
				c0.6-0.8,0.9-1.8,0.9-3V273c0-0.8-0.1-1.5-0.4-2.1s-0.7-1.1-1.2-1.5c-0.5-0.3-1.1-0.5-1.8-0.5c-1,0-1.8,0.4-2.4,1.2
				c-0.6,0.8-0.9,1.8-0.9,3V273.3z"/>
		</g>
	</g>
	<circle cx="346" cy="204.2" r="4"/>
	<circle cx="626.7" cy="270.3" r="4"/>
	<g>
		<g>
			<path class="st0" d="M256.5,407.9c33.3-2.2,47.4,25.2,50.9,33.7"/>
			<g>
				<polygon points="310,440.1 304.3,442.4 308.3,444.1 				"/>
			</g>
		</g>
	</g>
	<circle cx="470.8" cy="239.3" r="4"/>
	<g>
		<path d="M787.2,573.3v-13.5h4c1.4,0,2.5,0.3,3.3,0.9c0.7,0.6,1.1,1.5,1.1,2.6c0,0.7-0.2,1.3-0.6,1.8c-0.4,0.5-0.9,0.9-1.6,1.1
			c0.8,0.2,1.4,0.6,1.9,1.2s0.7,1.3,0.7,2.1c0,1.2-0.4,2.1-1.2,2.8c-0.8,0.7-1.8,1-3.2,1H787.2z M788.3,565.9h3.1
			c1,0,1.7-0.2,2.2-0.7c0.5-0.4,0.8-1.1,0.8-1.9c0-0.9-0.3-1.5-0.8-1.9s-1.4-0.6-2.5-0.6h-2.8V565.9z M788.3,566.9v5.5h3.4
			c1,0,1.8-0.2,2.3-0.7s0.9-1.2,0.9-2.1c0-0.8-0.3-1.5-0.8-2c-0.5-0.5-1.3-0.7-2.3-0.7H788.3z"/>
		<path d="M804.9,573.3c-0.1-0.3-0.2-0.8-0.2-1.4c-0.4,0.5-0.9,0.9-1.5,1.2c-0.6,0.3-1.2,0.4-1.9,0.4c-1,0-1.7-0.3-2.3-0.8
			c-0.6-0.5-0.9-1.2-0.9-2c0-1,0.4-1.8,1.2-2.3c0.8-0.6,1.9-0.9,3.4-0.9h2v-1.1c0-0.7-0.2-1.3-0.7-1.7c-0.4-0.4-1.1-0.6-1.9-0.6
			c-0.8,0-1.4,0.2-1.9,0.6c-0.5,0.4-0.8,0.9-0.8,1.4l-1.1,0c0-0.8,0.4-1.5,1.1-2.1c0.7-0.6,1.7-0.9,2.7-0.9c1.1,0,2,0.3,2.6,0.8
			s1,1.3,1,2.3v4.8c0,1,0.1,1.7,0.3,2.2v0.1H804.9z M801.4,572.6c0.7,0,1.4-0.2,2-0.5c0.6-0.4,1-0.8,1.3-1.4v-2.2h-2
			c-1.1,0-2,0.2-2.6,0.6s-0.9,0.9-0.9,1.6c0,0.6,0.2,1,0.6,1.4S800.7,572.6,801.4,572.6z"/>
		<path d="M809.8,563.3l0,1.7c0.4-0.6,0.8-1.1,1.4-1.4c0.6-0.3,1.2-0.5,1.9-0.5c1.1,0,1.9,0.3,2.4,0.9c0.5,0.6,0.8,1.5,0.8,2.7v6.6
			h-1.1v-6.6c0-0.9-0.2-1.6-0.6-2c-0.4-0.4-1-0.7-1.8-0.7c-0.7,0-1.3,0.2-1.8,0.6c-0.5,0.4-0.9,1-1.2,1.7v6.9h-1.1v-10H809.8z"/>
		<path d="M818.7,568.2c0-1.6,0.3-2.8,1-3.7c0.7-0.9,1.6-1.4,2.8-1.4c1.4,0,2.4,0.5,3.1,1.6l0.1-1.4h1v9.8c0,1.3-0.4,2.3-1.1,3.1
			c-0.7,0.8-1.7,1.1-2.9,1.1c-0.7,0-1.4-0.2-2-0.5c-0.6-0.3-1.1-0.7-1.5-1.2l0.6-0.7c0.8,1,1.7,1.4,2.8,1.4c0.9,0,1.7-0.3,2.2-0.8
			c0.5-0.5,0.8-1.3,0.8-2.3V572c-0.7,1-1.7,1.5-3.1,1.5c-1.2,0-2.1-0.5-2.8-1.4s-1.1-2.2-1.1-3.8V568.2z M819.9,568.4
			c0,1.3,0.3,2.3,0.8,3c0.5,0.7,1.2,1.1,2.2,1.1c1.4,0,2.3-0.6,2.9-1.8v-4.7c-0.3-0.6-0.6-1.1-1.1-1.5s-1.1-0.5-1.8-0.5
			c-0.9,0-1.7,0.4-2.2,1.1C820.1,565.9,819.9,567,819.9,568.4z"/>
		<path d="M832.1,568.3l-1.3,1.2v3.8h-1.1v-14.3h1.1v9.1l1-1.1l3.8-3.8h1.4l-4.3,4.2l4.6,5.8h-1.3L832.1,568.3z"/>
		<path d="M838.4,568.2c0-1,0.2-1.8,0.6-2.6c0.4-0.8,0.9-1.4,1.6-1.8c0.7-0.4,1.5-0.6,2.3-0.6c1.3,0,2.4,0.5,3.2,1.4
			c0.8,0.9,1.2,2.2,1.2,3.7v0.2c0,1-0.2,1.8-0.6,2.6s-0.9,1.4-1.6,1.8c-0.7,0.4-1.5,0.6-2.3,0.6c-1.3,0-2.4-0.5-3.2-1.4
			c-0.8-0.9-1.2-2.2-1.2-3.7V568.2z M839.5,568.5c0,1.2,0.3,2.2,0.9,3c0.6,0.8,1.4,1.2,2.4,1.2c1,0,1.8-0.4,2.4-1.2
			c0.6-0.8,0.9-1.8,0.9-3v-0.2c0-0.8-0.1-1.5-0.4-2.1c-0.3-0.6-0.7-1.1-1.2-1.5c-0.5-0.3-1.1-0.5-1.8-0.5c-1,0-1.8,0.4-2.4,1.2
			c-0.6,0.8-0.9,1.8-0.9,3V568.5z"/>
		<path d="M852,568.3l-1.3,1.2v3.8h-1.1v-14.3h1.1v9.1l1-1.1l3.8-3.8h1.4l-4.3,4.2l4.6,5.8h-1.3L852,568.3z"/>
	</g>
	<circle cx="869" cy="568.9" r="4"/>
	<g>
		<g>
			<path d="M922.5,432.8h-1.2v-6.5h-7.7v6.5h-1.1v-13.5h1.1v6.1h7.7v-6.1h1.2V432.8z"/>
			<path d="M925.1,427.6c0-1,0.2-1.8,0.6-2.6s0.9-1.4,1.6-1.8c0.7-0.4,1.5-0.6,2.3-0.6c1.3,0,2.4,0.5,3.2,1.4
				c0.8,0.9,1.2,2.2,1.2,3.7v0.2c0,1-0.2,1.8-0.6,2.6c-0.4,0.8-0.9,1.4-1.6,1.8c-0.7,0.4-1.5,0.6-2.3,0.6c-1.3,0-2.4-0.5-3.2-1.4
				c-0.8-0.9-1.2-2.2-1.2-3.7V427.6z M926.2,427.9c0,1.2,0.3,2.2,0.9,3c0.6,0.8,1.4,1.2,2.4,1.2c1,0,1.8-0.4,2.4-1.2
				c0.6-0.8,0.9-1.8,0.9-3v-0.2c0-0.8-0.1-1.5-0.4-2.1c-0.3-0.6-0.7-1.1-1.2-1.5s-1.1-0.5-1.8-0.5c-1,0-1.8,0.4-2.4,1.2
				c-0.6,0.8-0.9,1.8-0.9,3V427.9z"/>
			<path d="M937.4,422.8l0,1.7c0.4-0.6,0.8-1.1,1.4-1.4c0.6-0.3,1.2-0.5,1.9-0.5c1.1,0,1.9,0.3,2.4,0.9c0.5,0.6,0.8,1.5,0.8,2.7v6.6
				h-1.1v-6.6c0-0.9-0.2-1.6-0.6-2c-0.4-0.4-1-0.7-1.8-0.7c-0.7,0-1.3,0.2-1.8,0.6c-0.5,0.4-0.9,1-1.2,1.7v6.9h-1.1v-10H937.4z"/>
			<path d="M946.3,427.7c0-1.6,0.3-2.8,1-3.7c0.7-0.9,1.6-1.4,2.8-1.4c1.4,0,2.4,0.5,3.1,1.6l0.1-1.4h1v9.8c0,1.3-0.4,2.3-1.1,3.1
				c-0.7,0.8-1.7,1.1-2.9,1.1c-0.7,0-1.4-0.2-2-0.5c-0.6-0.3-1.1-0.7-1.5-1.2l0.6-0.7c0.8,1,1.7,1.4,2.8,1.4c0.9,0,1.7-0.3,2.2-0.8
				c0.5-0.5,0.8-1.3,0.8-2.3v-1.3c-0.7,1-1.7,1.5-3.1,1.5c-1.2,0-2.1-0.5-2.8-1.4s-1.1-2.2-1.1-3.8V427.7z M947.5,427.9
				c0,1.3,0.3,2.3,0.8,3s1.2,1.1,2.2,1.1c1.4,0,2.3-0.6,2.9-1.8v-4.7c-0.3-0.6-0.6-1.1-1.1-1.5s-1.1-0.5-1.8-0.5
				c-0.9,0-1.7,0.4-2.2,1.1C947.7,425.4,947.5,426.5,947.5,427.9z"/>
			<path d="M965.3,426.1l-1.9,1.9v4.8h-1.1v-13.5h1.1v7.3l6.9-7.3h1.4l-5.7,6l6.1,7.5h-1.4L965.3,426.1z"/>
			<path d="M973.1,427.6c0-1,0.2-1.8,0.6-2.6c0.4-0.8,0.9-1.4,1.6-1.8c0.7-0.4,1.5-0.6,2.3-0.6c1.3,0,2.4,0.5,3.2,1.4
				c0.8,0.9,1.2,2.2,1.2,3.7v0.2c0,1-0.2,1.8-0.6,2.6s-0.9,1.4-1.6,1.8s-1.5,0.6-2.3,0.6c-1.3,0-2.4-0.5-3.2-1.4
				c-0.8-0.9-1.2-2.2-1.2-3.7V427.6z M974.2,427.9c0,1.2,0.3,2.2,0.9,3c0.6,0.8,1.4,1.2,2.4,1.2c1,0,1.8-0.4,2.4-1.2
				c0.6-0.8,0.9-1.8,0.9-3v-0.2c0-0.8-0.1-1.5-0.4-2.1s-0.7-1.1-1.2-1.5c-0.5-0.3-1.1-0.5-1.8-0.5c-1,0-1.8,0.4-2.4,1.2
				c-0.6,0.8-0.9,1.8-0.9,3V427.9z"/>
			<path d="M985.4,422.8l0,1.7c0.4-0.6,0.8-1.1,1.4-1.4c0.6-0.3,1.2-0.5,1.9-0.5c1.1,0,1.9,0.3,2.4,0.9s0.8,1.5,0.8,2.7v6.6h-1.1
				v-6.6c0-0.9-0.2-1.6-0.6-2c-0.4-0.4-1-0.7-1.8-0.7c-0.7,0-1.3,0.2-1.8,0.6c-0.5,0.4-0.9,1-1.2,1.7v6.9h-1.1v-10H985.4z"/>
			<path d="M994.3,427.7c0-1.6,0.3-2.8,1-3.7c0.7-0.9,1.6-1.4,2.8-1.4c1.4,0,2.4,0.5,3.1,1.6l0.1-1.4h1v9.8c0,1.3-0.4,2.3-1.1,3.1
				c-0.7,0.8-1.7,1.1-2.9,1.1c-0.7,0-1.4-0.2-2-0.5c-0.6-0.3-1.1-0.7-1.5-1.2l0.6-0.7c0.8,1,1.7,1.4,2.8,1.4c0.9,0,1.7-0.3,2.2-0.8
				c0.5-0.5,0.8-1.3,0.8-2.3v-1.3c-0.7,1-1.7,1.5-3.1,1.5c-1.2,0-2.1-0.5-2.8-1.4s-1.1-2.2-1.1-3.8V427.7z M995.4,427.9
				c0,1.3,0.3,2.3,0.8,3c0.5,0.7,1.2,1.1,2.2,1.1c1.4,0,2.3-0.6,2.9-1.8v-4.7c-0.3-0.6-0.6-1.1-1.1-1.5c-0.5-0.3-1.1-0.5-1.8-0.5
				c-0.9,0-1.7,0.4-2.2,1.1C995.7,425.4,995.4,426.5,995.4,427.9z"/>
		</g>
	</g>
	<g>
		<g>
			<path d="M1066.7,210.1v-13.5h4c1.4,0,2.5,0.3,3.3,0.9c0.7,0.6,1.1,1.5,1.1,2.6c0,0.7-0.2,1.3-0.6,1.8c-0.4,0.5-0.9,0.9-1.6,1.1
				c0.8,0.2,1.4,0.6,1.9,1.2c0.5,0.6,0.7,1.3,0.7,2.1c0,1.2-0.4,2.1-1.2,2.8c-0.8,0.7-1.8,1-3.2,1H1066.7z M1067.8,202.7h3.1
				c1,0,1.7-0.2,2.2-0.7s0.8-1.1,0.8-1.9c0-0.9-0.3-1.5-0.8-1.9c-0.5-0.4-1.4-0.6-2.5-0.6h-2.8V202.7z M1067.8,203.7v5.5h3.4
				c1,0,1.8-0.2,2.3-0.7c0.6-0.5,0.9-1.2,0.9-2.1c0-0.8-0.3-1.5-0.8-2c-0.5-0.5-1.3-0.7-2.3-0.7H1067.8z"/>
			<path d="M1082,210.3c-0.9,0-1.6-0.2-2.3-0.6c-0.7-0.4-1.2-1-1.6-1.8c-0.4-0.8-0.6-1.6-0.6-2.5V205c0-1,0.2-1.8,0.6-2.6
				s0.9-1.4,1.6-1.8c0.7-0.4,1.4-0.7,2.2-0.7c1.2,0,2.2,0.4,2.9,1.2c0.7,0.8,1.1,2,1.1,3.4v0.6h-7.2v0.2c0,1.1,0.3,2.1,1,2.8
				s1.5,1.1,2.5,1.1c0.6,0,1.1-0.1,1.6-0.3c0.5-0.2,0.9-0.6,1.2-1l0.7,0.5C1084.7,209.7,1083.5,210.3,1082,210.3z M1081.8,200.9
				c-0.8,0-1.5,0.3-2.1,0.9c-0.6,0.6-0.9,1.4-1,2.5h6v-0.1c0-1-0.3-1.8-0.8-2.4S1082.6,200.9,1081.8,200.9z"/>
			<path d="M1087.8,197.2c0-0.2,0.1-0.4,0.2-0.5c0.1-0.1,0.3-0.2,0.6-0.2c0.2,0,0.4,0.1,0.6,0.2c0.1,0.1,0.2,0.3,0.2,0.5
				s-0.1,0.4-0.2,0.5c-0.1,0.1-0.3,0.2-0.6,0.2c-0.2,0-0.4-0.1-0.6-0.2C1087.9,197.6,1087.8,197.4,1087.8,197.2z M1089.1,210.1h-1.1
				v-10h1.1V210.1z"/>
			<path d="M1093.4,200.1v11.2c0,0.9-0.2,1.6-0.7,2.1s-1.1,0.7-2,0.7c-0.3,0-0.7-0.1-1-0.2l0-0.9c0.3,0.1,0.6,0.1,0.8,0.1
				c1.1,0,1.7-0.6,1.7-1.9v-11.2H1093.4z M1092.8,196.5c0.2,0,0.4,0.1,0.6,0.2c0.1,0.1,0.2,0.3,0.2,0.5s-0.1,0.4-0.2,0.5
				c-0.1,0.1-0.3,0.2-0.6,0.2c-0.2,0-0.4-0.1-0.6-0.2c-0.1-0.1-0.2-0.3-0.2-0.5s0.1-0.4,0.2-0.5
				C1092.4,196.5,1092.6,196.5,1092.8,196.5z"/>
			<path d="M1096.4,197.2c0-0.2,0.1-0.4,0.2-0.5c0.1-0.1,0.3-0.2,0.6-0.2c0.2,0,0.4,0.1,0.6,0.2c0.1,0.1,0.2,0.3,0.2,0.5
				s-0.1,0.4-0.2,0.5c-0.1,0.1-0.3,0.2-0.6,0.2c-0.2,0-0.4-0.1-0.6-0.2C1096.5,197.6,1096.4,197.4,1096.4,197.2z M1097.7,210.1h-1.1
				v-10h1.1V210.1z"/>
			<path d="M1101.8,200.1l0,1.7c0.4-0.6,0.8-1.1,1.4-1.4c0.6-0.3,1.2-0.5,1.9-0.5c1.1,0,1.9,0.3,2.4,0.9c0.5,0.6,0.8,1.5,0.8,2.7
				v6.6h-1.1v-6.6c0-0.9-0.2-1.6-0.6-2c-0.4-0.4-1-0.7-1.8-0.7c-0.7,0-1.3,0.2-1.8,0.6c-0.5,0.4-0.9,1-1.2,1.7v6.9h-1.1v-10H1101.8z
				"/>
			<path d="M1110.7,205c0-1.6,0.3-2.8,1-3.7c0.7-0.9,1.6-1.4,2.8-1.4c1.4,0,2.4,0.5,3.1,1.6l0.1-1.4h1v9.8c0,1.3-0.4,2.3-1.1,3.1
				c-0.7,0.8-1.7,1.1-2.9,1.1c-0.7,0-1.4-0.2-2-0.5c-0.6-0.3-1.1-0.7-1.5-1.2l0.6-0.7c0.8,1,1.7,1.4,2.8,1.4c0.9,0,1.7-0.3,2.2-0.8
				c0.5-0.5,0.8-1.3,0.8-2.3v-1.3c-0.7,1-1.7,1.5-3.1,1.5c-1.2,0-2.1-0.5-2.8-1.4s-1.1-2.2-1.1-3.8V205z M1111.9,205.2
				c0,1.3,0.3,2.3,0.8,3s1.2,1.1,2.2,1.1c1.4,0,2.3-0.6,2.9-1.8v-4.7c-0.3-0.6-0.6-1.1-1.1-1.5s-1.1-0.5-1.8-0.5
				c-0.9,0-1.7,0.4-2.2,1.1C1112.1,202.7,1111.9,203.8,1111.9,205.2z"/>
		</g>
	</g>
	<g>
		<g>
			<path d="M1367.7,265.6h-4.6v12.5h-1.1v-12.5h-4.6v-1h10.4V265.6z"/>
			<path d="M1368.1,273c0-1,0.2-1.8,0.6-2.6c0.4-0.8,0.9-1.4,1.6-1.8c0.7-0.4,1.5-0.6,2.3-0.6c1.3,0,2.4,0.5,3.2,1.4
				c0.8,0.9,1.2,2.2,1.2,3.7v0.2c0,1-0.2,1.8-0.6,2.6c-0.4,0.8-0.9,1.4-1.6,1.8c-0.7,0.4-1.5,0.6-2.3,0.6c-1.3,0-2.4-0.5-3.2-1.4
				c-0.8-0.9-1.2-2.2-1.2-3.7V273z M1369.2,273.3c0,1.2,0.3,2.2,0.9,3c0.6,0.8,1.4,1.2,2.4,1.2c1,0,1.8-0.4,2.4-1.2
				c0.6-0.8,0.9-1.8,0.9-3V273c0-0.8-0.1-1.5-0.4-2.1s-0.7-1.1-1.2-1.5c-0.5-0.3-1.1-0.5-1.8-0.5c-1,0-1.8,0.4-2.4,1.2
				c-0.6,0.8-0.9,1.8-0.9,3V273.3z"/>
			<path d="M1381.7,273.1l-1.3,1.2v3.8h-1.1v-14.3h1.1v9.1l1-1.1l3.8-3.8h1.4l-4.3,4.2l4.6,5.8h-1.3L1381.7,273.1z"/>
			<path d="M1391.8,276.6l2.9-8.4h1.2l-4.3,11.7l-0.2,0.5c-0.6,1.2-1.4,1.8-2.6,1.8c-0.3,0-0.6,0-0.9-0.1l0-0.9l0.6,0.1
				c0.5,0,1-0.1,1.3-0.4c0.3-0.3,0.6-0.7,0.9-1.4l0.5-1.4l-3.8-10h1.2L1391.8,276.6z"/>
			<path d="M1396.9,273c0-1,0.2-1.8,0.6-2.6c0.4-0.8,0.9-1.4,1.6-1.8c0.7-0.4,1.5-0.6,2.3-0.6c1.3,0,2.4,0.5,3.2,1.4
				c0.8,0.9,1.2,2.2,1.2,3.7v0.2c0,1-0.2,1.8-0.6,2.6c-0.4,0.8-0.9,1.4-1.6,1.8c-0.7,0.4-1.5,0.6-2.3,0.6c-1.3,0-2.4-0.5-3.2-1.4
				c-0.8-0.9-1.2-2.2-1.2-3.7V273z M1398,273.3c0,1.2,0.3,2.2,0.9,3c0.6,0.8,1.4,1.2,2.4,1.2c1,0,1.8-0.4,2.4-1.2
				c0.6-0.8,0.9-1.8,0.9-3V273c0-0.8-0.1-1.5-0.4-2.1s-0.7-1.1-1.2-1.5c-0.5-0.3-1.1-0.5-1.8-0.5c-1,0-1.8,0.4-2.4,1.2
				c-0.6,0.8-0.9,1.8-0.9,3V273.3z"/>
		</g>
	</g>
	<circle cx="1057" cy="204.2" r="4"/>
	<g>
		<g>
			<path class="st0" d="M1006.6,428.4c15.8-0.2,20.6,10.9,22,16.1"/>
			<g>
				<polygon points="1031.5,443.4 1025.6,444.7 1029.2,447.1 				"/>
			</g>
		</g>
	</g>
	<circle cx="1187.2" cy="240.5" r="4"/>
	<g>
		<g>
			<path d="M1142.4,242.2c0-0.7-0.3-1.3-0.8-1.8c-0.5-0.4-1.5-0.9-2.9-1.2s-2.4-0.8-3.1-1.3c-0.9-0.7-1.4-1.5-1.4-2.6
				c0-1,0.4-1.9,1.3-2.5c0.9-0.6,1.9-1,3.3-1c0.9,0,1.7,0.2,2.4,0.5s1.3,0.8,1.6,1.4s0.6,1.3,0.6,2.1h-1.2c0-0.9-0.3-1.7-0.9-2.2
				c-0.6-0.6-1.5-0.8-2.5-0.8c-1,0-1.9,0.2-2.5,0.7s-0.9,1.1-0.9,1.8c0,0.7,0.3,1.2,0.8,1.7c0.5,0.4,1.4,0.8,2.6,1.1s2.1,0.7,2.8,1
				c0.6,0.4,1.1,0.8,1.4,1.3c0.3,0.5,0.5,1.1,0.5,1.8c0,1.1-0.4,1.9-1.3,2.6s-2,1-3.4,1c-1,0-1.8-0.2-2.6-0.5
				c-0.8-0.3-1.4-0.8-1.8-1.4c-0.4-0.6-0.6-1.3-0.6-2.1h1.1c0,1,0.4,1.7,1.1,2.3c0.7,0.6,1.7,0.8,2.8,0.8c1.1,0,1.9-0.2,2.5-0.7
				C1142.1,243.6,1142.4,243,1142.4,242.2z"/>
			<path d="M1149.6,245.7c-0.9,0-1.6-0.2-2.3-0.6s-1.2-1-1.6-1.8c-0.4-0.8-0.6-1.6-0.6-2.5v-0.4c0-1,0.2-1.8,0.6-2.6
				c0.4-0.8,0.9-1.4,1.6-1.8c0.7-0.4,1.4-0.7,2.2-0.7c1.2,0,2.2,0.4,2.9,1.2c0.7,0.8,1.1,2,1.1,3.4v0.6h-7.2v0.2
				c0,1.1,0.3,2.1,1,2.8c0.7,0.8,1.5,1.1,2.5,1.1c0.6,0,1.1-0.1,1.6-0.3c0.5-0.2,0.9-0.6,1.2-1l0.7,0.5
				C1152.3,245.2,1151.2,245.7,1149.6,245.7z M1149.4,236.3c-0.8,0-1.5,0.3-2.1,0.9c-0.6,0.6-0.9,1.4-1,2.5h6v-0.1
				c0-1-0.3-1.8-0.8-2.4S1150.2,236.3,1149.4,236.3z"/>
			<path d="M1154.9,240.4c0-1,0.2-1.8,0.6-2.6c0.4-0.8,0.9-1.4,1.6-1.8c0.7-0.4,1.5-0.6,2.3-0.6c1.3,0,2.4,0.5,3.2,1.4
				c0.8,0.9,1.2,2.2,1.2,3.7v0.2c0,1-0.2,1.8-0.6,2.6s-0.9,1.4-1.6,1.8s-1.5,0.6-2.3,0.6c-1.3,0-2.4-0.5-3.2-1.4
				c-0.8-0.9-1.2-2.2-1.2-3.7V240.4z M1156,240.7c0,1.2,0.3,2.2,0.9,3c0.6,0.8,1.4,1.2,2.4,1.2c1,0,1.8-0.4,2.4-1.2
				c0.6-0.8,0.9-1.8,0.9-3v-0.2c0-0.8-0.1-1.5-0.4-2.1s-0.7-1.1-1.2-1.5c-0.5-0.3-1.1-0.5-1.8-0.5c-1,0-1.8,0.4-2.4,1.2
				c-0.6,0.8-0.9,1.8-0.9,3V240.7z"/>
			<path d="M1172.6,244.3c-0.7,1-1.7,1.5-3.2,1.5c-1.1,0-1.9-0.3-2.4-0.9c-0.6-0.6-0.8-1.5-0.9-2.8v-6.5h1.1v6.4
				c0,1.9,0.8,2.9,2.3,2.9c1.6,0,2.6-0.7,3.1-2v-7.3h1.1v10h-1.1L1172.6,244.3z"/>
			<path d="M1177.9,245.6h-1.1v-14.3h1.1V245.6z"/>
		</g>
	</g>
	<circle cx="404.7" cy="421.5" r="4"/>
	<circle cx="1122.7" cy="422.5" r="4"/>
</g>
<g id="Capa_1" class="st1">
	<line class="st2" x1="0" y1="0" x2="700" y2="700"/>
	<line class="st2" x1="700" y1="0" x2="0" y2="700"/>
</g>
<g id="square">
</g>
</svg>
