<svg xmlns="http://www.w3.org/2000/svg" xmlns:xlink="http://www.w3.org/1999/xlink" viewBox="0 0 300 400"><defs><style>.cls-1{font-size:9px;font-family:Roboto-Light, Roboto;}.cls-1,.cls-6,.cls-8{fill:#666;}.cls-1,.cls-8{font-weight:300;}.cls-2{font-size:10px;}.cls-2,.cls-6{font-family:Roboto-Black, Roboto;font-weight:800;}.cls-3{letter-spacing:-0.02em;}.cls-4{letter-spacing:0.02em;}.cls-5{letter-spacing:-0.01em;}.cls-6{font-size:14px;}.cls-7{letter-spacing:-0.02em;}.cls-8{font-size:8px;font-family:Roboto-LightItalic, Roboto;font-style:italic;}.cls-9{letter-spacing:0.01em;}.cls-10{font-size:11px;fill:#3f3f3f;font-family:Roboto-Bold, Roboto;font-weight:700;}.cls-11{fill:none;stroke:#000;stroke-miterlimit:10;stroke-width:0.5px;}</style></defs><title>mapa5</title><g id="fondo"><image width="1200" height="1497" transform="translate(0) scale(0.25 0.27)" xlink:href="mapa3.png"/></g><g id="texto1_copia_2" data-name="texto1 copia 2"><text class="cls-1" transform="translate(130.35 100.89)">SHENZHEN</text><text class="cls-2" transform="translate(104.83 175.68)">Ae<tspan class="cls-3" x="12.26" y="0">r</tspan><tspan x="15.87" y="0">opue</tspan><tspan class="cls-4" x="38.2" y="0">r</tspan><tspan class="cls-5" x="42.23" y="0">t</tspan><tspan x="45.52" y="0">o</tspan></text><text class="cls-6" transform="translate(159.45 157.11)">HONG <tspan class="cls-7" x="42.36" y="0">K</tspan><tspan x="51.11" y="0">ONG</tspan></text><text class="cls-8" transform="translate(182.72 361.12)"><tspan class="cls-9">M</tspan><tspan x="6.82" y="0">AR DE CHI</tspan><tspan class="cls-9" x="42.82" y="0">N</tspan><tspan x="48.43" y="0">A</tspan><tspan x="0" y="9.6">MERIDON</tspan><tspan class="cls-9" x="34.23" y="9.6">I</tspan><tspan x="36.41" y="9.6">AL</tspan></text><circle cx="136.3" cy="189.9" r="1.9"/><text class="cls-10" transform="translate(185.08 234.17)">Sin salidas</text><path class="cls-11" d="M136.29,197.63c9,33,34.71,34.62,43.73,33.26" transform="translate(0)"/><polygon points="135.8 198.82 136.36 197.76 137.42 198.31 137.21 197.63 136.14 197.07 135.59 198.13 135.8 198.82"/></g></svg>