<?xml version="1.0" encoding="utf-8"?>
<!-- Generator: Adobe Illustrator 24.0.1, SVG Export Plug-In . SVG Version: 6.00 Build 0)  -->
<svg version="1.1" xmlns="http://www.w3.org/2000/svg" xmlns:xlink="http://www.w3.org/1999/xlink" x="0px" y="0px"
	 viewBox="0 0 700 150" style="enable-background:new 0 0 700 150;" xml:space="preserve">
<style type="text/css">
	.st0{display:none;}
	.st1{display:inline;fill:none;stroke:#303030;stroke-miterlimit:10;}
	.st2{display:inline;fill:none;stroke:#303030;stroke-width:0.9695;stroke-miterlimit:10;}
	.st3{fill:#FFA79E;}
	.st4{fill:none;stroke:#000000;stroke-width:0.8;stroke-miterlimit:10;}
	.st5{fill:#303030;}
	.st6{fill:none;stroke:#303030;stroke-miterlimit:10;}
	.st7{fill:none;stroke:#303030;stroke-width:0.9695;stroke-miterlimit:10;}
	.st8{fill:#383838;}
	.st9{fill:#FFFFFF;}
</style>
<g id="REGLA" class="st0">
</g>
<g id="Capa_1" class="st0">
	
		<image style="display:inline;overflow:visible;" width="633" height="219" xlink:href="captura.png"  transform="matrix(1.1058 0 0 1.1058 0 -288.1801)">
	</image>
	<line class="st1" x1="46.9" y1="-185.8" x2="46.9" y2="-192.6"/>
	<line class="st2" x1="39.9" y1="-178.8" x2="39.9" y2="-199.6"/>
	<line class="st1" x1="53.9" y1="-185.8" x2="53.9" y2="-192.6"/>
	<line class="st1" x1="60.9" y1="-185.8" x2="60.9" y2="-192.6"/>
	<line class="st1" x1="67.9" y1="-185.8" x2="67.9" y2="-192.6"/>
	<line class="st1" x1="74.9" y1="-185.8" x2="74.9" y2="-192.6"/>
	<line class="st1" x1="81.9" y1="-185.8" x2="81.9" y2="-192.6"/>
	<line class="st1" x1="88.9" y1="-185.8" x2="88.9" y2="-192.6"/>
	<line class="st1" x1="95.9" y1="-185.8" x2="95.9" y2="-192.6"/>
	<line class="st1" x1="102.9" y1="-185.8" x2="102.9" y2="-192.6"/>
	<line class="st1" x1="109.9" y1="-185.8" x2="109.9" y2="-192.6"/>
	<line class="st1" x1="116.9" y1="-185.8" x2="116.9" y2="-192.6"/>
	<line class="st1" x1="123.9" y1="-185.8" x2="123.9" y2="-192.6"/>
	<line class="st1" x1="130.9" y1="-185.8" x2="130.9" y2="-192.6"/>
	<line class="st1" x1="137.9" y1="-185.8" x2="137.9" y2="-192.6"/>
	<line class="st1" x1="144.9" y1="-185.8" x2="144.9" y2="-192.6"/>
	<line class="st1" x1="151.9" y1="-185.8" x2="151.9" y2="-192.6"/>
	<line class="st1" x1="158.9" y1="-185.8" x2="158.9" y2="-192.6"/>
	<line class="st1" x1="165.9" y1="-185.8" x2="165.9" y2="-192.6"/>
	<line class="st1" x1="172.9" y1="-185.8" x2="172.9" y2="-192.6"/>
	<line class="st1" x1="179.9" y1="-185.8" x2="179.9" y2="-192.6"/>
	<line class="st1" x1="186.9" y1="-185.8" x2="186.9" y2="-192.6"/>
	<line class="st1" x1="193.9" y1="-185.8" x2="193.9" y2="-192.6"/>
	<line class="st1" x1="200.9" y1="-185.8" x2="200.9" y2="-192.6"/>
	<line class="st1" x1="207.9" y1="-185.8" x2="207.9" y2="-192.6"/>
	<line class="st1" x1="214.9" y1="-185.8" x2="214.9" y2="-192.6"/>
	<line class="st1" x1="221.9" y1="-185.8" x2="221.9" y2="-192.6"/>
	<line class="st1" x1="228.9" y1="-185.8" x2="228.9" y2="-192.6"/>
	<line class="st1" x1="235.9" y1="-185.8" x2="235.9" y2="-192.6"/>
	<line class="st1" x1="242.9" y1="-185.8" x2="242.9" y2="-192.6"/>
	<line class="st1" x1="249.9" y1="-185.8" x2="249.9" y2="-192.6"/>
	<line class="st1" x1="256.9" y1="-185.8" x2="256.9" y2="-192.6"/>
	<line class="st1" x1="263.9" y1="-185.8" x2="263.9" y2="-192.6"/>
	<line class="st1" x1="270.9" y1="-185.8" x2="270.9" y2="-192.6"/>
	<line class="st1" x1="277.9" y1="-185.8" x2="277.9" y2="-192.6"/>
	<line class="st1" x1="284.9" y1="-185.8" x2="284.9" y2="-192.6"/>
	<line class="st1" x1="291.9" y1="-185.8" x2="291.9" y2="-192.6"/>
	<line class="st1" x1="298.9" y1="-185.8" x2="298.9" y2="-192.6"/>
	<line class="st1" x1="305.9" y1="-185.8" x2="305.9" y2="-192.6"/>
	<line class="st1" x1="312.9" y1="-185.8" x2="312.9" y2="-192.6"/>
	<line class="st1" x1="319.9" y1="-185.8" x2="319.9" y2="-192.6"/>
	<line class="st1" x1="326.9" y1="-185.8" x2="326.9" y2="-192.6"/>
	<line class="st1" x1="333.9" y1="-185.8" x2="333.9" y2="-192.6"/>
	<line class="st1" x1="340.9" y1="-185.8" x2="340.9" y2="-192.6"/>
	<line class="st1" x1="347.9" y1="-185.8" x2="347.9" y2="-192.6"/>
	<line class="st1" x1="354.9" y1="-185.8" x2="354.9" y2="-192.6"/>
	<line class="st1" x1="361.9" y1="-185.8" x2="361.9" y2="-192.6"/>
	<line class="st1" x1="368.9" y1="-185.8" x2="368.9" y2="-192.6"/>
	<line class="st1" x1="375.9" y1="-185.8" x2="375.9" y2="-192.6"/>
	<line class="st1" x1="382.9" y1="-185.8" x2="382.9" y2="-192.6"/>
	<line class="st1" x1="389.9" y1="-185.8" x2="389.9" y2="-192.6"/>
	<line class="st1" x1="396.9" y1="-185.8" x2="396.9" y2="-192.6"/>
	<line class="st1" x1="403.9" y1="-185.8" x2="403.9" y2="-192.6"/>
	<line class="st1" x1="410.9" y1="-185.8" x2="410.9" y2="-192.6"/>
	<line class="st1" x1="417.9" y1="-185.8" x2="417.9" y2="-192.6"/>
	<line class="st1" x1="424.9" y1="-185.8" x2="424.9" y2="-192.6"/>
	<line class="st1" x1="431.9" y1="-185.8" x2="431.9" y2="-192.6"/>
	<line class="st1" x1="438.9" y1="-185.8" x2="438.9" y2="-192.6"/>
	<line class="st1" x1="445.9" y1="-185.8" x2="445.9" y2="-192.6"/>
	<line class="st1" x1="452.9" y1="-185.8" x2="452.9" y2="-192.6"/>
	<line class="st1" x1="459.9" y1="-178.8" x2="459.9" y2="-199.6"/>
	<line class="st1" x1="466.9" y1="-185.8" x2="466.9" y2="-192.6"/>
	<line class="st1" x1="473.9" y1="-185.8" x2="473.9" y2="-192.6"/>
	<line class="st1" x1="480.9" y1="-185.8" x2="480.9" y2="-192.6"/>
	<line class="st1" x1="487.9" y1="-185.8" x2="487.9" y2="-192.6"/>
	<line class="st1" x1="494.9" y1="-185.8" x2="494.9" y2="-192.6"/>
	<line class="st1" x1="501.9" y1="-185.8" x2="501.9" y2="-192.6"/>
	<line class="st1" x1="508.9" y1="-185.8" x2="508.9" y2="-192.6"/>
	<line class="st1" x1="515.9" y1="-185.8" x2="515.9" y2="-192.6"/>
	<line class="st1" x1="522.9" y1="-185.8" x2="522.9" y2="-192.6"/>
	<line class="st1" x1="529.9" y1="-185.8" x2="529.9" y2="-192.6"/>
	<line class="st1" x1="536.9" y1="-185.8" x2="536.9" y2="-192.6"/>
	<line class="st1" x1="543.9" y1="-185.8" x2="543.9" y2="-192.6"/>
	<line class="st1" x1="550.9" y1="-185.8" x2="550.9" y2="-192.6"/>
	<line class="st1" x1="557.9" y1="-185.8" x2="557.9" y2="-192.6"/>
	<line class="st1" x1="564.9" y1="-185.8" x2="564.9" y2="-192.6"/>
	<line class="st1" x1="571.9" y1="-185.8" x2="571.9" y2="-192.6"/>
	<line class="st1" x1="578.9" y1="-185.8" x2="578.9" y2="-192.6"/>
	<line class="st1" x1="585.9" y1="-185.8" x2="585.9" y2="-192.6"/>
	<line class="st1" x1="592.9" y1="-185.8" x2="592.9" y2="-192.6"/>
	<line class="st1" x1="599.9" y1="-185.8" x2="599.9" y2="-192.6"/>
	<line class="st1" x1="606.9" y1="-185.8" x2="606.9" y2="-192.6"/>
	<line class="st1" x1="613.9" y1="-185.8" x2="613.9" y2="-192.6"/>
	<line class="st1" x1="620.9" y1="-185.8" x2="620.9" y2="-192.6"/>
	<line class="st1" x1="627.9" y1="-185.8" x2="627.9" y2="-192.6"/>
	<line class="st1" x1="634.9" y1="-185.8" x2="634.9" y2="-192.6"/>
	<line class="st1" x1="641.9" y1="-185.8" x2="641.9" y2="-192.6"/>
	<line class="st1" x1="648.9" y1="-185.8" x2="648.9" y2="-192.6"/>
	<line class="st1" x1="655.9" y1="-185.8" x2="655.9" y2="-192.6"/>
	<line class="st1" x1="662.9" y1="-185.8" x2="662.9" y2="-192.6"/>
	<line class="st1" x1="669.9" y1="-185.8" x2="669.9" y2="-192.6"/>
</g>
<g id="FONDO">
	<rect x="417.9" y="55.3" class="st3" width="126" height="11.7"/>
	<line class="st4" x1="418.6" y1="28.9" x2="418.6" y2="53.1"/>
	<line class="st4" x1="529.9" y1="69.2" x2="529.9" y2="93.4"/>
</g>
<g id="texto">
	<g>
		<path class="st5" d="M365.2,6.5v3.3h-1.9V0.5h3.6c0.7,0,1.3,0.1,1.8,0.4c0.5,0.3,0.9,0.6,1.2,1.1c0.3,0.5,0.4,1,0.4,1.6
			c0,0.9-0.3,1.6-0.9,2.1c-0.6,0.5-1.5,0.8-2.6,0.8H365.2z M365.2,5h1.7c0.5,0,0.9-0.1,1.2-0.4s0.4-0.6,0.4-1c0-0.5-0.1-0.8-0.4-1.1
			c-0.3-0.3-0.6-0.4-1.1-0.4h-1.7V5z"/>
		<path class="st5" d="M375.4,4.6c-0.3,0-0.5-0.1-0.7-0.1c-0.7,0-1.1,0.2-1.4,0.7v4.5h-1.8V2.9h1.7l0.1,0.8c0.4-0.6,0.9-0.9,1.5-0.9
			c0.2,0,0.4,0,0.6,0.1L375.4,4.6z"/>
		<path class="st5" d="M376.3,1.1c0-0.3,0.1-0.5,0.3-0.7c0.2-0.2,0.4-0.3,0.8-0.3c0.3,0,0.6,0.1,0.7,0.3c0.2,0.2,0.3,0.4,0.3,0.7
			c0,0.3-0.1,0.5-0.3,0.7s-0.4,0.3-0.7,0.3c-0.3,0-0.6-0.1-0.7-0.3S376.3,1.4,376.3,1.1z M378.3,9.8h-1.8V2.9h1.8V9.8z"/>
		<path class="st5" d="M381.5,2.9l0.1,0.8c0.5-0.6,1.1-0.9,2-0.9c0.9,0,1.5,0.3,1.8,1c0.5-0.7,1.2-1,2.1-1c0.7,0,1.3,0.2,1.7,0.7
			c0.4,0.4,0.5,1.1,0.5,2v4.4h-1.8V5.4c0-0.4-0.1-0.7-0.2-0.9c-0.2-0.2-0.4-0.3-0.8-0.3c-0.5,0-0.9,0.3-1.1,0.8l0,4.7h-1.8V5.4
			c0-0.4-0.1-0.7-0.2-0.9s-0.4-0.3-0.8-0.3c-0.5,0-0.9,0.2-1.1,0.6v4.9h-1.8V2.9H381.5z"/>
		<path class="st5" d="M394.2,9.9c-1,0-1.8-0.3-2.5-0.9s-0.9-1.4-0.9-2.5V6.3c0-0.7,0.1-1.3,0.4-1.9c0.3-0.5,0.6-1,1.1-1.3
			c0.5-0.3,1-0.4,1.7-0.4c0.9,0,1.7,0.3,2.2,0.9c0.5,0.6,0.8,1.4,0.8,2.5v0.7h-4.4c0.1,0.4,0.2,0.8,0.5,1.1c0.3,0.3,0.7,0.4,1.1,0.4
			c0.7,0,1.3-0.3,1.7-0.8l0.9,1c-0.3,0.4-0.6,0.7-1.1,0.9C395.3,9.8,394.8,9.9,394.2,9.9z M394,4.2c-0.4,0-0.7,0.1-0.9,0.4
			s-0.4,0.6-0.4,1.1h2.6V5.5c0-0.4-0.1-0.7-0.3-0.9S394.4,4.2,394,4.2z"/>
		<path class="st5" d="M401.9,4.6c-0.3,0-0.5-0.1-0.7-0.1c-0.7,0-1.1,0.2-1.4,0.7v4.5H398V2.9h1.7l0.1,0.8c0.4-0.6,0.9-0.9,1.5-0.9
			c0.2,0,0.4,0,0.6,0.1L401.9,4.6z"/>
		<path class="st5" d="M406.6,9.8c-0.1-0.2-0.1-0.4-0.2-0.6c-0.4,0.5-1,0.7-1.7,0.7c-0.7,0-1.2-0.2-1.7-0.6s-0.7-0.9-0.7-1.5
			c0-0.7,0.3-1.3,0.8-1.7c0.5-0.4,1.3-0.6,2.3-0.6h0.8V5.2c0-0.3-0.1-0.6-0.2-0.8s-0.4-0.3-0.8-0.3c-0.3,0-0.6,0.1-0.7,0.2
			s-0.3,0.4-0.3,0.6h-1.8c0-0.4,0.1-0.8,0.4-1.1s0.6-0.6,1-0.8c0.4-0.2,1-0.3,1.5-0.3c0.8,0,1.5,0.2,2,0.6c0.5,0.4,0.7,1,0.7,1.8v3
			c0,0.7,0.1,1.1,0.3,1.5v0.1H406.6z M405.1,8.5c0.3,0,0.5-0.1,0.7-0.2c0.2-0.1,0.4-0.3,0.5-0.5V6.6h-0.7c-0.9,0-1.4,0.3-1.5,1
			l0,0.1c0,0.2,0.1,0.4,0.2,0.6C404.6,8.4,404.8,8.5,405.1,8.5z"/>
		<path class="st5" d="M412.5,6.3c0-1.1,0.2-1.9,0.7-2.6s1.1-1,2-1c0.7,0,1.2,0.2,1.7,0.7V0h1.8v9.8h-1.7L417,9
			c-0.5,0.6-1,0.9-1.8,0.9c-0.8,0-1.5-0.3-1.9-1C412.8,8.3,412.5,7.4,412.5,6.3z M414.4,6.4c0,0.6,0.1,1.1,0.3,1.5
			c0.2,0.3,0.5,0.5,1,0.5c0.6,0,1-0.2,1.2-0.7V5c-0.2-0.5-0.6-0.7-1.2-0.7C414.8,4.2,414.4,5,414.4,6.4z"/>
		<path class="st5" d="M423.3,9.9c-1,0-1.8-0.3-2.5-0.9s-0.9-1.4-0.9-2.5V6.3c0-0.7,0.1-1.3,0.4-1.9c0.3-0.5,0.6-1,1.1-1.3
			c0.5-0.3,1-0.4,1.7-0.4c0.9,0,1.7,0.3,2.2,0.9c0.5,0.6,0.8,1.4,0.8,2.5v0.7h-4.4c0.1,0.4,0.2,0.8,0.5,1.1c0.3,0.3,0.7,0.4,1.1,0.4
			c0.7,0,1.3-0.3,1.7-0.8l0.9,1c-0.3,0.4-0.6,0.7-1.1,0.9C424.4,9.8,423.9,9.9,423.3,9.9z M423.1,4.2c-0.4,0-0.7,0.1-0.9,0.4
			s-0.4,0.6-0.4,1.1h2.6V5.5c0-0.4-0.1-0.7-0.3-0.9S423.5,4.2,423.1,4.2z"/>
		<path class="st5" d="M428.9,2.9l0.1,0.8c0.5-0.6,1.1-0.9,2-0.9c0.9,0,1.5,0.3,1.8,1c0.5-0.7,1.2-1,2.1-1c0.7,0,1.3,0.2,1.7,0.7
			c0.4,0.4,0.5,1.1,0.5,2v4.4h-1.8V5.4c0-0.4-0.1-0.7-0.2-0.9c-0.2-0.2-0.4-0.3-0.8-0.3c-0.5,0-0.9,0.3-1.1,0.8l0,4.7h-1.8V5.4
			c0-0.4-0.1-0.7-0.2-0.9s-0.4-0.3-0.8-0.3c-0.5,0-0.9,0.2-1.1,0.6v4.9h-1.8V2.9H428.9z"/>
		<path class="st5" d="M438.1,6.3c0-0.7,0.1-1.3,0.4-1.8s0.6-0.9,1.1-1.2s1.1-0.4,1.7-0.4c0.9,0,1.7,0.3,2.3,0.9s0.9,1.3,1,2.3
			l0,0.5c0,1.1-0.3,1.9-0.9,2.5c-0.6,0.6-1.4,1-2.4,1s-1.8-0.3-2.4-1C438.4,8.3,438.1,7.4,438.1,6.3L438.1,6.3z M440,6.4
			c0,0.7,0.1,1.2,0.4,1.5c0.2,0.3,0.6,0.5,1.1,0.5c0.4,0,0.8-0.2,1-0.5c0.2-0.3,0.4-0.9,0.4-1.6c0-0.6-0.1-1.1-0.4-1.5
			c-0.3-0.4-0.6-0.5-1.1-0.5c-0.4,0-0.8,0.2-1,0.5C440.1,5.1,440,5.6,440,6.4z"/>
		<path class="st5" d="M449.5,7.9c0-0.2-0.1-0.4-0.3-0.5c-0.2-0.1-0.6-0.2-1.1-0.3c-1.6-0.3-2.5-1-2.5-2.1c0-0.6,0.3-1.1,0.8-1.5
			c0.5-0.4,1.2-0.6,2-0.6c0.9,0,1.6,0.2,2.1,0.6s0.8,0.9,0.8,1.6h-1.8c0-0.3-0.1-0.5-0.3-0.7c-0.2-0.2-0.4-0.3-0.8-0.3
			c-0.3,0-0.5,0.1-0.7,0.2s-0.3,0.3-0.3,0.5c0,0.2,0.1,0.4,0.3,0.5c0.2,0.1,0.5,0.2,1,0.3c0.5,0.1,0.8,0.2,1.2,0.3
			c1,0.4,1.5,1,1.5,1.8c0,0.6-0.3,1.1-0.8,1.5c-0.5,0.4-1.2,0.6-2.1,0.6c-0.6,0-1.1-0.1-1.5-0.3c-0.4-0.2-0.8-0.5-1.1-0.8
			c-0.3-0.4-0.4-0.7-0.4-1.2h1.7c0,0.3,0.1,0.6,0.4,0.7c0.2,0.2,0.5,0.3,0.9,0.3c0.4,0,0.6-0.1,0.8-0.2
			C449.4,8.2,449.5,8.1,449.5,7.9z"/>
		<path class="st5" d="M454.6,1.2v1.7h1.2v1.3h-1.2v3.4c0,0.3,0,0.4,0.1,0.5s0.3,0.2,0.6,0.2c0.2,0,0.4,0,0.5,0v1.4
			c-0.4,0.1-0.7,0.2-1.1,0.2c-1.3,0-1.9-0.6-2-1.9V4.2h-1V2.9h1V1.2H454.6z"/>
		<path class="st5" d="M460.7,4.6c-0.3,0-0.5-0.1-0.7-0.1c-0.7,0-1.1,0.2-1.4,0.7v4.5h-1.8V2.9h1.7l0.1,0.8c0.4-0.6,0.9-0.9,1.5-0.9
			c0.2,0,0.4,0,0.6,0.1L460.7,4.6z"/>
		<path class="st5" d="M465.4,9.8c-0.1-0.2-0.1-0.4-0.2-0.6c-0.4,0.5-1,0.7-1.7,0.7c-0.7,0-1.2-0.2-1.7-0.6s-0.7-0.9-0.7-1.5
			c0-0.7,0.3-1.3,0.8-1.7c0.5-0.4,1.3-0.6,2.3-0.6h0.8V5.2c0-0.3-0.1-0.6-0.2-0.8s-0.4-0.3-0.8-0.3c-0.3,0-0.6,0.1-0.7,0.2
			s-0.3,0.4-0.3,0.6h-1.8c0-0.4,0.1-0.8,0.4-1.1s0.6-0.6,1-0.8c0.4-0.2,1-0.3,1.5-0.3c0.8,0,1.5,0.2,2,0.6c0.5,0.4,0.7,1,0.7,1.8v3
			c0,0.7,0.1,1.1,0.3,1.5v0.1H465.4z M463.9,8.5c0.3,0,0.5-0.1,0.7-0.2c0.2-0.1,0.4-0.3,0.5-0.5V6.6h-0.7c-0.9,0-1.4,0.3-1.5,1
			l0,0.1c0,0.2,0.1,0.4,0.2,0.6C463.4,8.4,463.6,8.5,463.9,8.5z"/>
		<path class="st5" d="M471.2,8.4c0.3,0,0.6-0.1,0.8-0.3c0.2-0.2,0.3-0.4,0.3-0.7h1.7c0,0.5-0.1,0.9-0.4,1.3c-0.3,0.4-0.6,0.7-1,0.9
			c-0.4,0.2-0.9,0.3-1.4,0.3c-1,0-1.8-0.3-2.3-0.9c-0.6-0.6-0.9-1.5-0.9-2.6V6.2c0-1.1,0.3-1.9,0.8-2.5c0.6-0.6,1.3-0.9,2.3-0.9
			c0.9,0,1.5,0.2,2.1,0.7c0.5,0.5,0.8,1.1,0.8,2h-1.7c0-0.4-0.1-0.6-0.3-0.9c-0.2-0.2-0.5-0.3-0.8-0.3c-0.4,0-0.8,0.2-1,0.5
			s-0.3,0.8-0.3,1.5v0.2c0,0.7,0.1,1.2,0.3,1.5C470.5,8.2,470.8,8.4,471.2,8.4z"/>
		<path class="st5" d="M475.1,1.1c0-0.3,0.1-0.5,0.3-0.7c0.2-0.2,0.4-0.3,0.8-0.3c0.3,0,0.6,0.1,0.7,0.3c0.2,0.2,0.3,0.4,0.3,0.7
			c0,0.3-0.1,0.5-0.3,0.7s-0.4,0.3-0.7,0.3c-0.3,0-0.6-0.1-0.7-0.3S475.1,1.4,475.1,1.1z M477.1,9.8h-1.8V2.9h1.8V9.8z"/>
		<path class="st5" d="M478.3,6.3c0-0.7,0.1-1.3,0.4-1.8s0.6-0.9,1.1-1.2s1.1-0.4,1.7-0.4c0.9,0,1.7,0.3,2.3,0.9s0.9,1.3,1,2.3
			l0,0.5c0,1.1-0.3,1.9-0.9,2.5c-0.6,0.6-1.4,1-2.4,1s-1.8-0.3-2.4-1C478.6,8.3,478.3,7.4,478.3,6.3L478.3,6.3z M480.1,6.4
			c0,0.7,0.1,1.2,0.4,1.5c0.2,0.3,0.6,0.5,1.1,0.5c0.4,0,0.8-0.2,1-0.5c0.2-0.3,0.4-0.9,0.4-1.6c0-0.6-0.1-1.1-0.4-1.5
			c-0.3-0.4-0.6-0.5-1.1-0.5c-0.4,0-0.8,0.2-1,0.5C480.3,5.1,480.1,5.6,480.1,6.4z M481.9,0h2l-1.8,2h-1.5L481.9,0z"/>
		<path class="st5" d="M487.6,2.9l0.1,0.8c0.5-0.6,1.1-0.9,2-0.9c0.7,0,1.3,0.2,1.6,0.6s0.5,1.1,0.5,1.9v4.4H490V5.4
			c0-0.4-0.1-0.7-0.3-0.8c-0.2-0.2-0.5-0.3-0.8-0.3c-0.5,0-0.9,0.2-1.2,0.7v4.8h-1.8V2.9H487.6z"/>
		<path class="st5" d="M368.7,25.5c-1,0-1.8-0.3-2.5-0.9s-0.9-1.4-0.9-2.5v-0.2c0-0.7,0.1-1.3,0.4-1.9c0.3-0.5,0.6-1,1.1-1.3
			c0.5-0.3,1-0.4,1.7-0.4c0.9,0,1.7,0.3,2.2,0.9c0.5,0.6,0.8,1.4,0.8,2.5v0.7h-4.4c0.1,0.4,0.2,0.8,0.5,1.1c0.3,0.3,0.7,0.4,1.1,0.4
			c0.7,0,1.3-0.3,1.7-0.8l0.9,1c-0.3,0.4-0.6,0.7-1.1,0.9C369.8,25.4,369.2,25.5,368.7,25.5z M368.5,19.8c-0.4,0-0.7,0.1-0.9,0.4
			s-0.4,0.6-0.4,1.1h2.6v-0.1c0-0.4-0.1-0.7-0.3-0.9S368.9,19.8,368.5,19.8z"/>
		<path class="st5" d="M374.2,18.5l0.1,0.8c0.5-0.6,1.1-0.9,2-0.9c0.7,0,1.3,0.2,1.6,0.6s0.5,1.1,0.5,1.9v4.4h-1.8V21
			c0-0.4-0.1-0.7-0.3-0.8c-0.2-0.2-0.5-0.3-0.8-0.3c-0.5,0-0.9,0.2-1.2,0.7v4.8h-1.8v-6.9H374.2z"/>
		<path class="st5" d="M385,25.4h-1.8v-9.8h1.8V25.4z"/>
		<path class="st5" d="M390.5,25.4c-0.1-0.2-0.1-0.4-0.2-0.6c-0.4,0.5-1,0.7-1.7,0.7c-0.7,0-1.2-0.2-1.7-0.6s-0.7-0.9-0.7-1.5
			c0-0.7,0.3-1.3,0.8-1.7c0.5-0.4,1.3-0.6,2.3-0.6h0.8v-0.4c0-0.3-0.1-0.6-0.2-0.8s-0.4-0.3-0.8-0.3c-0.3,0-0.6,0.1-0.7,0.2
			s-0.3,0.4-0.3,0.6h-1.8c0-0.4,0.1-0.8,0.4-1.1s0.6-0.6,1-0.8c0.4-0.2,1-0.3,1.5-0.3c0.8,0,1.5,0.2,2,0.6c0.5,0.4,0.7,1,0.7,1.8v3
			c0,0.7,0.1,1.1,0.3,1.5v0.1H390.5z M389,24.1c0.3,0,0.5-0.1,0.7-0.2c0.2-0.1,0.4-0.3,0.5-0.5v-1.2h-0.7c-0.9,0-1.4,0.3-1.5,1
			l0,0.1c0,0.2,0.1,0.4,0.2,0.6C388.5,24,388.7,24.1,389,24.1z"/>
		<path class="st5" d="M400.4,23.5c0-0.2-0.1-0.4-0.3-0.5c-0.2-0.1-0.6-0.2-1.1-0.3c-1.6-0.3-2.5-1-2.5-2.1c0-0.6,0.3-1.1,0.8-1.5
			c0.5-0.4,1.2-0.6,2-0.6c0.9,0,1.6,0.2,2.1,0.6s0.8,0.9,0.8,1.6h-1.8c0-0.3-0.1-0.5-0.3-0.7c-0.2-0.2-0.4-0.3-0.8-0.3
			c-0.3,0-0.5,0.1-0.7,0.2s-0.3,0.3-0.3,0.5c0,0.2,0.1,0.4,0.3,0.5c0.2,0.1,0.5,0.2,1,0.3c0.5,0.1,0.8,0.2,1.2,0.3
			c1,0.4,1.5,1,1.5,1.8c0,0.6-0.3,1.1-0.8,1.5c-0.5,0.4-1.2,0.6-2.1,0.6c-0.6,0-1.1-0.1-1.5-0.3c-0.4-0.2-0.8-0.5-1.1-0.8
			c-0.3-0.4-0.4-0.7-0.4-1.2h1.7c0,0.3,0.1,0.6,0.4,0.7c0.2,0.2,0.5,0.3,0.9,0.3c0.4,0,0.6-0.1,0.8-0.2
			C400.3,23.8,400.4,23.7,400.4,23.5z"/>
		<path class="st5" d="M407.4,25.4c-0.1-0.2-0.1-0.4-0.2-0.6c-0.4,0.5-1,0.7-1.7,0.7c-0.7,0-1.2-0.2-1.7-0.6s-0.7-0.9-0.7-1.5
			c0-0.7,0.3-1.3,0.8-1.7c0.5-0.4,1.3-0.6,2.3-0.6h0.8v-0.4c0-0.3-0.1-0.6-0.2-0.8s-0.4-0.3-0.8-0.3c-0.3,0-0.6,0.1-0.7,0.2
			s-0.3,0.4-0.3,0.6h-1.8c0-0.4,0.1-0.8,0.4-1.1s0.6-0.6,1-0.8c0.4-0.2,1-0.3,1.5-0.3c0.8,0,1.5,0.2,2,0.6c0.5,0.4,0.7,1,0.7,1.8v3
			c0,0.7,0.1,1.1,0.3,1.5v0.1H407.4z M405.9,24.1c0.3,0,0.5-0.1,0.7-0.2c0.2-0.1,0.4-0.3,0.5-0.5v-1.2h-0.7c-0.9,0-1.4,0.3-1.5,1
			l0,0.1c0,0.2,0.1,0.4,0.2,0.6C405.4,24,405.6,24.1,405.9,24.1z"/>
		<path class="st5" d="M412.3,25.4h-1.8v-9.8h1.8V25.4z"/>
		<path class="st5" d="M417.8,25.4c-0.1-0.2-0.1-0.4-0.2-0.6c-0.4,0.5-1,0.7-1.7,0.7c-0.7,0-1.2-0.2-1.7-0.6s-0.7-0.9-0.7-1.5
			c0-0.7,0.3-1.3,0.8-1.7c0.5-0.4,1.3-0.6,2.3-0.6h0.8v-0.4c0-0.3-0.1-0.6-0.2-0.8s-0.4-0.3-0.8-0.3c-0.3,0-0.6,0.1-0.7,0.2
			s-0.3,0.4-0.3,0.6h-1.8c0-0.4,0.1-0.8,0.4-1.1s0.6-0.6,1-0.8c0.4-0.2,1-0.3,1.5-0.3c0.8,0,1.5,0.2,2,0.6c0.5,0.4,0.7,1,0.7,1.8v3
			c0,0.7,0.1,1.1,0.3,1.5v0.1H417.8z M416.3,24.1c0.3,0,0.5-0.1,0.7-0.2c0.2-0.1,0.4-0.3,0.5-0.5v-1.2h-0.7c-0.9,0-1.4,0.3-1.5,1
			l0,0.1c0,0.2,0.1,0.4,0.2,0.6C415.8,24,416,24.1,416.3,24.1z"/>
		<path class="st5" d="M423.7,21.9c0-1.1,0.2-1.9,0.7-2.6s1.1-1,2-1c0.7,0,1.2,0.2,1.7,0.7v-3.5h1.8v9.8h-1.7l-0.1-0.7
			c-0.5,0.6-1,0.9-1.8,0.9c-0.8,0-1.5-0.3-1.9-1C424,23.9,423.7,23,423.7,21.9z M425.6,22c0,0.6,0.1,1.1,0.3,1.5
			c0.2,0.3,0.5,0.5,1,0.5c0.6,0,1-0.2,1.2-0.7v-2.7c-0.2-0.5-0.6-0.7-1.2-0.7C426,19.8,425.6,20.6,425.6,22z"/>
		<path class="st5" d="M434.5,25.5c-1,0-1.8-0.3-2.5-0.9s-0.9-1.4-0.9-2.5v-0.2c0-0.7,0.1-1.3,0.4-1.9c0.3-0.5,0.6-1,1.1-1.3
			c0.5-0.3,1-0.4,1.7-0.4c0.9,0,1.7,0.3,2.2,0.9c0.5,0.6,0.8,1.4,0.8,2.5v0.7H433c0.1,0.4,0.2,0.8,0.5,1.1c0.3,0.3,0.7,0.4,1.1,0.4
			c0.7,0,1.3-0.3,1.7-0.8l0.9,1c-0.3,0.4-0.6,0.7-1.1,0.9C435.6,25.4,435.1,25.5,434.5,25.5z M434.3,19.8c-0.4,0-0.7,0.1-0.9,0.4
			s-0.4,0.6-0.4,1.1h2.6v-0.1c0-0.4-0.1-0.7-0.3-0.9S434.7,19.8,434.3,19.8z"/>
		<path class="st5" d="M443.5,25.4h-1.8v-9.8h1.8V25.4z"/>
		<path class="st5" d="M447,25.4h-1.8v-9.8h1.8V25.4z"/>
		<path class="st5" d="M451.7,25.5c-1,0-1.8-0.3-2.5-0.9s-0.9-1.4-0.9-2.5v-0.2c0-0.7,0.1-1.3,0.4-1.9c0.3-0.5,0.6-1,1.1-1.3
			c0.5-0.3,1-0.4,1.7-0.4c0.9,0,1.7,0.3,2.2,0.9c0.5,0.6,0.8,1.4,0.8,2.5v0.7h-4.4c0.1,0.4,0.2,0.8,0.5,1.1c0.3,0.3,0.7,0.4,1.1,0.4
			c0.7,0,1.3-0.3,1.7-0.8l0.9,1c-0.3,0.4-0.6,0.7-1.1,0.9C452.8,25.4,452.2,25.5,451.7,25.5z M451.5,19.8c-0.4,0-0.7,0.1-0.9,0.4
			s-0.4,0.6-0.4,1.1h2.6v-0.1c0-0.4-0.1-0.7-0.3-0.9S451.8,19.8,451.5,19.8z"/>
		<path class="st5" d="M455.3,21.9c0-1.1,0.3-1.9,0.8-2.5c0.5-0.6,1.2-1,2-1c0.8,0,1.3,0.3,1.8,0.8l0.1-0.6h1.7v6.6
			c0,0.6-0.1,1.1-0.4,1.6c-0.3,0.4-0.7,0.8-1.2,1s-1.1,0.3-1.7,0.3c-0.5,0-1-0.1-1.5-0.3c-0.5-0.2-0.8-0.5-1.1-0.8l0.8-1.1
			c0.5,0.5,1,0.8,1.7,0.8c0.5,0,0.9-0.1,1.1-0.4c0.3-0.3,0.4-0.6,0.4-1.1v-0.4c-0.4,0.5-1,0.7-1.7,0.7c-0.8,0-1.5-0.3-2-1
			C455.5,23.9,455.3,23,455.3,21.9L455.3,21.9z M457.1,22c0,0.6,0.1,1.1,0.4,1.5c0.3,0.4,0.6,0.5,1,0.5c0.6,0,1-0.2,1.2-0.6v-2.9
			c-0.2-0.4-0.6-0.6-1.2-0.6c-0.4,0-0.8,0.2-1,0.5S457.1,21.3,457.1,22z"/>
		<path class="st5" d="M466.9,25.4c-0.1-0.2-0.1-0.4-0.2-0.6c-0.4,0.5-1,0.7-1.7,0.7c-0.7,0-1.2-0.2-1.7-0.6s-0.7-0.9-0.7-1.5
			c0-0.7,0.3-1.3,0.8-1.7c0.5-0.4,1.3-0.6,2.3-0.6h0.8v-0.4c0-0.3-0.1-0.6-0.2-0.8s-0.4-0.3-0.8-0.3c-0.3,0-0.6,0.1-0.7,0.2
			s-0.3,0.4-0.3,0.6h-1.8c0-0.4,0.1-0.8,0.4-1.1s0.6-0.6,1-0.8c0.4-0.2,1-0.3,1.5-0.3c0.8,0,1.5,0.2,2,0.6c0.5,0.4,0.7,1,0.7,1.8v3
			c0,0.7,0.1,1.1,0.3,1.5v0.1H466.9z M465.4,24.1c0.3,0,0.5-0.1,0.7-0.2c0.2-0.1,0.4-0.3,0.5-0.5v-1.2H466c-0.9,0-1.4,0.3-1.5,1
			l0,0.1c0,0.2,0.1,0.4,0.2,0.6C464.9,24,465.1,24.1,465.4,24.1z"/>
		<path class="st5" d="M469.6,21.9c0-1.1,0.2-1.9,0.7-2.6s1.1-1,2-1c0.7,0,1.2,0.2,1.7,0.7v-3.5h1.8v9.8h-1.7l-0.1-0.7
			c-0.5,0.6-1,0.9-1.8,0.9c-0.8,0-1.5-0.3-1.9-1C469.9,23.9,469.6,23,469.6,21.9z M471.5,22c0,0.6,0.1,1.1,0.3,1.5
			c0.2,0.3,0.5,0.5,1,0.5c0.6,0,1-0.2,1.2-0.7v-2.7c-0.2-0.5-0.6-0.7-1.2-0.7C471.9,19.8,471.5,20.6,471.5,22z"/>
		<path class="st5" d="M481.2,25.4c-0.1-0.2-0.1-0.4-0.2-0.6c-0.4,0.5-1,0.7-1.7,0.7c-0.7,0-1.2-0.2-1.7-0.6S477,24,477,23.4
			c0-0.7,0.3-1.3,0.8-1.7c0.5-0.4,1.3-0.6,2.3-0.6h0.8v-0.4c0-0.3-0.1-0.6-0.2-0.8s-0.4-0.3-0.8-0.3c-0.3,0-0.6,0.1-0.7,0.2
			s-0.3,0.4-0.3,0.6h-1.8c0-0.4,0.1-0.8,0.4-1.1s0.6-0.6,1-0.8c0.4-0.2,1-0.3,1.5-0.3c0.8,0,1.5,0.2,2,0.6c0.5,0.4,0.7,1,0.7,1.8v3
			c0,0.7,0.1,1.1,0.3,1.5v0.1H481.2z M479.7,24.1c0.3,0,0.5-0.1,0.7-0.2c0.2-0.1,0.4-0.3,0.5-0.5v-1.2h-0.7c-0.9,0-1.4,0.3-1.5,1
			l0,0.1c0,0.2,0.1,0.4,0.2,0.6C479.2,24,479.4,24.1,479.7,24.1z"/>
		<path class="st5" d="M487.9,23.5c0-0.2-0.1-0.4-0.3-0.5c-0.2-0.1-0.6-0.2-1.1-0.3c-1.6-0.3-2.5-1-2.5-2.1c0-0.6,0.3-1.1,0.8-1.5
			c0.5-0.4,1.2-0.6,2-0.6c0.9,0,1.6,0.2,2.1,0.6s0.8,0.9,0.8,1.6h-1.8c0-0.3-0.1-0.5-0.3-0.7c-0.2-0.2-0.4-0.3-0.8-0.3
			c-0.3,0-0.5,0.1-0.7,0.2s-0.3,0.3-0.3,0.5c0,0.2,0.1,0.4,0.3,0.5c0.2,0.1,0.5,0.2,1,0.3c0.5,0.1,0.8,0.2,1.2,0.3
			c1,0.4,1.5,1,1.5,1.8c0,0.6-0.3,1.1-0.8,1.5c-0.5,0.4-1.2,0.6-2.1,0.6c-0.6,0-1.1-0.1-1.5-0.3c-0.4-0.2-0.8-0.5-1.1-0.8
			c-0.3-0.4-0.4-0.7-0.4-1.2h1.7c0,0.3,0.1,0.6,0.4,0.7c0.2,0.2,0.5,0.3,0.9,0.3c0.4,0,0.6-0.1,0.8-0.2
			C487.8,23.8,487.9,23.7,487.9,23.5z"/>
	</g>
	<g>
		<path class="st5" d="M473.2,97.2l0.5-4.7h5.2V94h-3.7l-0.2,2c0.4-0.2,0.9-0.3,1.4-0.3c0.9,0,1.6,0.3,2.1,0.8
			c0.5,0.5,0.8,1.3,0.8,2.3c0,0.6-0.1,1.1-0.4,1.6c-0.3,0.5-0.6,0.8-1.1,1.1c-0.5,0.3-1,0.4-1.7,0.4c-0.6,0-1.1-0.1-1.6-0.3
			c-0.5-0.2-0.9-0.5-1.1-1s-0.4-0.9-0.4-1.4h1.8c0,0.4,0.2,0.7,0.4,0.9s0.5,0.3,0.9,0.3c0.4,0,0.7-0.1,1-0.4
			c0.2-0.3,0.3-0.7,0.3-1.3c0-0.5-0.1-0.9-0.4-1.2s-0.6-0.4-1.1-0.4c-0.4,0-0.8,0.1-1.1,0.3l-0.2,0.2L473.2,97.2z"/>
		<path class="st5" d="M483.4,98.3c0-1.1,0.2-1.9,0.7-2.6s1.1-1,2-1c0.7,0,1.2,0.2,1.7,0.7V92h1.8v9.8h-1.7l-0.1-0.7
			c-0.5,0.6-1,0.9-1.8,0.9c-0.8,0-1.5-0.3-1.9-1S483.4,99.4,483.4,98.3z M485.2,98.4c0,0.6,0.1,1.1,0.3,1.5s0.6,0.5,1,0.5
			c0.6,0,1-0.2,1.2-0.7V97c-0.2-0.5-0.6-0.7-1.2-0.7C485.7,96.2,485.2,97,485.2,98.4z"/>
		<path class="st5" d="M493,101.8h-1.8v-6.9h1.8V101.8z M492.4,92.1h2l-1.8,2h-1.5L492.4,92.1z"/>
		<path class="st5" d="M498.5,101.8c-0.1-0.2-0.1-0.4-0.2-0.6c-0.4,0.5-1,0.7-1.7,0.7c-0.7,0-1.2-0.2-1.7-0.6
			c-0.4-0.4-0.7-0.9-0.7-1.5c0-0.7,0.3-1.3,0.8-1.7s1.3-0.6,2.3-0.6h0.8v-0.4c0-0.3-0.1-0.6-0.2-0.8c-0.2-0.2-0.4-0.3-0.8-0.3
			c-0.3,0-0.6,0.1-0.7,0.2c-0.2,0.1-0.3,0.4-0.3,0.6h-1.8c0-0.4,0.1-0.8,0.4-1.1c0.2-0.3,0.6-0.6,1-0.8c0.4-0.2,1-0.3,1.5-0.3
			c0.8,0,1.5,0.2,2,0.6c0.5,0.4,0.7,1,0.7,1.8v3c0,0.7,0.1,1.1,0.3,1.5v0.1H498.5z M497,100.5c0.3,0,0.5-0.1,0.7-0.2
			c0.2-0.1,0.4-0.3,0.5-0.5v-1.2h-0.7c-0.9,0-1.4,0.3-1.5,1l0,0.1c0,0.2,0.1,0.4,0.2,0.6C496.5,100.4,496.7,100.5,497,100.5z"/>
		<path class="st5" d="M505.2,99.9c0-0.2-0.1-0.4-0.3-0.5s-0.6-0.2-1.1-0.3c-1.6-0.3-2.4-1-2.4-2.1c0-0.6,0.3-1.1,0.8-1.5
			s1.2-0.6,2-0.6c0.9,0,1.6,0.2,2.1,0.6c0.5,0.4,0.8,0.9,0.8,1.6h-1.8c0-0.3-0.1-0.5-0.3-0.7c-0.2-0.2-0.4-0.3-0.8-0.3
			c-0.3,0-0.5,0.1-0.7,0.2c-0.2,0.1-0.3,0.3-0.3,0.5c0,0.2,0.1,0.4,0.3,0.5c0.2,0.1,0.5,0.2,1,0.3c0.5,0.1,0.8,0.2,1.2,0.3
			c1,0.4,1.5,1,1.5,1.8c0,0.6-0.3,1.1-0.8,1.5c-0.5,0.4-1.2,0.6-2.1,0.6c-0.6,0-1.1-0.1-1.5-0.3c-0.4-0.2-0.8-0.5-1.1-0.8
			s-0.4-0.7-0.4-1.2h1.7c0,0.3,0.1,0.6,0.4,0.7s0.5,0.3,0.9,0.3c0.4,0,0.6-0.1,0.8-0.2C505.1,100.2,505.2,100.1,505.2,99.9z"/>
		<path class="st5" d="M515.2,99.9c0-0.2-0.1-0.4-0.3-0.5s-0.6-0.2-1.1-0.3c-1.6-0.3-2.4-1-2.4-2.1c0-0.6,0.3-1.1,0.8-1.5
			s1.2-0.6,2-0.6c0.9,0,1.6,0.2,2.1,0.6c0.5,0.4,0.8,0.9,0.8,1.6h-1.8c0-0.3-0.1-0.5-0.3-0.7c-0.2-0.2-0.4-0.3-0.8-0.3
			c-0.3,0-0.5,0.1-0.7,0.2c-0.2,0.1-0.3,0.3-0.3,0.5c0,0.2,0.1,0.4,0.3,0.5c0.2,0.1,0.5,0.2,1,0.3c0.5,0.1,0.8,0.2,1.2,0.3
			c1,0.4,1.5,1,1.5,1.8c0,0.6-0.3,1.1-0.8,1.5c-0.5,0.4-1.2,0.6-2.1,0.6c-0.6,0-1.1-0.1-1.5-0.3c-0.4-0.2-0.8-0.5-1.1-0.8
			s-0.4-0.7-0.4-1.2h1.7c0,0.3,0.1,0.6,0.4,0.7s0.5,0.3,0.9,0.3c0.4,0,0.6-0.1,0.8-0.2C515.1,100.2,515.2,100.1,515.2,99.9z"/>
		<path class="st5" d="M521.3,101.9c-1,0-1.8-0.3-2.5-0.9s-0.9-1.4-0.9-2.5v-0.2c0-0.7,0.1-1.3,0.4-1.8c0.3-0.5,0.6-1,1.1-1.3
			c0.5-0.3,1-0.4,1.7-0.4c0.9,0,1.7,0.3,2.2,0.9s0.8,1.4,0.8,2.5v0.7h-4.4c0.1,0.4,0.2,0.8,0.5,1.1c0.3,0.3,0.7,0.4,1.1,0.4
			c0.7,0,1.3-0.3,1.7-0.8l0.9,1c-0.3,0.4-0.6,0.7-1.1,0.9C522.4,101.8,521.9,101.9,521.3,101.9z M521.1,96.2c-0.4,0-0.7,0.1-0.9,0.4
			s-0.4,0.6-0.4,1.1h2.6v-0.1c0-0.4-0.1-0.7-0.3-0.9C521.8,96.3,521.5,96.2,521.1,96.2z"/>
		<path class="st5" d="M524.9,98.3c0-1.1,0.3-1.9,0.8-2.5s1.2-1,2-1c0.8,0,1.3,0.3,1.8,0.8l0.1-0.6h1.7v6.6c0,0.6-0.1,1.1-0.4,1.6
			c-0.3,0.4-0.7,0.8-1.2,1c-0.5,0.2-1.1,0.3-1.7,0.3c-0.5,0-1-0.1-1.5-0.3s-0.8-0.5-1.1-0.8l0.8-1.1c0.5,0.5,1,0.8,1.7,0.8
			c0.5,0,0.9-0.1,1.1-0.4c0.3-0.3,0.4-0.6,0.4-1.1v-0.4c-0.4,0.5-1,0.7-1.7,0.7c-0.8,0-1.5-0.3-2-1S524.9,99.4,524.9,98.3
			L524.9,98.3z M526.7,98.4c0,0.6,0.1,1.1,0.4,1.5s0.6,0.5,1,0.5c0.6,0,1-0.2,1.2-0.6v-2.9c-0.2-0.4-0.6-0.6-1.2-0.6
			c-0.4,0-0.8,0.2-1,0.5S526.7,97.7,526.7,98.4z"/>
		<path class="st5" d="M536.7,101.1c-0.5,0.5-1.1,0.8-1.9,0.8c-0.7,0-1.3-0.2-1.7-0.6c-0.4-0.4-0.6-1-0.6-1.9v-4.5h1.8v4.4
			c0,0.7,0.3,1.1,1,1.1c0.6,0,1-0.2,1.3-0.6v-4.9h1.8v6.9h-1.7L536.7,101.1z"/>
		<path class="st5" d="M539.8,93.1c0-0.3,0.1-0.5,0.3-0.7s0.4-0.3,0.8-0.3c0.3,0,0.6,0.1,0.7,0.3c0.2,0.2,0.3,0.4,0.3,0.7
			c0,0.3-0.1,0.5-0.3,0.7c-0.2,0.2-0.4,0.3-0.7,0.3s-0.6-0.1-0.7-0.3C539.9,93.6,539.8,93.4,539.8,93.1z M541.8,101.8h-1.8v-6.9h1.8
			V101.8z"/>
		<path class="st5" d="M543,98.3c0-1.1,0.2-1.9,0.7-2.6s1.1-1,2-1c0.7,0,1.2,0.2,1.7,0.7V92h1.8v9.8h-1.7l-0.1-0.7
			c-0.5,0.6-1,0.9-1.8,0.9c-0.8,0-1.5-0.3-1.9-1C543.2,100.3,543,99.4,543,98.3z M544.8,98.4c0,0.6,0.1,1.1,0.3,1.5s0.5,0.5,1,0.5
			c0.6,0,1-0.2,1.2-0.7V97c-0.2-0.5-0.6-0.7-1.2-0.7C545.3,96.2,544.8,97,544.8,98.4z"/>
		<path class="st5" d="M550.3,98.3c0-0.7,0.1-1.3,0.4-1.8c0.3-0.5,0.6-0.9,1.1-1.2c0.5-0.3,1.1-0.4,1.7-0.4c0.9,0,1.7,0.3,2.3,0.9
			s0.9,1.3,1,2.3l0,0.5c0,1.1-0.3,1.9-0.9,2.5s-1.4,1-2.4,1s-1.8-0.3-2.4-1S550.3,99.4,550.3,98.3L550.3,98.3z M552.2,98.4
			c0,0.7,0.1,1.2,0.4,1.5c0.2,0.3,0.6,0.5,1.1,0.5c0.4,0,0.8-0.2,1-0.5c0.3-0.3,0.4-0.9,0.4-1.6c0-0.6-0.1-1.1-0.4-1.5
			s-0.6-0.5-1.1-0.5c-0.4,0-0.8,0.2-1,0.5C552.3,97.1,552.2,97.6,552.2,98.4z"/>
		<path class="st5" d="M561.7,99.9c0-0.2-0.1-0.4-0.3-0.5c-0.2-0.1-0.6-0.2-1.1-0.3c-1.6-0.3-2.5-1-2.5-2.1c0-0.6,0.3-1.1,0.8-1.5
			s1.2-0.6,2-0.6c0.9,0,1.6,0.2,2.1,0.6c0.5,0.4,0.8,0.9,0.8,1.6h-1.8c0-0.3-0.1-0.5-0.3-0.7c-0.2-0.2-0.4-0.3-0.8-0.3
			c-0.3,0-0.5,0.1-0.7,0.2c-0.2,0.1-0.3,0.3-0.3,0.5c0,0.2,0.1,0.4,0.3,0.5c0.2,0.1,0.5,0.2,1,0.3c0.5,0.1,0.8,0.2,1.2,0.3
			c1,0.4,1.5,1,1.5,1.8c0,0.6-0.3,1.1-0.8,1.5c-0.5,0.4-1.2,0.6-2.1,0.6c-0.6,0-1.1-0.1-1.5-0.3c-0.4-0.2-0.8-0.5-1.1-0.8
			s-0.4-0.7-0.4-1.2h1.7c0,0.3,0.1,0.6,0.4,0.7c0.2,0.2,0.5,0.3,0.9,0.3c0.4,0,0.6-0.1,0.8-0.2C561.6,100.2,561.7,100.1,561.7,99.9z
			"/>
		<path class="st5" d="M567.6,98.3c0-1.1,0.2-1.9,0.7-2.6s1.1-1,2-1c0.7,0,1.2,0.2,1.7,0.7V92h1.8v9.8h-1.7L572,101
			c-0.5,0.6-1,0.9-1.8,0.9c-0.8,0-1.5-0.3-1.9-1S567.6,99.4,567.6,98.3z M569.4,98.4c0,0.6,0.1,1.1,0.3,1.5s0.6,0.5,1,0.5
			c0.6,0,1-0.2,1.2-0.7V97c-0.2-0.5-0.6-0.7-1.2-0.7C569.9,96.2,569.4,97,569.4,98.4z"/>
		<path class="st5" d="M578.4,101.9c-1,0-1.8-0.3-2.5-0.9s-0.9-1.4-0.9-2.5v-0.2c0-0.7,0.1-1.3,0.4-1.8c0.3-0.5,0.6-1,1.1-1.3
			c0.5-0.3,1-0.4,1.7-0.4c0.9,0,1.7,0.3,2.2,0.9s0.8,1.4,0.8,2.5v0.7h-4.4c0.1,0.4,0.2,0.8,0.5,1.1c0.3,0.3,0.7,0.4,1.1,0.4
			c0.7,0,1.3-0.3,1.7-0.8l0.9,1c-0.3,0.4-0.6,0.7-1.1,0.9C579.5,101.8,578.9,101.9,578.4,101.9z M578.2,96.2c-0.4,0-0.7,0.1-0.9,0.4
			s-0.4,0.6-0.4,1.1h2.6v-0.1c0-0.4-0.1-0.7-0.3-0.9C578.9,96.3,578.6,96.2,578.2,96.2z"/>
		<path class="st5" d="M445.1,113.9c0-1.1,0.2-1.9,0.7-2.6s1.1-1,2-1c0.7,0,1.2,0.2,1.7,0.7v-3.5h1.8v9.8h-1.7l-0.1-0.7
			c-0.5,0.6-1,0.9-1.8,0.9c-0.8,0-1.5-0.3-1.9-1C445.3,115.9,445.1,115,445.1,113.9z M446.9,114c0,0.6,0.1,1.1,0.3,1.5
			c0.2,0.3,0.5,0.5,1,0.5c0.6,0,1-0.2,1.2-0.7v-2.7c-0.2-0.5-0.6-0.7-1.2-0.7C447.4,111.8,446.9,112.6,446.9,114z"/>
		<path class="st5" d="M455.9,117.5c-1,0-1.8-0.3-2.5-0.9c-0.6-0.6-0.9-1.4-0.9-2.5v-0.2c0-0.7,0.1-1.3,0.4-1.9
			c0.3-0.5,0.6-1,1.1-1.3c0.5-0.3,1-0.4,1.7-0.4c0.9,0,1.7,0.3,2.2,0.9c0.5,0.6,0.8,1.4,0.8,2.5v0.7h-4.4c0.1,0.4,0.2,0.8,0.5,1.1
			s0.7,0.4,1.1,0.4c0.7,0,1.3-0.3,1.7-0.8l0.9,1c-0.3,0.4-0.6,0.7-1.1,0.9C457,117.4,456.4,117.5,455.9,117.5z M455.7,111.8
			c-0.4,0-0.7,0.1-0.9,0.4c-0.2,0.2-0.4,0.6-0.4,1.1h2.6v-0.1c0-0.4-0.1-0.7-0.3-0.9C456.4,111.9,456.1,111.8,455.7,111.8z"/>
		<path class="st5" d="M461.5,110.5l0.1,0.8c0.5-0.6,1.1-0.9,2-0.9c0.9,0,1.5,0.3,1.8,1c0.5-0.7,1.2-1,2.1-1c0.7,0,1.3,0.2,1.7,0.7
			c0.4,0.4,0.5,1.1,0.5,2v4.4h-1.8V113c0-0.4-0.1-0.7-0.2-0.9c-0.2-0.2-0.4-0.3-0.8-0.3c-0.6,0-0.9,0.3-1.1,0.8l0,4.7h-1.8V113
			c0-0.4-0.1-0.7-0.2-0.9s-0.4-0.3-0.8-0.3c-0.5,0-0.9,0.2-1.1,0.6v4.9h-1.8v-6.9H461.5z"/>
		<path class="st5" d="M470.7,113.9c0-0.7,0.1-1.3,0.4-1.8c0.3-0.5,0.6-0.9,1.1-1.2c0.5-0.3,1.1-0.4,1.7-0.4c0.9,0,1.7,0.3,2.3,0.8
			c0.6,0.6,0.9,1.3,1,2.3l0,0.5c0,1.1-0.3,1.9-0.9,2.5s-1.4,1-2.4,1s-1.8-0.3-2.4-1C471,115.9,470.7,115,470.7,113.9L470.7,113.9z
			 M472.5,114c0,0.7,0.1,1.2,0.4,1.5c0.2,0.3,0.6,0.5,1.1,0.5c0.4,0,0.8-0.2,1-0.5c0.2-0.3,0.4-0.9,0.4-1.6c0-0.6-0.1-1.1-0.4-1.5
			c-0.3-0.4-0.6-0.5-1.1-0.5c-0.4,0-0.8,0.2-1,0.5S472.5,113.3,472.5,114z"/>
		<path class="st5" d="M482.1,115.5c0-0.2-0.1-0.4-0.3-0.5s-0.6-0.2-1.1-0.3c-1.6-0.3-2.4-1-2.4-2.1c0-0.6,0.3-1.1,0.8-1.5
			c0.5-0.4,1.2-0.6,2-0.6c0.9,0,1.6,0.2,2.1,0.6c0.5,0.4,0.8,0.9,0.8,1.6H482c0-0.3-0.1-0.5-0.3-0.7c-0.2-0.2-0.4-0.3-0.8-0.3
			c-0.3,0-0.5,0.1-0.7,0.2c-0.2,0.1-0.3,0.3-0.3,0.5c0,0.2,0.1,0.4,0.3,0.5c0.2,0.1,0.5,0.2,1,0.3c0.5,0.1,0.8,0.2,1.2,0.3
			c1,0.4,1.5,1,1.5,1.8c0,0.6-0.3,1.1-0.8,1.5s-1.2,0.6-2.1,0.6c-0.6,0-1.1-0.1-1.5-0.3c-0.4-0.2-0.8-0.5-1.1-0.8
			c-0.3-0.4-0.4-0.7-0.4-1.2h1.7c0,0.3,0.1,0.6,0.4,0.8c0.2,0.2,0.5,0.3,0.9,0.3c0.4,0,0.6-0.1,0.8-0.2
			C482,115.8,482.1,115.7,482.1,115.5z"/>
		<path class="st5" d="M487.2,108.8v1.7h1.2v1.3h-1.2v3.4c0,0.3,0,0.4,0.1,0.5c0.1,0.1,0.3,0.2,0.6,0.2c0.2,0,0.4,0,0.5,0v1.4
			c-0.4,0.1-0.7,0.2-1.1,0.2c-1.3,0-1.9-0.6-2-1.9v-3.7h-1v-1.3h1v-1.7H487.2z"/>
		<path class="st5" d="M493.3,112.2c-0.3,0-0.5-0.1-0.7-0.1c-0.7,0-1.2,0.2-1.4,0.7v4.5h-1.8v-6.9h1.7l0.1,0.8
			c0.4-0.6,0.9-0.9,1.5-0.9c0.2,0,0.4,0,0.6,0.1L493.3,112.2z"/>
		<path class="st5" d="M498,117.3c-0.1-0.2-0.1-0.4-0.2-0.6c-0.4,0.5-1,0.7-1.7,0.7c-0.7,0-1.2-0.2-1.7-0.6
			c-0.4-0.4-0.7-0.9-0.7-1.5c0-0.7,0.3-1.3,0.8-1.7c0.5-0.4,1.3-0.6,2.3-0.6h0.8v-0.4c0-0.3-0.1-0.6-0.2-0.8
			c-0.2-0.2-0.4-0.3-0.8-0.3c-0.3,0-0.6,0.1-0.7,0.2s-0.3,0.4-0.3,0.6h-1.8c0-0.4,0.1-0.8,0.4-1.1c0.2-0.3,0.6-0.6,1-0.8
			c0.4-0.2,1-0.3,1.5-0.3c0.8,0,1.5,0.2,2,0.6c0.5,0.4,0.7,1,0.7,1.8v3c0,0.7,0.1,1.1,0.3,1.5v0.1H498z M496.4,116.1
			c0.3,0,0.5-0.1,0.7-0.2c0.2-0.1,0.4-0.3,0.5-0.5v-1.2H497c-0.9,0-1.4,0.3-1.5,1l0,0.1c0,0.2,0.1,0.4,0.2,0.6
			C495.9,116,496.2,116.1,496.4,116.1z"/>
		<path class="st5" d="M503.8,116c0.3,0,0.6-0.1,0.8-0.3c0.2-0.2,0.3-0.4,0.3-0.7h1.7c0,0.5-0.1,0.9-0.4,1.3c-0.3,0.4-0.6,0.7-1,0.9
			c-0.4,0.2-0.9,0.3-1.4,0.3c-1,0-1.8-0.3-2.3-0.9c-0.6-0.6-0.9-1.5-0.9-2.6v-0.1c0-1.1,0.3-1.9,0.8-2.5c0.6-0.6,1.3-0.9,2.3-0.9
			c0.9,0,1.5,0.2,2.1,0.7c0.5,0.5,0.8,1.1,0.8,2H505c0-0.4-0.1-0.6-0.3-0.9c-0.2-0.2-0.5-0.3-0.8-0.3c-0.4,0-0.8,0.2-1,0.5
			c-0.2,0.3-0.3,0.8-0.3,1.5v0.2c0,0.7,0.1,1.2,0.3,1.5C503,115.8,503.4,116,503.8,116z"/>
		<path class="st5" d="M507.7,108.7c0-0.3,0.1-0.5,0.3-0.7c0.2-0.2,0.4-0.3,0.8-0.3c0.3,0,0.6,0.1,0.7,0.3s0.3,0.4,0.3,0.7
			c0,0.3-0.1,0.5-0.3,0.7c-0.2,0.2-0.4,0.3-0.7,0.3c-0.3,0-0.6-0.1-0.7-0.3C507.8,109.2,507.7,109,507.7,108.7z M509.7,117.3h-1.8
			v-6.9h1.8V117.3z"/>
		<path class="st5" d="M510.9,113.9c0-0.7,0.1-1.3,0.4-1.8c0.3-0.5,0.6-0.9,1.1-1.2c0.5-0.3,1.1-0.4,1.7-0.4c0.9,0,1.7,0.3,2.3,0.8
			c0.6,0.6,0.9,1.3,1,2.3l0,0.5c0,1.1-0.3,1.9-0.9,2.5s-1.4,1-2.4,1s-1.8-0.3-2.4-1S510.9,115,510.9,113.9L510.9,113.9z M512.7,114
			c0,0.7,0.1,1.2,0.4,1.5c0.2,0.3,0.6,0.5,1.1,0.5c0.4,0,0.8-0.2,1-0.5s0.4-0.9,0.4-1.6c0-0.6-0.1-1.1-0.4-1.5s-0.6-0.5-1.1-0.5
			c-0.4,0-0.8,0.2-1,0.5C512.8,112.7,512.7,113.3,512.7,114z"/>
		<path class="st5" d="M520.2,110.5l0.1,0.8c0.5-0.6,1.2-0.9,2-0.9c0.7,0,1.3,0.2,1.6,0.6s0.5,1.1,0.5,1.9v4.4h-1.8V113
			c0-0.4-0.1-0.7-0.3-0.8c-0.2-0.2-0.4-0.3-0.8-0.3c-0.5,0-0.9,0.2-1.2,0.7v4.8h-1.8v-6.9H520.2z"/>
		<path class="st5" d="M529,117.5c-1,0-1.8-0.3-2.5-0.9c-0.6-0.6-0.9-1.4-0.9-2.5v-0.2c0-0.7,0.1-1.3,0.4-1.9c0.3-0.5,0.6-1,1.1-1.3
			c0.5-0.3,1-0.4,1.7-0.4c0.9,0,1.7,0.3,2.2,0.9c0.5,0.6,0.8,1.4,0.8,2.5v0.7h-4.4c0.1,0.4,0.2,0.8,0.5,1.1s0.7,0.4,1.1,0.4
			c0.7,0,1.3-0.3,1.7-0.8l0.9,1c-0.3,0.4-0.6,0.7-1.1,0.9C530.1,117.4,529.5,117.5,529,117.5z M528.8,111.8c-0.4,0-0.7,0.1-0.9,0.4
			c-0.2,0.2-0.4,0.6-0.4,1.1h2.6v-0.1c0-0.4-0.1-0.7-0.3-0.9C529.4,111.9,529.1,111.8,528.8,111.8z"/>
		<path class="st5" d="M536.5,115.5c0-0.2-0.1-0.4-0.3-0.5s-0.6-0.2-1.1-0.3c-1.6-0.3-2.4-1-2.4-2.1c0-0.6,0.3-1.1,0.8-1.5
			c0.5-0.4,1.2-0.6,2-0.6c0.9,0,1.6,0.2,2.1,0.6c0.5,0.4,0.8,0.9,0.8,1.6h-1.8c0-0.3-0.1-0.5-0.3-0.7c-0.2-0.2-0.4-0.3-0.8-0.3
			c-0.3,0-0.5,0.1-0.7,0.2c-0.2,0.1-0.3,0.3-0.3,0.5c0,0.2,0.1,0.4,0.3,0.5c0.2,0.1,0.5,0.2,1,0.3c0.5,0.1,0.8,0.2,1.2,0.3
			c1,0.4,1.5,1,1.5,1.8c0,0.6-0.3,1.1-0.8,1.5s-1.2,0.6-2.1,0.6c-0.6,0-1.1-0.1-1.5-0.3c-0.4-0.2-0.8-0.5-1.1-0.8
			c-0.3-0.4-0.4-0.7-0.4-1.2h1.7c0,0.3,0.1,0.6,0.4,0.8c0.2,0.2,0.5,0.3,0.9,0.3c0.4,0,0.6-0.1,0.8-0.2
			C536.5,115.8,536.5,115.7,536.5,115.5z"/>
		<path class="st5" d="M544.9,108.8v1.7h1.2v1.3h-1.2v3.4c0,0.3,0,0.4,0.1,0.5c0.1,0.1,0.3,0.2,0.6,0.2c0.2,0,0.4,0,0.5,0v1.4
			c-0.4,0.1-0.7,0.2-1.1,0.2c-1.3,0-1.9-0.6-2-1.9v-3.7h-1v-1.3h1v-1.7H544.9z"/>
		<path class="st5" d="M550.3,117.5c-1,0-1.8-0.3-2.5-0.9c-0.6-0.6-0.9-1.4-0.9-2.5v-0.2c0-0.7,0.1-1.3,0.4-1.9
			c0.3-0.5,0.6-1,1.1-1.3c0.5-0.3,1-0.4,1.7-0.4c0.9,0,1.7,0.3,2.2,0.9c0.5,0.6,0.8,1.4,0.8,2.5v0.7h-4.4c0.1,0.4,0.2,0.8,0.5,1.1
			c0.3,0.3,0.7,0.4,1.1,0.4c0.7,0,1.3-0.3,1.7-0.8l0.9,1c-0.3,0.4-0.6,0.7-1.1,0.9C551.4,117.4,550.9,117.5,550.3,117.5z
			 M550.1,111.8c-0.4,0-0.7,0.1-0.9,0.4c-0.2,0.2-0.4,0.6-0.4,1.1h2.6v-0.1c0-0.4-0.1-0.7-0.3-0.9
			C550.8,111.9,550.5,111.8,550.1,111.8z"/>
		<path class="st5" d="M558,112.2c-0.3,0-0.5-0.1-0.7-0.1c-0.7,0-1.1,0.2-1.4,0.7v4.5h-1.8v-6.9h1.7l0.1,0.8
			c0.4-0.6,0.9-0.9,1.5-0.9c0.2,0,0.4,0,0.6,0.1L558,112.2z"/>
		<path class="st5" d="M560.6,110.5l0.1,0.8c0.5-0.6,1.1-0.9,2-0.9c0.9,0,1.5,0.3,1.8,1c0.5-0.7,1.2-1,2.1-1c0.7,0,1.3,0.2,1.7,0.7
			c0.4,0.4,0.5,1.1,0.5,2v4.4h-1.8V113c0-0.4-0.1-0.7-0.2-0.9c-0.2-0.2-0.4-0.3-0.8-0.3c-0.5,0-0.9,0.3-1.1,0.8l0,4.7h-1.8V113
			c0-0.4-0.1-0.7-0.2-0.9s-0.4-0.3-0.8-0.3c-0.5,0-0.9,0.2-1.1,0.6v4.9h-1.8v-6.9H560.6z"/>
		<path class="st5" d="M570.1,108.7c0-0.3,0.1-0.5,0.3-0.7s0.4-0.3,0.8-0.3c0.3,0,0.6,0.1,0.7,0.3c0.2,0.2,0.3,0.4,0.3,0.7
			c0,0.3-0.1,0.5-0.3,0.7c-0.2,0.2-0.4,0.3-0.7,0.3s-0.6-0.1-0.7-0.3C570.2,109.2,570.1,109,570.1,108.7z M572.1,117.3h-1.8v-6.9
			h1.8V117.3z"/>
		<path class="st5" d="M575.3,110.5l0.1,0.8c0.5-0.6,1.1-0.9,2-0.9c0.7,0,1.3,0.2,1.6,0.6s0.5,1.1,0.5,1.9v4.4h-1.8V113
			c0-0.4-0.1-0.7-0.3-0.8c-0.2-0.2-0.5-0.3-0.8-0.3c-0.5,0-0.9,0.2-1.2,0.7v4.8h-1.8v-6.9H575.3z"/>
		<path class="st5" d="M584.9,117.3c-0.1-0.2-0.1-0.4-0.2-0.6c-0.4,0.5-1,0.7-1.7,0.7c-0.7,0-1.2-0.2-1.7-0.6
			c-0.4-0.4-0.7-0.9-0.7-1.5c0-0.7,0.3-1.3,0.8-1.7c0.5-0.4,1.3-0.6,2.3-0.6h0.8v-0.4c0-0.3-0.1-0.6-0.2-0.8
			c-0.2-0.2-0.4-0.3-0.8-0.3c-0.3,0-0.6,0.1-0.7,0.2s-0.3,0.4-0.3,0.6h-1.8c0-0.4,0.1-0.8,0.4-1.1c0.2-0.3,0.6-0.6,1-0.8
			c0.4-0.2,1-0.3,1.5-0.3c0.8,0,1.5,0.2,2,0.6c0.5,0.4,0.7,1,0.7,1.8v3c0,0.7,0.1,1.1,0.3,1.5v0.1H584.9z M583.4,116.1
			c0.3,0,0.5-0.1,0.7-0.2c0.2-0.1,0.4-0.3,0.5-0.5v-1.2h-0.7c-0.9,0-1.4,0.3-1.5,1l0,0.1c0,0.2,0.1,0.4,0.2,0.6
			C582.9,116,583.1,116.1,583.4,116.1z"/>
		<path class="st5" d="M589.5,110.5l0.1,0.8c0.5-0.6,1.2-0.9,2-0.9c0.7,0,1.3,0.2,1.6,0.6s0.5,1.1,0.5,1.9v4.4h-1.8V113
			c0-0.4-0.1-0.7-0.3-0.8c-0.2-0.2-0.4-0.3-0.8-0.3c-0.5,0-0.9,0.2-1.2,0.7v4.8h-1.8v-6.9H589.5z"/>
		<path class="st5" d="M594.9,113.9c0-1.1,0.2-1.9,0.7-2.6s1.1-1,2-1c0.7,0,1.2,0.2,1.7,0.7v-3.5h1.8v9.8h-1.7l-0.1-0.7
			c-0.5,0.6-1,0.9-1.8,0.9c-0.8,0-1.5-0.3-1.9-1S594.9,115,594.9,113.9z M596.7,114c0,0.6,0.1,1.1,0.3,1.5c0.2,0.3,0.6,0.5,1,0.5
			c0.6,0,1-0.2,1.2-0.7v-2.7c-0.2-0.5-0.6-0.7-1.2-0.7C597.1,111.8,596.7,112.6,596.7,114z"/>
		<path class="st5" d="M602.2,113.9c0-0.7,0.1-1.3,0.4-1.8c0.3-0.5,0.6-0.9,1.1-1.2c0.5-0.3,1.1-0.4,1.7-0.4c0.9,0,1.7,0.3,2.3,0.8
			c0.6,0.6,0.9,1.3,1,2.3l0,0.5c0,1.1-0.3,1.9-0.9,2.5s-1.4,1-2.4,1s-1.8-0.3-2.4-1C602.5,115.9,602.2,115,602.2,113.9L602.2,113.9z
			 M604,114c0,0.7,0.1,1.2,0.4,1.5c0.2,0.3,0.6,0.5,1.1,0.5c0.4,0,0.8-0.2,1-0.5c0.2-0.3,0.4-0.9,0.4-1.6c0-0.6-0.1-1.1-0.4-1.5
			c-0.3-0.4-0.6-0.5-1.1-0.5c-0.4,0-0.8,0.2-1,0.5S604,113.3,604,114z"/>
		<path class="st5" d="M467.1,133.1c-1,0-1.8-0.3-2.5-0.9s-0.9-1.4-0.9-2.5v-0.2c0-0.7,0.1-1.3,0.4-1.9c0.3-0.5,0.6-1,1.1-1.3
			c0.5-0.3,1-0.4,1.7-0.4c0.9,0,1.7,0.3,2.2,0.9s0.8,1.4,0.8,2.5v0.8h-4.4c0.1,0.4,0.2,0.8,0.5,1.1c0.3,0.3,0.7,0.4,1.1,0.4
			c0.7,0,1.3-0.3,1.7-0.8l0.9,1c-0.3,0.4-0.6,0.7-1.1,0.9C468.2,133,467.7,133.1,467.1,133.1z M466.9,127.4c-0.4,0-0.7,0.1-0.9,0.4
			s-0.4,0.6-0.4,1.1h2.6v-0.1c0-0.4-0.1-0.7-0.3-0.9C467.6,127.5,467.3,127.4,466.9,127.4z"/>
		<path class="st5" d="M472.7,126.1l0.1,0.8c0.5-0.6,1.2-0.9,2-0.9c0.7,0,1.3,0.2,1.6,0.6c0.4,0.4,0.5,1.1,0.5,1.9v4.4h-1.8v-4.4
			c0-0.4-0.1-0.7-0.3-0.8c-0.2-0.2-0.4-0.3-0.8-0.3c-0.5,0-0.9,0.2-1.2,0.7v4.8H471v-6.9H472.7z"/>
		<path class="st5" d="M483.2,126.1l0.1,0.8c0.5-0.6,1.1-0.9,2-0.9c0.9,0,1.5,0.3,1.8,1c0.5-0.7,1.2-1,2.1-1c0.7,0,1.3,0.2,1.7,0.7
			c0.4,0.4,0.5,1.1,0.5,2v4.4h-1.8v-4.4c0-0.4-0.1-0.7-0.2-0.9s-0.4-0.3-0.8-0.3c-0.5,0-0.9,0.3-1.1,0.8l0,4.7h-1.8v-4.4
			c0-0.4-0.1-0.7-0.2-0.9s-0.4-0.3-0.8-0.3c-0.5,0-0.9,0.2-1.1,0.6v4.9h-1.8v-6.9H483.2z"/>
		<path class="st5" d="M496.8,133c-0.1-0.2-0.1-0.4-0.2-0.6c-0.4,0.5-1,0.7-1.7,0.7c-0.7,0-1.2-0.2-1.7-0.6
			c-0.4-0.4-0.7-0.9-0.7-1.5c0-0.7,0.3-1.3,0.8-1.7s1.3-0.6,2.3-0.6h0.8v-0.4c0-0.3-0.1-0.6-0.2-0.8c-0.2-0.2-0.4-0.3-0.8-0.3
			c-0.3,0-0.6,0.1-0.7,0.2c-0.2,0.1-0.3,0.4-0.3,0.6h-1.8c0-0.4,0.1-0.8,0.4-1.1c0.2-0.3,0.6-0.6,1-0.8c0.4-0.2,1-0.3,1.5-0.3
			c0.8,0,1.5,0.2,2,0.6c0.5,0.4,0.7,1,0.7,1.8v3c0,0.7,0.1,1.1,0.3,1.5v0.1H496.8z M495.2,131.7c0.3,0,0.5-0.1,0.7-0.2
			c0.2-0.1,0.4-0.3,0.5-0.5v-1.2h-0.7c-0.9,0-1.4,0.3-1.5,1l0,0.1c0,0.2,0.1,0.4,0.2,0.6C494.7,131.6,495,131.7,495.2,131.7z
			 M495.9,123.2h2l-1.8,2h-1.5L495.9,123.2z"/>
		<path class="st5" d="M503.5,131.1c0-0.2-0.1-0.4-0.3-0.5c-0.2-0.1-0.6-0.2-1.1-0.3c-1.6-0.3-2.4-1-2.4-2.1c0-0.6,0.3-1.1,0.8-1.5
			c0.5-0.4,1.2-0.6,2-0.6c0.9,0,1.6,0.2,2.1,0.6c0.5,0.4,0.8,0.9,0.8,1.6h-1.8c0-0.3-0.1-0.5-0.3-0.7c-0.2-0.2-0.4-0.3-0.8-0.3
			c-0.3,0-0.5,0.1-0.7,0.2c-0.2,0.1-0.3,0.3-0.3,0.5c0,0.2,0.1,0.4,0.3,0.5c0.2,0.1,0.5,0.2,1,0.3s0.8,0.2,1.2,0.3
			c1,0.4,1.5,1,1.5,1.8c0,0.6-0.3,1.1-0.8,1.5c-0.5,0.4-1.2,0.6-2.1,0.6c-0.6,0-1.1-0.1-1.5-0.3c-0.4-0.2-0.8-0.5-1.1-0.8
			c-0.3-0.4-0.4-0.7-0.4-1.2h1.7c0,0.3,0.1,0.6,0.4,0.7s0.5,0.3,0.9,0.3c0.4,0,0.6-0.1,0.8-0.2C503.4,131.4,503.5,131.3,503.5,131.1
			z"/>
		<path class="st5" d="M509.4,129.5c0-1.1,0.2-1.9,0.7-2.6s1.1-1,2-1c0.7,0,1.2,0.3,1.7,0.7v-3.5h1.8v9.8h-1.7l-0.1-0.7
			c-0.5,0.6-1,0.9-1.8,0.9c-0.8,0-1.5-0.3-1.9-1C509.6,131.5,509.4,130.6,509.4,129.5z M511.2,129.6c0,0.6,0.1,1.1,0.3,1.5
			c0.2,0.3,0.6,0.5,1,0.5c0.6,0,1-0.2,1.2-0.7v-2.7c-0.2-0.5-0.6-0.7-1.2-0.7C511.7,127.4,511.2,128.2,511.2,129.6z"/>
		<path class="st5" d="M520.2,133.1c-1,0-1.8-0.3-2.5-0.9s-0.9-1.4-0.9-2.5v-0.2c0-0.7,0.1-1.3,0.4-1.9c0.3-0.5,0.6-1,1.1-1.3
			c0.5-0.3,1-0.4,1.7-0.4c0.9,0,1.7,0.3,2.2,0.9s0.8,1.4,0.8,2.5v0.8h-4.4c0.1,0.4,0.2,0.8,0.5,1.1c0.3,0.3,0.7,0.4,1.1,0.4
			c0.7,0,1.3-0.3,1.7-0.8l0.9,1c-0.3,0.4-0.6,0.7-1.1,0.9C521.3,133,520.7,133.1,520.2,133.1z M519.9,127.4c-0.4,0-0.7,0.1-0.9,0.4
			s-0.4,0.6-0.4,1.1h2.6v-0.1c0-0.4-0.1-0.7-0.3-0.9C520.6,127.5,520.3,127.4,519.9,127.4z"/>
		<path class="st5" d="M529.1,127.5h1c0.5,0,0.8-0.1,1-0.3c0.2-0.2,0.3-0.5,0.3-0.9c0-0.4-0.1-0.7-0.3-0.9c-0.2-0.2-0.5-0.3-0.9-0.3
			c-0.4,0-0.6,0.1-0.9,0.3s-0.4,0.4-0.4,0.8h-1.8c0-0.5,0.1-0.9,0.4-1.3c0.3-0.4,0.6-0.7,1.1-0.9c0.5-0.2,1-0.3,1.5-0.3
			c1,0,1.7,0.2,2.3,0.7c0.6,0.5,0.8,1.1,0.8,1.9c0,0.4-0.1,0.8-0.4,1.2s-0.6,0.6-1,0.8c0.5,0.2,0.9,0.5,1.2,0.8s0.4,0.8,0.4,1.3
			c0,0.8-0.3,1.5-0.9,2c-0.6,0.5-1.4,0.7-2.4,0.7c-0.9,0-1.7-0.2-2.3-0.7c-0.6-0.5-0.9-1.1-0.9-1.9h1.8c0,0.3,0.1,0.6,0.4,0.8
			c0.3,0.2,0.6,0.3,1,0.3c0.4,0,0.8-0.1,1-0.3c0.2-0.2,0.4-0.5,0.4-0.9c0-0.9-0.5-1.4-1.5-1.4h-1V127.5z"/>
		<path class="st5" d="M540.9,129.1c0,1.3-0.3,2.3-0.8,2.9s-1.3,1-2.3,1c-1,0-1.8-0.3-2.3-1c-0.5-0.7-0.8-1.6-0.8-2.9v-1.7
			c0-1.3,0.3-2.3,0.8-2.9s1.3-1,2.3-1c1,0,1.8,0.3,2.3,1s0.8,1.6,0.8,2.9V129.1z M539,127.3c0-0.8-0.1-1.3-0.3-1.7
			c-0.2-0.3-0.5-0.5-1-0.5c-0.4,0-0.8,0.2-1,0.5c-0.2,0.3-0.3,0.9-0.3,1.6v2.2c0,0.8,0.1,1.3,0.3,1.7c0.2,0.4,0.5,0.5,1,0.5
			c0.4,0,0.8-0.2,1-0.5s0.3-0.9,0.3-1.6V127.3z"/>
		<path class="st5" d="M548.3,129.1c0,1.3-0.3,2.3-0.8,2.9s-1.3,1-2.3,1c-1,0-1.8-0.3-2.3-1c-0.5-0.7-0.8-1.6-0.8-2.9v-1.7
			c0-1.3,0.3-2.3,0.8-2.9s1.3-1,2.3-1c1,0,1.8,0.3,2.3,1s0.8,1.6,0.8,2.9V129.1z M546.5,127.3c0-0.8-0.1-1.3-0.3-1.7
			c-0.2-0.3-0.5-0.5-1-0.5c-0.4,0-0.8,0.2-1,0.5c-0.2,0.3-0.3,0.9-0.3,1.6v2.2c0,0.8,0.1,1.3,0.3,1.7c0.2,0.4,0.5,0.5,1,0.5
			c0.4,0,0.8-0.2,1-0.5s0.3-0.9,0.3-1.6V127.3z"/>
		<path class="st5" d="M555.4,130.7l1.3-4.6h1.9l-2.3,6.9h-1.8l-2.3-6.9h1.9L555.4,130.7z"/>
		<path class="st5" d="M563.6,132.3c-0.5,0.6-1.1,0.8-1.9,0.8c-0.7,0-1.3-0.2-1.7-0.6c-0.4-0.4-0.6-1-0.6-1.9v-4.5h1.8v4.4
			c0,0.7,0.3,1.1,1,1.1c0.6,0,1-0.2,1.3-0.6v-4.9h1.8v6.9h-1.7L563.6,132.3z"/>
		<path class="st5" d="M569.9,133.1c-1,0-1.8-0.3-2.5-0.9s-0.9-1.4-0.9-2.5v-0.2c0-0.7,0.1-1.3,0.4-1.9c0.3-0.5,0.6-1,1.1-1.3
			c0.5-0.3,1-0.4,1.7-0.4c0.9,0,1.7,0.3,2.2,0.9c0.5,0.6,0.8,1.4,0.8,2.5v0.8h-4.4c0.1,0.4,0.2,0.8,0.5,1.1c0.3,0.3,0.7,0.4,1.1,0.4
			c0.7,0,1.3-0.3,1.7-0.8l0.9,1c-0.3,0.4-0.6,0.7-1.1,0.9C571,133,570.5,133.1,569.9,133.1z M569.7,127.4c-0.4,0-0.7,0.1-0.9,0.4
			s-0.4,0.6-0.4,1.1h2.6v-0.1c0-0.4-0.1-0.7-0.3-0.9C570.4,127.5,570.1,127.4,569.7,127.4z"/>
		<path class="st5" d="M575.7,133h-1.8v-9.8h1.8V133z"/>
		<path class="st5" d="M576.9,129.5c0-0.7,0.1-1.3,0.4-1.8c0.3-0.5,0.6-0.9,1.1-1.2c0.5-0.3,1.1-0.4,1.7-0.4c0.9,0,1.7,0.3,2.3,0.9
			s0.9,1.3,1,2.3l0,0.5c0,1.1-0.3,1.9-0.9,2.5c-0.6,0.6-1.4,1-2.4,1s-1.8-0.3-2.4-1C577.2,131.5,576.9,130.6,576.9,129.5
			L576.9,129.5z M578.7,129.6c0,0.7,0.1,1.2,0.4,1.5s0.6,0.5,1.1,0.5c0.4,0,0.8-0.2,1-0.5c0.2-0.3,0.4-0.9,0.4-1.6
			c0-0.6-0.1-1.1-0.4-1.5c-0.3-0.4-0.6-0.5-1.1-0.5c-0.4,0-0.8,0.2-1,0.5S578.7,128.8,578.7,129.6z"/>
		<path class="st5" d="M588.3,131.1c0-0.2-0.1-0.4-0.3-0.5c-0.2-0.1-0.6-0.2-1.1-0.3c-1.6-0.3-2.4-1-2.4-2.1c0-0.6,0.3-1.1,0.8-1.5
			c0.5-0.4,1.2-0.6,2-0.6c0.9,0,1.6,0.2,2.1,0.6c0.5,0.4,0.8,0.9,0.8,1.6h-1.8c0-0.3-0.1-0.5-0.3-0.7c-0.2-0.2-0.4-0.3-0.8-0.3
			c-0.3,0-0.5,0.1-0.7,0.2c-0.2,0.1-0.3,0.3-0.3,0.5c0,0.2,0.1,0.4,0.3,0.5c0.2,0.1,0.5,0.2,1,0.3s0.8,0.2,1.2,0.3
			c1,0.4,1.5,1,1.5,1.8c0,0.6-0.3,1.1-0.8,1.5c-0.5,0.4-1.2,0.6-2.1,0.6c-0.6,0-1.1-0.1-1.5-0.3c-0.4-0.2-0.8-0.5-1.1-0.8
			c-0.3-0.4-0.4-0.7-0.4-1.2h1.7c0,0.3,0.1,0.6,0.4,0.7s0.5,0.3,0.9,0.3c0.4,0,0.6-0.1,0.8-0.2C588.2,131.4,588.3,131.3,588.3,131.1
			z"/>
		<path class="st5" d="M497.2,147.2c0.3,0,0.6-0.1,0.8-0.3c0.2-0.2,0.3-0.4,0.3-0.7h1.7c0,0.5-0.1,0.9-0.4,1.3
			c-0.3,0.4-0.6,0.7-1,0.9s-0.9,0.3-1.4,0.3c-1,0-1.8-0.3-2.3-0.9c-0.6-0.6-0.9-1.5-0.9-2.6V145c0-1.1,0.3-1.9,0.8-2.5
			c0.6-0.6,1.3-0.9,2.3-0.9c0.9,0,1.5,0.2,2.1,0.7c0.5,0.5,0.8,1.1,0.8,2h-1.7c0-0.4-0.1-0.6-0.3-0.9c-0.2-0.2-0.5-0.3-0.8-0.3
			c-0.4,0-0.8,0.2-1,0.5c-0.2,0.3-0.3,0.8-0.3,1.5v0.2c0,0.7,0.1,1.2,0.3,1.5C496.4,147,496.7,147.2,497.2,147.2z"/>
		<path class="st5" d="M505.1,148.5c-0.1-0.2-0.1-0.4-0.2-0.6c-0.4,0.5-1,0.7-1.7,0.7c-0.7,0-1.2-0.2-1.7-0.6
			c-0.4-0.4-0.7-0.9-0.7-1.5c0-0.7,0.3-1.3,0.8-1.7s1.3-0.6,2.3-0.6h0.8V144c0-0.3-0.1-0.6-0.2-0.8c-0.2-0.2-0.4-0.3-0.8-0.3
			c-0.3,0-0.6,0.1-0.7,0.2c-0.2,0.1-0.3,0.4-0.3,0.6H501c0-0.4,0.1-0.8,0.4-1.1c0.2-0.3,0.6-0.6,1-0.8c0.4-0.2,1-0.3,1.5-0.3
			c0.8,0,1.5,0.2,2,0.6c0.5,0.4,0.7,1,0.7,1.8v3c0,0.7,0.1,1.1,0.3,1.5v0.1H505.1z M503.5,147.3c0.3,0,0.5-0.1,0.7-0.2
			c0.2-0.1,0.4-0.3,0.5-0.5v-1.2h-0.7c-0.9,0-1.4,0.3-1.5,1l0,0.1c0,0.2,0.1,0.4,0.2,0.6C503,147.2,503.3,147.3,503.5,147.3z"/>
		<path class="st5" d="M509.7,141.7l0.1,0.8c0.5-0.6,1.1-0.9,2-0.9c0.7,0,1.3,0.2,1.6,0.6c0.4,0.4,0.5,1.1,0.5,1.9v4.4h-1.8v-4.4
			c0-0.4-0.1-0.7-0.3-0.8c-0.2-0.2-0.5-0.3-0.8-0.3c-0.5,0-0.9,0.2-1.2,0.7v4.8H508v-6.9H509.7z"/>
		<path class="st5" d="M518.2,147.2c0.3,0,0.6-0.1,0.8-0.3c0.2-0.2,0.3-0.4,0.3-0.7h1.7c0,0.5-0.1,0.9-0.4,1.3
			c-0.3,0.4-0.6,0.7-1,0.9s-0.9,0.3-1.4,0.3c-1,0-1.8-0.3-2.3-0.9c-0.6-0.6-0.9-1.5-0.9-2.6V145c0-1.1,0.3-1.9,0.8-2.5
			c0.6-0.6,1.3-0.9,2.3-0.9c0.9,0,1.5,0.2,2.1,0.7c0.5,0.5,0.8,1.1,0.8,2h-1.7c0-0.4-0.1-0.6-0.3-0.9c-0.2-0.2-0.5-0.3-0.8-0.3
			c-0.4,0-0.8,0.2-1,0.5c-0.2,0.3-0.3,0.8-0.3,1.5v0.2c0,0.7,0.1,1.2,0.3,1.5C517.4,147,517.7,147.2,518.2,147.2z"/>
		<path class="st5" d="M525.3,148.7c-1,0-1.8-0.3-2.5-0.9s-0.9-1.4-0.9-2.5v-0.2c0-0.7,0.1-1.3,0.4-1.8c0.3-0.5,0.6-1,1.1-1.3
			c0.5-0.3,1-0.4,1.7-0.4c0.9,0,1.7,0.3,2.2,0.9s0.8,1.4,0.8,2.5v0.7h-4.4c0.1,0.4,0.2,0.8,0.5,1.1c0.3,0.3,0.7,0.4,1.1,0.4
			c0.7,0,1.3-0.3,1.7-0.8l0.9,1c-0.3,0.4-0.6,0.7-1.1,0.9C526.4,148.6,525.8,148.7,525.3,148.7z M525.1,143c-0.4,0-0.7,0.1-0.9,0.4
			s-0.4,0.6-0.4,1.1h2.6v-0.1c0-0.4-0.1-0.7-0.3-0.9C525.7,143.1,525.4,143,525.1,143z"/>
		<path class="st5" d="M531.1,148.5h-1.8v-9.8h1.8V148.5z"/>
		<path class="st5" d="M536.6,148.5c-0.1-0.2-0.1-0.4-0.2-0.6c-0.4,0.5-1,0.7-1.7,0.7c-0.7,0-1.2-0.2-1.7-0.6
			c-0.4-0.4-0.7-0.9-0.7-1.5c0-0.7,0.3-1.3,0.8-1.7s1.3-0.6,2.3-0.6h0.8V144c0-0.3-0.1-0.6-0.2-0.8c-0.2-0.2-0.4-0.3-0.8-0.3
			c-0.3,0-0.6,0.1-0.7,0.2c-0.2,0.1-0.3,0.4-0.3,0.6h-1.8c0-0.4,0.1-0.8,0.4-1.1c0.2-0.3,0.6-0.6,1-0.8c0.4-0.2,1-0.3,1.5-0.3
			c0.8,0,1.5,0.2,2,0.6c0.5,0.4,0.7,1,0.7,1.8v3c0,0.7,0.1,1.1,0.3,1.5v0.1H536.6z M535,147.3c0.3,0,0.5-0.1,0.7-0.2
			c0.2-0.1,0.4-0.3,0.5-0.5v-1.2h-0.7c-0.9,0-1.4,0.3-1.5,1l0,0.1c0,0.2,0.1,0.4,0.2,0.6C534.5,147.2,534.8,147.3,535,147.3z"/>
		<path class="st5" d="M539.3,145.1c0-1.1,0.2-1.9,0.7-2.6s1.1-1,2-1c0.7,0,1.2,0.3,1.7,0.7v-3.5h1.8v9.8h-1.7l-0.1-0.7
			c-0.5,0.6-1,0.9-1.8,0.9c-0.8,0-1.5-0.3-1.9-1S539.3,146.2,539.3,145.1z M541.1,145.2c0,0.6,0.1,1.1,0.3,1.5
			c0.2,0.3,0.6,0.5,1,0.5c0.6,0,1-0.2,1.2-0.7v-2.7c-0.2-0.5-0.6-0.7-1.2-0.7C541.5,143,541.1,143.8,541.1,145.2z"/>
		<path class="st5" d="M546.6,145.1c0-0.7,0.1-1.3,0.4-1.8c0.3-0.5,0.6-0.9,1.1-1.2c0.5-0.3,1.1-0.4,1.7-0.4c0.9,0,1.7,0.3,2.3,0.9
			s0.9,1.3,1,2.3l0,0.5c0,1.1-0.3,1.9-0.9,2.5s-1.4,1-2.4,1s-1.8-0.3-2.4-1C546.9,147.1,546.6,146.2,546.6,145.1L546.6,145.1z
			 M548.4,145.2c0,0.7,0.1,1.2,0.4,1.5s0.6,0.5,1.1,0.5c0.4,0,0.8-0.2,1-0.5c0.2-0.3,0.4-0.9,0.4-1.6c0-0.6-0.1-1.1-0.4-1.5
			c-0.3-0.4-0.6-0.5-1.1-0.5c-0.4,0-0.8,0.2-1,0.5S548.4,144.4,548.4,145.2z"/>
		<path class="st5" d="M557.9,146.7c0-0.2-0.1-0.4-0.3-0.5s-0.6-0.2-1.1-0.3c-1.6-0.3-2.4-1-2.4-2.1c0-0.6,0.3-1.1,0.8-1.5
			c0.5-0.4,1.2-0.6,2-0.6c0.9,0,1.6,0.2,2.1,0.6c0.5,0.4,0.8,0.9,0.8,1.6h-1.8c0-0.3-0.1-0.5-0.3-0.7c-0.2-0.2-0.4-0.3-0.8-0.3
			c-0.3,0-0.5,0.1-0.7,0.2c-0.2,0.1-0.3,0.3-0.3,0.5c0,0.2,0.1,0.4,0.3,0.5c0.2,0.1,0.5,0.2,1,0.3c0.5,0.1,0.8,0.2,1.2,0.3
			c1,0.4,1.5,1,1.5,1.8c0,0.6-0.3,1.1-0.8,1.5c-0.5,0.4-1.2,0.6-2.1,0.6c-0.6,0-1.1-0.1-1.5-0.3c-0.4-0.2-0.8-0.5-1.1-0.8
			s-0.4-0.7-0.4-1.2h1.7c0,0.3,0.1,0.6,0.4,0.7s0.5,0.3,0.9,0.3c0.4,0,0.6-0.1,0.8-0.2C557.9,147,557.9,146.9,557.9,146.7z"/>
	</g>
	<g>
		<path class="st5" d="M33.3,97.7h-3.7v2.5h4.3v1.5h-6.2v-9.2h6.2v1.5h-4.3v2.2h3.7V97.7z"/>
		<path class="st5" d="M36.7,94.9l0.1,0.8c0.5-0.6,1.1-0.9,2-0.9c0.9,0,1.5,0.3,1.8,1c0.5-0.7,1.2-1,2.1-1c0.7,0,1.3,0.2,1.7,0.7
			c0.4,0.4,0.5,1.1,0.5,2v4.4h-1.8v-4.4c0-0.4-0.1-0.7-0.2-0.9c-0.2-0.2-0.4-0.3-0.8-0.3c-0.5,0-0.9,0.3-1.1,0.8l0,4.7h-1.8v-4.4
			c0-0.4-0.1-0.7-0.2-0.9s-0.4-0.3-0.8-0.3c-0.5,0-0.9,0.2-1.1,0.6v4.9h-1.8v-6.9H36.7z"/>
		<path class="st5" d="M52.4,98.4c0,1.1-0.2,1.9-0.7,2.5s-1.1,1-1.9,1c-0.7,0-1.3-0.2-1.7-0.7v3.2h-1.8v-9.5h1.7l0.1,0.7
			c0.4-0.5,1-0.8,1.7-0.8c0.8,0,1.5,0.3,2,0.9S52.4,97.2,52.4,98.4L52.4,98.4z M50.5,98.2c0-0.6-0.1-1.1-0.3-1.5
			c-0.2-0.3-0.6-0.5-1-0.5c-0.6,0-1,0.2-1.2,0.7v2.8c0.2,0.5,0.6,0.7,1.2,0.7C50.1,100.4,50.5,99.7,50.5,98.2z"/>
		<path class="st5" d="M53.5,93.1c0-0.3,0.1-0.5,0.3-0.7c0.2-0.2,0.4-0.3,0.8-0.3c0.3,0,0.6,0.1,0.7,0.3c0.2,0.2,0.3,0.4,0.3,0.7
			c0,0.3-0.1,0.5-0.3,0.7s-0.4,0.3-0.7,0.3c-0.3,0-0.6-0.1-0.7-0.3S53.5,93.4,53.5,93.1z M55.4,101.8h-1.8v-6.9h1.8V101.8z"/>
		<path class="st5" d="M60.1,101.9c-1,0-1.8-0.3-2.5-0.9s-0.9-1.4-0.9-2.5v-0.2c0-0.7,0.1-1.3,0.4-1.8c0.3-0.5,0.6-1,1.1-1.3
			c0.5-0.3,1-0.4,1.7-0.4c0.9,0,1.7,0.3,2.2,0.9c0.5,0.6,0.8,1.4,0.8,2.5v0.7h-4.4c0.1,0.4,0.2,0.8,0.5,1.1c0.3,0.3,0.7,0.4,1.1,0.4
			c0.7,0,1.3-0.3,1.7-0.8l0.9,1c-0.3,0.4-0.6,0.7-1.1,0.9C61.2,101.8,60.7,101.9,60.1,101.9z M59.9,96.2c-0.4,0-0.7,0.1-0.9,0.4
			s-0.4,0.6-0.4,1.1h2.6v-0.1c0-0.4-0.1-0.7-0.3-0.9C60.6,96.3,60.3,96.2,59.9,96.2z"/>
		<path class="st5" d="M66.1,100.3h3.4v1.5h-5.7v-1.1l3.2-4.3h-3.1v-1.5h5.5V96L66.1,100.3z"/>
		<path class="st5" d="M74.6,101.8c-0.1-0.2-0.1-0.4-0.2-0.6c-0.4,0.5-1,0.7-1.7,0.7c-0.7,0-1.2-0.2-1.7-0.6s-0.7-0.9-0.7-1.5
			c0-0.7,0.3-1.3,0.8-1.7c0.5-0.4,1.3-0.6,2.3-0.6h0.8v-0.4c0-0.3-0.1-0.6-0.2-0.8c-0.2-0.2-0.4-0.3-0.8-0.3c-0.3,0-0.6,0.1-0.7,0.2
			c-0.2,0.1-0.3,0.4-0.3,0.6h-1.8c0-0.4,0.1-0.8,0.4-1.1c0.2-0.3,0.6-0.6,1-0.8s1-0.3,1.5-0.3c0.8,0,1.5,0.2,2,0.6
			c0.5,0.4,0.7,1,0.7,1.8v3c0,0.7,0.1,1.1,0.3,1.5v0.1H74.6z M73.1,100.5c0.3,0,0.5-0.1,0.7-0.2c0.2-0.1,0.4-0.3,0.5-0.5v-1.2h-0.7
			c-0.9,0-1.4,0.3-1.5,1l0,0.1c0,0.2,0.1,0.4,0.2,0.6C72.6,100.4,72.8,100.5,73.1,100.5z"/>
		<path class="st5" d="M84,101.9c-1,0-1.8-0.3-2.5-0.9s-0.9-1.4-0.9-2.5v-0.2c0-0.7,0.1-1.3,0.4-1.8c0.3-0.5,0.6-1,1.1-1.3
			c0.5-0.3,1-0.4,1.7-0.4c0.9,0,1.7,0.3,2.2,0.9c0.5,0.6,0.8,1.4,0.8,2.5v0.7h-4.4c0.1,0.4,0.2,0.8,0.5,1.1c0.3,0.3,0.7,0.4,1.1,0.4
			c0.7,0,1.3-0.3,1.7-0.8l0.9,1c-0.3,0.4-0.6,0.7-1.1,0.9C85.1,101.8,84.5,101.9,84,101.9z M83.8,96.2c-0.4,0-0.7,0.1-0.9,0.4
			s-0.4,0.6-0.4,1.1H85v-0.1c0-0.4-0.1-0.7-0.3-0.9C84.4,96.3,84.1,96.2,83.8,96.2z"/>
		<path class="st5" d="M89.8,101.8h-1.8V92h1.8V101.8z"/>
		<path class="st5" d="M100.7,98.4c0,1.1-0.2,1.9-0.7,2.5s-1.1,1-1.9,1c-0.7,0-1.3-0.2-1.7-0.7v3.2h-1.8v-9.5h1.7l0.1,0.7
			c0.4-0.5,1-0.8,1.7-0.8c0.8,0,1.5,0.3,2,0.9S100.7,97.2,100.7,98.4L100.7,98.4z M98.9,98.2c0-0.6-0.1-1.1-0.3-1.5
			c-0.2-0.3-0.6-0.5-1-0.5c-0.6,0-1,0.2-1.2,0.7v2.8c0.2,0.5,0.6,0.7,1.2,0.7C98.4,100.4,98.9,99.7,98.9,98.2z"/>
		<path class="st5" d="M105.7,96.6c-0.3,0-0.5-0.1-0.7-0.1c-0.7,0-1.1,0.2-1.4,0.7v4.5h-1.8v-6.9h1.7l0.1,0.8
			c0.4-0.6,0.9-0.9,1.5-0.9c0.2,0,0.4,0,0.6,0.1L105.7,96.6z"/>
		<path class="st5" d="M106.1,98.3c0-0.7,0.1-1.3,0.4-1.8s0.6-0.9,1.1-1.2c0.5-0.3,1.1-0.4,1.7-0.4c0.9,0,1.7,0.3,2.3,0.9
			s0.9,1.3,1,2.3l0,0.5c0,1.1-0.3,1.9-0.9,2.5s-1.4,1-2.4,1s-1.8-0.3-2.4-1C106.4,100.3,106.1,99.4,106.1,98.3L106.1,98.3z
			 M107.9,98.4c0,0.7,0.1,1.2,0.4,1.5c0.2,0.3,0.6,0.5,1.1,0.5c0.4,0,0.8-0.2,1-0.5c0.2-0.3,0.4-0.9,0.4-1.6c0-0.6-0.1-1.1-0.4-1.5
			c-0.3-0.4-0.6-0.5-1.1-0.5c-0.4,0-0.8,0.2-1,0.5C108,97.1,107.9,97.6,107.9,98.4z"/>
		<path class="st5" d="M116.2,99.2l1.3-4.3h2l-2.8,7.9l-0.2,0.4c-0.4,0.9-1.1,1.3-2,1.3c-0.3,0-0.5,0-0.8-0.1V103l0.3,0
			c0.3,0,0.6-0.1,0.8-0.2c0.2-0.1,0.3-0.3,0.4-0.5l0.2-0.6l-2.4-6.9h2L116.2,99.2z"/>
		<path class="st5" d="M123.2,101.9c-1,0-1.8-0.3-2.5-0.9s-0.9-1.4-0.9-2.5v-0.2c0-0.7,0.1-1.3,0.4-1.8c0.3-0.5,0.6-1,1.1-1.3
			c0.5-0.3,1-0.4,1.7-0.4c0.9,0,1.7,0.3,2.2,0.9c0.5,0.6,0.8,1.4,0.8,2.5v0.7h-4.4c0.1,0.4,0.2,0.8,0.5,1.1c0.3,0.3,0.7,0.4,1.1,0.4
			c0.7,0,1.3-0.3,1.7-0.8l0.9,1c-0.3,0.4-0.6,0.7-1.1,0.9C124.3,101.8,123.8,101.9,123.2,101.9z M123,96.2c-0.4,0-0.7,0.1-0.9,0.4
			s-0.4,0.6-0.4,1.1h2.6v-0.1c0-0.4-0.1-0.7-0.3-0.9C123.7,96.3,123.4,96.2,123,96.2z"/>
		<path class="st5" d="M129.9,100.4c0.3,0,0.6-0.1,0.8-0.3c0.2-0.2,0.3-0.4,0.3-0.7h1.7c0,0.5-0.1,0.9-0.4,1.3
			c-0.3,0.4-0.6,0.7-1,0.9c-0.4,0.2-0.9,0.3-1.4,0.3c-1,0-1.8-0.3-2.3-0.9s-0.9-1.5-0.9-2.6v-0.1c0-1.1,0.3-1.9,0.8-2.5
			c0.6-0.6,1.3-0.9,2.3-0.9c0.9,0,1.5,0.2,2.1,0.7c0.5,0.5,0.8,1.1,0.8,2h-1.7c0-0.4-0.1-0.6-0.3-0.9c-0.2-0.2-0.5-0.3-0.8-0.3
			c-0.4,0-0.8,0.2-1,0.5s-0.3,0.8-0.3,1.5v0.2c0,0.7,0.1,1.2,0.3,1.5C129.2,100.2,129.5,100.4,129.9,100.4z"/>
		<path class="st5" d="M136,93.2v1.7h1.2v1.3H136v3.4c0,0.3,0,0.4,0.1,0.5s0.3,0.2,0.6,0.2c0.2,0,0.4,0,0.5,0v1.4
			c-0.4,0.1-0.7,0.2-1.1,0.2c-1.3,0-1.9-0.6-2-1.9v-3.7h-1v-1.3h1v-1.7H136z"/>
		<path class="st5" d="M137.8,98.3c0-0.7,0.1-1.3,0.4-1.8s0.6-0.9,1.1-1.2c0.5-0.3,1.1-0.4,1.7-0.4c0.9,0,1.7,0.3,2.3,0.9
			s0.9,1.3,1,2.3l0,0.5c0,1.1-0.3,1.9-0.9,2.5s-1.4,1-2.4,1s-1.8-0.3-2.4-1C138.1,100.3,137.8,99.4,137.8,98.3L137.8,98.3z
			 M139.6,98.4c0,0.7,0.1,1.2,0.4,1.5c0.2,0.3,0.6,0.5,1.1,0.5c0.4,0,0.8-0.2,1-0.5c0.2-0.3,0.4-0.9,0.4-1.6c0-0.6-0.1-1.1-0.4-1.5
			c-0.3-0.4-0.6-0.5-1.1-0.5c-0.4,0-0.8,0.2-1,0.5C139.7,97.1,139.6,97.6,139.6,98.4z"/>
		<path class="st5" d="M148.4,98.3c0-1.1,0.2-1.9,0.7-2.6s1.1-1,2-1c0.7,0,1.2,0.2,1.7,0.7V92h1.8v9.8h-1.7l-0.1-0.7
			c-0.5,0.6-1,0.9-1.8,0.9c-0.8,0-1.5-0.3-1.9-1C148.6,100.3,148.4,99.4,148.4,98.3z M150.2,98.4c0,0.6,0.1,1.1,0.3,1.5
			s0.5,0.5,1,0.5c0.6,0,1-0.2,1.2-0.7V97c-0.2-0.5-0.6-0.7-1.2-0.7C150.6,96.2,150.2,97,150.2,98.4z"/>
		<path class="st5" d="M159.1,101.9c-1,0-1.8-0.3-2.5-0.9s-0.9-1.4-0.9-2.5v-0.2c0-0.7,0.1-1.3,0.4-1.8c0.3-0.5,0.6-1,1.1-1.3
			c0.5-0.3,1-0.4,1.7-0.4c0.9,0,1.7,0.3,2.2,0.9c0.5,0.6,0.8,1.4,0.8,2.5v0.7h-4.4c0.1,0.4,0.2,0.8,0.5,1.1c0.3,0.3,0.7,0.4,1.1,0.4
			c0.7,0,1.3-0.3,1.7-0.8l0.9,1c-0.3,0.4-0.6,0.7-1.1,0.9C160.2,101.8,159.7,101.9,159.1,101.9z M158.9,96.2c-0.4,0-0.7,0.1-0.9,0.4
			s-0.4,0.6-0.4,1.1h2.6v-0.1c0-0.4-0.1-0.7-0.3-0.9C159.6,96.3,159.3,96.2,158.9,96.2z"/>
		<path class="st5" d="M40.1,117.3h-1.8v-9.8h1.8V117.3z"/>
		<path class="st5" d="M44.8,117.5c-1,0-1.8-0.3-2.5-0.9c-0.6-0.6-0.9-1.4-0.9-2.5v-0.2c0-0.7,0.1-1.3,0.4-1.9
			c0.3-0.5,0.6-1,1.1-1.3c0.5-0.3,1-0.4,1.7-0.4c0.9,0,1.7,0.3,2.2,0.9c0.5,0.6,0.8,1.4,0.8,2.5v0.7h-4.4c0.1,0.4,0.2,0.8,0.5,1.1
			c0.3,0.3,0.7,0.4,1.1,0.4c0.7,0,1.3-0.3,1.7-0.8l0.9,1c-0.3,0.4-0.6,0.7-1.1,0.9C45.9,117.4,45.3,117.5,44.8,117.5z M44.6,111.8
			c-0.4,0-0.7,0.1-0.9,0.4c-0.2,0.2-0.4,0.6-0.4,1.1h2.6v-0.1c0-0.4-0.1-0.7-0.3-0.9S45,111.8,44.6,111.8z"/>
		<path class="st5" d="M51.1,114.8l1.3-4.3h2l-2.8,7.9l-0.2,0.4c-0.4,0.9-1.1,1.3-2,1.3c-0.3,0-0.5,0-0.8-0.1v-1.4l0.3,0
			c0.3,0,0.6-0.1,0.8-0.2c0.2-0.1,0.3-0.3,0.4-0.5l0.2-0.6l-2.4-6.9h2L51.1,114.8z"/>
		<path class="st5" d="M58,113.9c0-1.1,0.2-1.9,0.7-2.6s1.1-1,2-1c0.7,0,1.2,0.2,1.7,0.7v-3.5h1.8v9.8h-1.7l-0.1-0.7
			c-0.5,0.6-1,0.9-1.8,0.9c-0.8,0-1.5-0.3-1.9-1C58.3,115.9,58,115,58,113.9z M59.9,114c0,0.6,0.1,1.1,0.3,1.5
			c0.2,0.3,0.5,0.5,1,0.5c0.6,0,1-0.2,1.2-0.7v-2.7c-0.2-0.5-0.6-0.7-1.2-0.7C60.3,111.8,59.9,112.6,59.9,114z"/>
		<path class="st5" d="M68.8,117.5c-1,0-1.8-0.3-2.5-0.9c-0.6-0.6-0.9-1.4-0.9-2.5v-0.2c0-0.7,0.1-1.3,0.4-1.9
			c0.3-0.5,0.6-1,1.1-1.3c0.5-0.3,1-0.4,1.7-0.4c0.9,0,1.7,0.3,2.2,0.9c0.5,0.6,0.8,1.4,0.8,2.5v0.7h-4.4c0.1,0.4,0.2,0.8,0.5,1.1
			c0.3,0.3,0.7,0.4,1.1,0.4c0.7,0,1.3-0.3,1.7-0.8l0.9,1c-0.3,0.4-0.6,0.7-1.1,0.9C69.9,117.4,69.4,117.5,68.8,117.5z M68.6,111.8
			c-0.4,0-0.7,0.1-0.9,0.4c-0.2,0.2-0.4,0.6-0.4,1.1h2.6v-0.1c0-0.4-0.1-0.7-0.3-0.9S69,111.8,68.6,111.8z"/>
		<path class="st5" d="M79.1,117.5c-1,0-1.8-0.3-2.5-0.9c-0.6-0.6-0.9-1.4-0.9-2.5v-0.2c0-0.7,0.1-1.3,0.4-1.9
			c0.3-0.5,0.6-1,1.1-1.3c0.5-0.3,1-0.4,1.7-0.4c0.9,0,1.7,0.3,2.2,0.9c0.5,0.6,0.8,1.4,0.8,2.5v0.7h-4.4c0.1,0.4,0.2,0.8,0.5,1.1
			c0.3,0.3,0.7,0.4,1.1,0.4c0.7,0,1.3-0.3,1.7-0.8l0.9,1c-0.3,0.4-0.6,0.7-1.1,0.9C80.2,117.4,79.6,117.5,79.1,117.5z M78.9,111.8
			c-0.4,0-0.7,0.1-0.9,0.4c-0.2,0.2-0.4,0.6-0.4,1.1h2.6v-0.1c0-0.4-0.1-0.7-0.3-0.9S79.2,111.8,78.9,111.8z"/>
		<path class="st5" d="M85.5,112.5l1.2-2h2l-2,3.4l2,3.5h-2l-1.2-2.2l-1.2,2.2h-2l2-3.5l-1.9-3.4h2L85.5,112.5z"/>
		<path class="st5" d="M91.7,108.8v1.7h1.2v1.3h-1.2v3.4c0,0.3,0,0.4,0.1,0.5c0.1,0.1,0.3,0.2,0.6,0.2c0.2,0,0.4,0,0.5,0v1.4
			c-0.4,0.1-0.7,0.2-1.1,0.2c-1.3,0-1.9-0.6-2-1.9v-3.7h-1v-1.3h1v-1.7H91.7z"/>
		<path class="st5" d="M97.8,112.2c-0.3,0-0.5-0.1-0.7-0.1c-0.7,0-1.1,0.2-1.4,0.7v4.5h-1.8v-6.9h1.7l0.1,0.8
			c0.4-0.6,0.9-0.9,1.5-0.9c0.2,0,0.4,0,0.6,0.1L97.8,112.2z"/>
		<path class="st5" d="M102.5,117.3c-0.1-0.2-0.1-0.4-0.2-0.6c-0.4,0.5-1,0.7-1.7,0.7c-0.7,0-1.2-0.2-1.7-0.6
			c-0.4-0.4-0.7-0.9-0.7-1.5c0-0.7,0.3-1.3,0.8-1.7c0.5-0.4,1.3-0.6,2.3-0.6h0.8v-0.4c0-0.3-0.1-0.6-0.2-0.8s-0.4-0.3-0.8-0.3
			c-0.3,0-0.6,0.1-0.7,0.2s-0.3,0.4-0.3,0.6h-1.8c0-0.4,0.1-0.8,0.4-1.1s0.6-0.6,1-0.8c0.4-0.2,1-0.3,1.5-0.3c0.8,0,1.5,0.2,2,0.6
			c0.5,0.4,0.7,1,0.7,1.8v3c0,0.7,0.1,1.1,0.3,1.5v0.1H102.5z M101,116.1c0.3,0,0.5-0.1,0.7-0.2c0.2-0.1,0.4-0.3,0.5-0.5v-1.2h-0.7
			c-0.9,0-1.4,0.3-1.5,1l0,0.1c0,0.2,0.1,0.4,0.2,0.6C100.5,116,100.7,116.1,101,116.1z"/>
		<path class="st5" d="M105.2,113.9c0-1.1,0.2-1.9,0.7-2.6s1.1-1,2-1c0.7,0,1.2,0.2,1.7,0.7v-3.5h1.8v9.8h-1.7l-0.1-0.7
			c-0.5,0.6-1,0.9-1.8,0.9c-0.8,0-1.5-0.3-1.9-1C105.4,115.9,105.2,115,105.2,113.9z M107,114c0,0.6,0.1,1.1,0.3,1.5
			c0.2,0.3,0.5,0.5,1,0.5c0.6,0,1-0.2,1.2-0.7v-2.7c-0.2-0.5-0.6-0.7-1.2-0.7C107.5,111.8,107,112.6,107,114z"/>
		<path class="st5" d="M112.8,108.7c0-0.3,0.1-0.5,0.3-0.7c0.2-0.2,0.4-0.3,0.8-0.3c0.3,0,0.6,0.1,0.7,0.3c0.2,0.2,0.3,0.4,0.3,0.7
			c0,0.3-0.1,0.5-0.3,0.7s-0.4,0.3-0.7,0.3c-0.3,0-0.6-0.1-0.7-0.3S112.8,109,112.8,108.7z M114.7,117.3h-1.8v-6.9h1.8V117.3z"/>
		<path class="st5" d="M118.4,108.8v1.7h1.2v1.3h-1.2v3.4c0,0.3,0,0.4,0.1,0.5c0.1,0.1,0.3,0.2,0.6,0.2c0.2,0,0.4,0,0.5,0v1.4
			c-0.4,0.1-0.7,0.2-1.1,0.2c-1.3,0-1.9-0.6-2-1.9v-3.7h-1v-1.3h1v-1.7H118.4z"/>
		<path class="st5" d="M124.6,117.3c-0.1-0.2-0.1-0.4-0.2-0.6c-0.4,0.5-1,0.7-1.7,0.7c-0.7,0-1.2-0.2-1.7-0.6
			c-0.4-0.4-0.7-0.9-0.7-1.5c0-0.7,0.3-1.3,0.8-1.7c0.5-0.4,1.3-0.6,2.3-0.6h0.8v-0.4c0-0.3-0.1-0.6-0.2-0.8s-0.4-0.3-0.8-0.3
			c-0.3,0-0.6,0.1-0.7,0.2s-0.3,0.4-0.3,0.6h-1.8c0-0.4,0.1-0.8,0.4-1.1s0.6-0.6,1-0.8c0.4-0.2,1-0.3,1.5-0.3c0.8,0,1.5,0.2,2,0.6
			c0.5,0.4,0.7,1,0.7,1.8v3c0,0.7,0.1,1.1,0.3,1.5v0.1H124.6z M123.1,116.1c0.3,0,0.5-0.1,0.7-0.2c0.2-0.1,0.4-0.3,0.5-0.5v-1.2
			h-0.7c-0.9,0-1.4,0.3-1.5,1l0,0.1c0,0.2,0.1,0.4,0.2,0.6C122.6,116,122.8,116.1,123.1,116.1z"/>
		<path class="st5" d="M130.5,116c0.3,0,0.6-0.1,0.8-0.3c0.2-0.2,0.3-0.4,0.3-0.7h1.7c0,0.5-0.1,0.9-0.4,1.3c-0.3,0.4-0.6,0.7-1,0.9
			c-0.4,0.2-0.9,0.3-1.4,0.3c-1,0-1.8-0.3-2.3-0.9c-0.6-0.6-0.9-1.5-0.9-2.6v-0.1c0-1.1,0.3-1.9,0.8-2.5c0.6-0.6,1.3-0.9,2.3-0.9
			c0.9,0,1.5,0.2,2.1,0.7s0.8,1.1,0.8,2h-1.7c0-0.4-0.1-0.6-0.3-0.9c-0.2-0.2-0.5-0.3-0.8-0.3c-0.4,0-0.8,0.2-1,0.5
			c-0.2,0.3-0.3,0.8-0.3,1.5v0.2c0,0.7,0.1,1.2,0.3,1.5S130,116,130.5,116z"/>
		<path class="st5" d="M134.4,108.7c0-0.3,0.1-0.5,0.3-0.7c0.2-0.2,0.4-0.3,0.8-0.3c0.3,0,0.6,0.1,0.7,0.3c0.2,0.2,0.3,0.4,0.3,0.7
			c0,0.3-0.1,0.5-0.3,0.7s-0.4,0.3-0.7,0.3c-0.3,0-0.6-0.1-0.7-0.3S134.4,109,134.4,108.7z M136.3,117.3h-1.8v-6.9h1.8V117.3z"/>
		<path class="st5" d="M137.5,113.9c0-0.7,0.1-1.3,0.4-1.8s0.6-0.9,1.1-1.2s1.1-0.4,1.7-0.4c0.9,0,1.7,0.3,2.3,0.8
			c0.6,0.6,0.9,1.3,1,2.3l0,0.5c0,1.1-0.3,1.9-0.9,2.5s-1.4,1-2.4,1s-1.8-0.3-2.4-1C137.8,115.9,137.5,115,137.5,113.9L137.5,113.9z
			 M139.4,114c0,0.7,0.1,1.2,0.4,1.5c0.2,0.3,0.6,0.5,1.1,0.5c0.4,0,0.8-0.2,1-0.5c0.2-0.3,0.4-0.9,0.4-1.6c0-0.6-0.1-1.1-0.4-1.5
			c-0.3-0.4-0.6-0.5-1.1-0.5c-0.4,0-0.8,0.2-1,0.5C139.5,112.7,139.4,113.3,139.4,114z M141.1,107.6h2l-1.8,2h-1.5L141.1,107.6z"/>
		<path class="st5" d="M146.9,110.5l0.1,0.8c0.5-0.6,1.1-0.9,2-0.9c0.7,0,1.3,0.2,1.6,0.6s0.5,1.1,0.5,1.9v4.4h-1.8V113
			c0-0.4-0.1-0.7-0.3-0.8c-0.2-0.2-0.5-0.3-0.8-0.3c-0.5,0-0.9,0.2-1.2,0.7v4.8h-1.8v-6.9H146.9z"/>
	</g>
	<g>
		<path class="st5" d="M126.6,16.3h0.8v6.5c0,0.9-0.3,1.6-0.8,2.1s-1.2,0.8-2,0.8c-0.9,0-1.6-0.2-2.1-0.7s-0.7-1.1-0.7-2h0.8
			c0,0.7,0.2,1.2,0.5,1.5c0.4,0.3,0.8,0.5,1.5,0.5c0.6,0,1.1-0.2,1.4-0.6s0.6-0.9,0.6-1.6V16.3z"/>
		<path class="st5" d="M136.1,16.3v6.3c0,0.6-0.1,1.2-0.4,1.6s-0.7,0.8-1.1,1.1c-0.5,0.2-1.1,0.4-1.7,0.4c-1,0-1.8-0.3-2.3-0.8
			c-0.6-0.5-0.9-1.3-0.9-2.2v-6.4h0.8v6.3c0,0.8,0.2,1.4,0.7,1.8c0.4,0.4,1,0.6,1.8,0.6s1.4-0.2,1.8-0.6s0.7-1,0.7-1.8v-6.3H136.1z"
			/>
		<path class="st5" d="M145.1,25.5h-0.8l-5.3-7.9v7.9h-0.8v-9.2h0.8l5.3,7.9v-7.9h0.8V25.5z"/>
		<path class="st5" d="M148.4,25.5h-0.8v-9.2h0.8V25.5z"/>
		<path class="st5" d="M157.8,21.4c0,0.9-0.1,1.6-0.4,2.2s-0.7,1.1-1.3,1.5s-1.2,0.5-1.9,0.5c-1.1,0-2-0.4-2.6-1.2
			c-0.7-0.8-1-1.8-1-3.1v-1c0-0.8,0.1-1.6,0.4-2.2c0.3-0.6,0.7-1.1,1.3-1.5c0.5-0.3,1.2-0.5,1.9-0.5s1.3,0.2,1.9,0.5s1,0.8,1.3,1.5
			c0.3,0.6,0.5,1.4,0.5,2.2V21.4z M157,20.4c0-1.1-0.3-2-0.8-2.6s-1.2-0.9-2.1-0.9c-0.9,0-1.5,0.3-2.1,0.9c-0.5,0.6-0.8,1.5-0.8,2.6
			v1c0,1.1,0.3,2,0.8,2.6c0.5,0.6,1.2,1,2.1,1c0.9,0,1.6-0.3,2.1-0.9c0.5-0.6,0.7-1.5,0.7-2.6V20.4z"/>
	</g>
	<g>
		<path class="st5" d="M337.8,92.5h0.8V99c0,0.9-0.3,1.6-0.8,2.1s-1.2,0.8-2,0.8c-0.9,0-1.6-0.2-2.1-0.7s-0.7-1.1-0.7-2h0.8
			c0,0.7,0.2,1.2,0.5,1.5c0.4,0.3,0.8,0.5,1.5,0.5c0.6,0,1.1-0.2,1.4-0.6c0.4-0.4,0.6-0.9,0.6-1.6V92.5z"/>
		<path class="st5" d="M347.3,92.5v6.3c0,0.6-0.1,1.2-0.4,1.6c-0.3,0.5-0.7,0.8-1.1,1.1c-0.5,0.2-1.1,0.4-1.7,0.4
			c-1,0-1.8-0.3-2.3-0.8c-0.6-0.5-0.9-1.3-0.9-2.2v-6.4h0.8v6.3c0,0.8,0.2,1.4,0.7,1.8c0.4,0.4,1,0.6,1.8,0.6s1.4-0.2,1.8-0.6
			s0.7-1,0.7-1.8v-6.3H347.3z"/>
		<path class="st5" d="M350.3,101.1h4.6v0.7h-5.4v-9.2h0.8V101.1z"/>
		<path class="st5" d="M357.3,101.8h-0.8v-9.2h0.8V101.8z"/>
		<path class="st5" d="M366.6,97.6c0,0.9-0.1,1.6-0.4,2.2c-0.3,0.6-0.7,1.1-1.3,1.5c-0.5,0.3-1.2,0.5-1.9,0.5c-1.1,0-2-0.4-2.6-1.2
			s-1-1.8-1-3.1v-1c0-0.8,0.1-1.6,0.4-2.2c0.3-0.6,0.7-1.1,1.3-1.5c0.5-0.3,1.2-0.5,1.9-0.5s1.3,0.2,1.9,0.5s1,0.8,1.3,1.5
			c0.3,0.6,0.5,1.4,0.5,2.2V97.6z M365.8,96.6c0-1.1-0.3-2-0.8-2.6c-0.5-0.6-1.2-0.9-2.1-0.9c-0.9,0-1.5,0.3-2.1,0.9
			s-0.8,1.5-0.8,2.7v1c0,1.1,0.3,2,0.8,2.6c0.5,0.6,1.2,1,2.1,1c0.9,0,1.6-0.3,2.1-0.9s0.7-1.5,0.7-2.6V96.6z"/>
	</g>
	<g>
		<path class="st5" d="M558.1,22.9h-4.2l-1,2.6h-0.8l3.5-9.2h0.7l3.5,9.2h-0.8L558.1,22.9z M554.2,22.3h3.7l-1.9-5L554.2,22.3z"/>
		<path class="st5" d="M567.9,24.4c-0.3,0.4-0.7,0.7-1.3,0.9c-0.6,0.2-1.2,0.3-1.9,0.3c-0.7,0-1.4-0.2-1.9-0.5
			c-0.6-0.3-1-0.8-1.3-1.5c-0.3-0.6-0.5-1.4-0.5-2.2v-1.2c0-1.3,0.3-2.3,1-3c0.6-0.7,1.5-1.1,2.6-1.1c1,0,1.7,0.2,2.3,0.7
			c0.6,0.5,0.9,1.2,1,2h-0.8c-0.1-0.7-0.4-1.2-0.8-1.5c-0.4-0.4-1-0.5-1.7-0.5c-0.9,0-1.5,0.3-2,0.9c-0.5,0.6-0.8,1.5-0.8,2.6v1.1
			c0,0.7,0.1,1.3,0.4,1.9s0.6,1,1,1.3c0.4,0.3,1,0.4,1.5,0.4c0.7,0,1.3-0.1,1.7-0.3c0.3-0.1,0.5-0.3,0.7-0.5v-2.4h-2.5v-0.7h3.3
			V24.4z"/>
		<path class="st5" d="M576.9,21.4c0,0.9-0.1,1.6-0.4,2.2s-0.7,1.1-1.3,1.5s-1.2,0.5-1.9,0.5c-1.1,0-2-0.4-2.6-1.2
			c-0.7-0.8-1-1.8-1-3.1v-1c0-0.8,0.1-1.6,0.4-2.2c0.3-0.6,0.7-1.1,1.3-1.5c0.5-0.3,1.2-0.5,1.9-0.5s1.3,0.2,1.9,0.5s1,0.8,1.3,1.5
			c0.3,0.6,0.5,1.4,0.5,2.2V21.4z M576.1,20.4c0-1.1-0.3-2-0.8-2.6s-1.2-0.9-2.1-0.9c-0.9,0-1.5,0.3-2.1,0.9
			c-0.5,0.6-0.8,1.5-0.8,2.6v1c0,1.1,0.3,2,0.8,2.6c0.5,0.6,1.2,1,2.1,1c0.9,0,1.6-0.3,2.1-0.9c0.5-0.6,0.7-1.5,0.7-2.6V20.4z"/>
		<path class="st5" d="M584.1,23.3c0-0.5-0.2-0.9-0.5-1.2c-0.4-0.3-1-0.6-2-0.9c-1-0.3-1.7-0.6-2.1-0.9c-0.6-0.4-0.9-1-0.9-1.8
			c0-0.7,0.3-1.3,0.9-1.7c0.6-0.4,1.3-0.7,2.2-0.7c0.6,0,1.2,0.1,1.6,0.4s0.9,0.6,1.1,1s0.4,0.9,0.4,1.4h-0.8c0-0.6-0.2-1.1-0.6-1.5
			s-1-0.6-1.7-0.6c-0.7,0-1.3,0.2-1.7,0.5c-0.4,0.3-0.6,0.7-0.6,1.2c0,0.5,0.2,0.9,0.6,1.2c0.4,0.3,1,0.6,1.8,0.8
			c0.8,0.2,1.5,0.5,1.9,0.7c0.4,0.2,0.8,0.5,1,0.9c0.2,0.3,0.3,0.7,0.3,1.2c0,0.7-0.3,1.3-0.9,1.8s-1.3,0.7-2.3,0.7
			c-0.7,0-1.2-0.1-1.8-0.3s-1-0.6-1.2-1s-0.4-0.9-0.4-1.4h0.8c0,0.7,0.2,1.2,0.7,1.5s1.1,0.6,1.9,0.6c0.7,0,1.3-0.2,1.7-0.5
			C583.9,24.2,584.1,23.8,584.1,23.3z"/>
		<path class="st5" d="M592.9,16.9h-3.2v8.6h-0.8v-8.6h-3.2v-0.7h7.1V16.9z"/>
		<path class="st5" d="M601,21.4c0,0.9-0.1,1.6-0.4,2.2s-0.7,1.1-1.3,1.5s-1.2,0.5-1.9,0.5c-1.1,0-2-0.4-2.6-1.2
			c-0.7-0.8-1-1.8-1-3.1v-1c0-0.8,0.1-1.6,0.4-2.2c0.3-0.6,0.7-1.1,1.3-1.5c0.5-0.3,1.2-0.5,1.9-0.5s1.3,0.2,1.9,0.5s1,0.8,1.3,1.5
			c0.3,0.6,0.5,1.4,0.5,2.2V21.4z M600.2,20.4c0-1.1-0.3-2-0.8-2.6s-1.2-0.9-2.1-0.9c-0.9,0-1.5,0.3-2.1,0.9
			c-0.5,0.6-0.8,1.5-0.8,2.6v1c0,1.1,0.3,2,0.8,2.6c0.5,0.6,1.2,1,2.1,1c0.9,0,1.6-0.3,2.1-0.9c0.5-0.6,0.7-1.5,0.7-2.6V20.4z"/>
	</g>
	<line class="st6" x1="46.9" y1="64.5" x2="46.9" y2="57.7"/>
	<line class="st7" x1="39.9" y1="71.5" x2="39.9" y2="50.7"/>
	<line class="st6" x1="53.9" y1="64.5" x2="53.9" y2="57.7"/>
	<line class="st6" x1="60.9" y1="64.5" x2="60.9" y2="57.7"/>
	<line class="st6" x1="67.9" y1="64.5" x2="67.9" y2="57.7"/>
	<line class="st6" x1="74.9" y1="64.5" x2="74.9" y2="57.7"/>
	<line class="st6" x1="81.9" y1="64.5" x2="81.9" y2="57.7"/>
	<line class="st6" x1="88.9" y1="64.5" x2="88.9" y2="57.7"/>
	<line class="st6" x1="95.9" y1="64.5" x2="95.9" y2="57.7"/>
	<line class="st6" x1="102.9" y1="64.5" x2="102.9" y2="57.7"/>
	<line class="st6" x1="109.9" y1="64.5" x2="109.9" y2="57.7"/>
	<line class="st6" x1="116.9" y1="64.5" x2="116.9" y2="57.7"/>
	<line class="st6" x1="123.9" y1="64.5" x2="123.9" y2="57.7"/>
	<line class="st6" x1="130.9" y1="64.5" x2="130.9" y2="57.7"/>
	<line class="st6" x1="137.9" y1="64.5" x2="137.9" y2="57.7"/>
	<line class="st6" x1="144.9" y1="64.5" x2="144.9" y2="57.7"/>
	<line class="st6" x1="151.9" y1="64.5" x2="151.9" y2="57.7"/>
	<line class="st6" x1="158.9" y1="64.5" x2="158.9" y2="57.7"/>
	<line class="st6" x1="165.9" y1="64.5" x2="165.9" y2="57.7"/>
	<line class="st6" x1="172.9" y1="64.5" x2="172.9" y2="57.7"/>
	<line class="st6" x1="179.9" y1="64.5" x2="179.9" y2="57.7"/>
	<line class="st6" x1="186.9" y1="64.5" x2="186.9" y2="57.7"/>
	<line class="st6" x1="193.9" y1="64.5" x2="193.9" y2="57.7"/>
	<line class="st6" x1="200.9" y1="64.5" x2="200.9" y2="57.7"/>
	<line class="st6" x1="207.9" y1="64.5" x2="207.9" y2="57.7"/>
	<line class="st6" x1="214.9" y1="64.5" x2="214.9" y2="57.7"/>
	<line class="st6" x1="221.9" y1="64.5" x2="221.9" y2="57.7"/>
	<line class="st6" x1="228.9" y1="64.5" x2="228.9" y2="57.7"/>
	<line class="st6" x1="235.9" y1="64.5" x2="235.9" y2="57.7"/>
	<line class="st6" x1="242.9" y1="64.5" x2="242.9" y2="57.7"/>
	<line class="st6" x1="249.9" y1="71.5" x2="249.9" y2="50.7"/>
	<line class="st6" x1="256.9" y1="64.5" x2="256.9" y2="57.7"/>
	<line class="st6" x1="263.9" y1="64.5" x2="263.9" y2="57.7"/>
	<line class="st6" x1="270.9" y1="64.5" x2="270.9" y2="57.7"/>
	<line class="st6" x1="277.9" y1="64.5" x2="277.9" y2="57.7"/>
	<line class="st6" x1="284.9" y1="64.5" x2="284.9" y2="57.7"/>
	<line class="st6" x1="291.9" y1="64.5" x2="291.9" y2="57.7"/>
	<line class="st6" x1="298.9" y1="64.5" x2="298.9" y2="57.7"/>
	<line class="st6" x1="305.9" y1="64.5" x2="305.9" y2="57.7"/>
	<line class="st6" x1="312.9" y1="64.5" x2="312.9" y2="57.7"/>
	<line class="st6" x1="319.9" y1="64.5" x2="319.9" y2="57.7"/>
	<line class="st6" x1="326.9" y1="64.5" x2="326.9" y2="57.7"/>
	<line class="st6" x1="333.9" y1="64.5" x2="333.9" y2="57.7"/>
	<line class="st6" x1="340.9" y1="64.5" x2="340.9" y2="57.7"/>
	<line class="st6" x1="347.9" y1="64.5" x2="347.9" y2="57.7"/>
	<line class="st6" x1="354.9" y1="64.5" x2="354.9" y2="57.7"/>
	<line class="st6" x1="361.9" y1="64.5" x2="361.9" y2="57.7"/>
	<line class="st6" x1="368.9" y1="64.5" x2="368.9" y2="57.7"/>
	<line class="st6" x1="375.9" y1="64.5" x2="375.9" y2="57.7"/>
	<line class="st6" x1="382.9" y1="64.5" x2="382.9" y2="57.7"/>
	<line class="st6" x1="389.9" y1="64.5" x2="389.9" y2="57.7"/>
	<line class="st6" x1="396.9" y1="64.5" x2="396.9" y2="57.7"/>
	<line class="st6" x1="403.9" y1="64.5" x2="403.9" y2="57.7"/>
	<line class="st6" x1="410.9" y1="64.5" x2="410.9" y2="57.7"/>
	<line class="st6" x1="417.9" y1="64.5" x2="417.9" y2="57.7"/>
	<line class="st6" x1="424.9" y1="64.5" x2="424.9" y2="57.7"/>
	<line class="st6" x1="431.9" y1="64.5" x2="431.9" y2="57.7"/>
	<line class="st6" x1="438.9" y1="64.5" x2="438.9" y2="57.7"/>
	<line class="st6" x1="445.9" y1="64.5" x2="445.9" y2="57.7"/>
	<line class="st6" x1="452.9" y1="64.5" x2="452.9" y2="57.7"/>
	<line class="st6" x1="459.9" y1="71.5" x2="459.9" y2="50.7"/>
	<line class="st6" x1="466.9" y1="64.5" x2="466.9" y2="57.7"/>
	<line class="st6" x1="473.9" y1="64.5" x2="473.9" y2="57.7"/>
	<line class="st6" x1="480.9" y1="64.5" x2="480.9" y2="57.7"/>
	<line class="st6" x1="487.9" y1="64.5" x2="487.9" y2="57.7"/>
	<line class="st6" x1="494.9" y1="64.5" x2="494.9" y2="57.7"/>
	<line class="st6" x1="501.9" y1="64.5" x2="501.9" y2="57.7"/>
	<line class="st6" x1="508.9" y1="64.5" x2="508.9" y2="57.7"/>
	<line class="st6" x1="515.9" y1="64.5" x2="515.9" y2="57.7"/>
	<line class="st6" x1="522.9" y1="64.5" x2="522.9" y2="57.7"/>
	<line class="st6" x1="529.9" y1="64.5" x2="529.9" y2="57.7"/>
	<line class="st6" x1="536.9" y1="64.5" x2="536.9" y2="57.7"/>
	<line class="st6" x1="543.9" y1="64.5" x2="543.9" y2="57.7"/>
	<line class="st6" x1="550.9" y1="64.5" x2="550.9" y2="57.7"/>
	<line class="st6" x1="557.9" y1="64.5" x2="557.9" y2="57.7"/>
	<line class="st6" x1="564.9" y1="64.5" x2="564.9" y2="57.7"/>
	<line class="st6" x1="571.9" y1="64.5" x2="571.9" y2="57.7"/>
	<line class="st6" x1="578.9" y1="64.5" x2="578.9" y2="57.7"/>
	<line class="st6" x1="585.9" y1="64.5" x2="585.9" y2="57.7"/>
	<line class="st6" x1="592.9" y1="64.5" x2="592.9" y2="57.7"/>
	<line class="st6" x1="599.9" y1="64.5" x2="599.9" y2="57.7"/>
	<line class="st6" x1="606.9" y1="64.5" x2="606.9" y2="57.7"/>
	<line class="st6" x1="613.9" y1="64.5" x2="613.9" y2="57.7"/>
	<line class="st6" x1="620.9" y1="64.5" x2="620.9" y2="57.7"/>
	<line class="st6" x1="627.9" y1="64.5" x2="627.9" y2="57.7"/>
	<line class="st6" x1="634.9" y1="64.5" x2="634.9" y2="57.7"/>
	<line class="st6" x1="641.9" y1="64.5" x2="641.9" y2="57.7"/>
	<line class="st6" x1="648.9" y1="64.5" x2="648.9" y2="57.7"/>
	<line class="st6" x1="655.9" y1="64.5" x2="655.9" y2="57.7"/>
	<line class="st6" x1="662.9" y1="64.5" x2="662.9" y2="57.7"/>
	<line class="st6" x1="669.9" y1="64.5" x2="669.9" y2="57.7"/>
	<circle class="st4" cx="96.4" cy="61.1" r="5.2"/>
	<line class="st4" x1="96.4" y1="66.3" x2="96.4" y2="92"/>
	<g>
		<path class="st8" d="M418.6,66.6c-3,0-5.5-2.5-5.5-5.5c0-3,2.5-5.5,5.5-5.5c3,0,5.5,2.5,5.5,5.5C424.1,64.1,421.6,66.6,418.6,66.6
			z"/>
		<path class="st9" d="M418.6,56.1c2.7,0,5,2.2,5,5c0,2.7-2.2,5-5,5c-2.7,0-5-2.2-5-5C413.6,58.4,415.9,56.1,418.6,56.1 M418.6,55.1
			c-3.3,0-6,2.7-6,6c0,3.3,2.7,6,6,6s6-2.7,6-6C424.6,57.8,421.9,55.1,418.6,55.1L418.6,55.1z"/>
	</g>
	<g>
		<path class="st8" d="M515.9,66.6c-3,0-5.5-2.5-5.5-5.5c0-3,2.5-5.5,5.5-5.5s5.5,2.5,5.5,5.5C521.3,64.1,518.9,66.6,515.9,66.6z"/>
		<path class="st9" d="M515.9,56.1c2.7,0,5,2.2,5,5c0,2.7-2.2,5-5,5s-5-2.2-5-5C510.9,58.4,513.1,56.1,515.9,56.1 M515.9,55.1
			c-3.3,0-6,2.7-6,6c0,3.3,2.7,6,6,6s6-2.7,6-6C521.8,57.8,519.1,55.1,515.9,55.1L515.9,55.1z"/>
	</g>
	<g>
		<path class="st8" d="M522.9,66.6c-3,0-5.5-2.5-5.5-5.5c0-3,2.5-5.5,5.5-5.5s5.5,2.5,5.5,5.5C528.3,64.1,525.9,66.6,522.9,66.6z"/>
		<path class="st9" d="M522.9,56.1c2.7,0,5,2.2,5,5c0,2.7-2.2,5-5,5s-5-2.2-5-5C517.9,58.4,520.1,56.1,522.9,56.1 M522.9,55.1
			c-3.3,0-6,2.7-6,6c0,3.3,2.7,6,6,6s6-2.7,6-6C528.8,57.8,526.1,55.1,522.9,55.1L522.9,55.1z"/>
	</g>
	<g>
		<path class="st8" d="M529.9,66.6c-3,0-5.5-2.5-5.5-5.5c0-3,2.5-5.5,5.5-5.5s5.5,2.5,5.5,5.5C535.3,64.1,532.9,66.6,529.9,66.6z"/>
		<path class="st9" d="M529.9,56.1c2.7,0,5,2.2,5,5c0,2.7-2.2,5-5,5s-5-2.2-5-5C524.9,58.4,527.1,56.1,529.9,56.1 M529.9,55.1
			c-3.3,0-6,2.7-6,6c0,3.3,2.7,6,6,6s6-2.7,6-6C535.8,57.8,533.1,55.1,529.9,55.1L529.9,55.1z"/>
	</g>
	<g>
		<path class="st8" d="M536.9,66.6c-3,0-5.5-2.5-5.5-5.5c0-3,2.5-5.5,5.5-5.5s5.5,2.5,5.5,5.5C542.3,64.1,539.9,66.6,536.9,66.6z"/>
		<path class="st9" d="M536.9,56.1c2.7,0,5,2.2,5,5c0,2.7-2.2,5-5,5s-5-2.2-5-5C531.9,58.4,534.1,56.1,536.9,56.1 M536.9,55.1
			c-3.3,0-6,2.7-6,6c0,3.3,2.7,6,6,6s6-2.7,6-6C542.8,57.8,540.1,55.1,536.9,55.1L536.9,55.1z"/>
	</g>
	<g>
		<path class="st8" d="M543.9,66.6c-3,0-5.5-2.5-5.5-5.5c0-3,2.5-5.5,5.5-5.5s5.5,2.5,5.5,5.5C549.3,64.1,546.9,66.6,543.9,66.6z"/>
		<path class="st9" d="M543.9,56.1c2.7,0,5,2.2,5,5c0,2.7-2.2,5-5,5s-5-2.2-5-5C538.9,58.4,541.1,56.1,543.9,56.1 M543.9,55.1
			c-3.3,0-6,2.7-6,6c0,3.3,2.7,6,6,6s6-2.7,6-6C549.8,57.8,547.1,55.1,543.9,55.1L543.9,55.1z"/>
	</g>
</g>
</svg>
