<svg xmlns="http://www.w3.org/2000/svg" xmlns:xlink="http://www.w3.org/1999/xlink" viewBox="0 0 300 400"><defs><style>.cls-1{fill:none;stroke:red;stroke-miterlimit:10;}.cls-2{font-size:9px;font-family:Roboto-Light, Roboto;}.cls-10,.cls-2,.cls-7{fill:#666;}.cls-10,.cls-2{font-weight:300;}.cls-3{font-size:10px;}.cls-3,.cls-7{font-family:Roboto-Black, Roboto;font-weight:800;}.cls-4{letter-spacing:-0.02em;}.cls-5{letter-spacing:0.02em;}.cls-6{letter-spacing:-0.01em;}.cls-7{font-size:11px;}.cls-8{letter-spacing:-0.02em;}.cls-9{letter-spacing:0em;}.cls-10{font-size:8px;font-family:Roboto-LightItalic, Roboto;font-style:italic;}.cls-11{letter-spacing:0.01em;}.cls-12{fill:url(#Degradado_sin_nombre_6);}.cls-13{fill:url(#Degradado_sin_nombre_6-2);}.cls-14{fill:url(#Degradado_sin_nombre_6-3);}</style><linearGradient id="Degradado_sin_nombre_6" x1="105.18" y1="367.46" x2="105.18" y2="335.32" gradientTransform="translate(-59.88 23.54) rotate(-10.84)" gradientUnits="userSpaceOnUse"><stop offset="0"/><stop offset="0.88" stop-color="#b1b1b1" stop-opacity="0.31"/><stop offset="1" stop-color="#fff" stop-opacity="0"/></linearGradient><linearGradient id="Degradado_sin_nombre_6-2" x1="227.79" y1="343.54" x2="227.79" y2="311.4" gradientTransform="translate(-159.16 352.22) rotate(-57.82)" xlink:href="#Degradado_sin_nombre_6"/><linearGradient id="Degradado_sin_nombre_6-3" x1="244.07" y1="291.8" x2="244.07" y2="259.65" gradientTransform="matrix(-0.85, -0.53, 0.53, -0.85, 338.52, 426.14)" xlink:href="#Degradado_sin_nombre_6"/></defs><title>mapa3</title><g id="fondo"><image width="1200" height="1497" transform="scale(0.25 0.27)" xlink:href="mapa3.png"/></g><g id="flecha1"><path class="cls-1" d="M130.4,188l-28.33,20.87a7.57,7.57,0,0,0-2.87,7.88l44.66,183.79"/><path class="cls-1" d="M130.4,189l-28.33,20.87c-2.46,1.81-2.59,3.92-1.87,6.88L150,400.93"/><path class="cls-1" d="M129.81,187l-28.95,21.53c-2.45,1.8-1.76,4-1,7L157.76,400"/></g><g id="flecha1b"><path class="cls-1" d="M130.4,188,102,210.05a7.75,7.75,0,0,0-2.74,8l7,27.88a5.07,5.07,0,0,0,6.82,3.47l28-11.32a14,14,0,0,0,4.87-3.29L300,15.14"/><path class="cls-1" d="M128.4,188,100,210.05c-2.4,1.88-2.48,5-1.74,8l7,27.88c.75,3,3,3.62,5.82,2.47l27.28-12.83c1.83-.74,4.76-4.14,6.13-5.57L300,6.79"/></g><g id="flecha1c"><path class="cls-1" d="M130.4,188l-28.33,20.87a7.57,7.57,0,0,0-2.87,7.88l14.66,44.54a15.23,15.23,0,0,0,6.35,8.13L300,382.86"/></g><g id="texto1"><text class="cls-2" transform="translate(130.35 100.89)">SHENZHEN</text><text class="cls-3" transform="translate(104.83 175.68)">Ae<tspan class="cls-4" x="12.26" y="0">r</tspan><tspan x="15.87" y="0">opue</tspan><tspan class="cls-5" x="38.2" y="0">r</tspan><tspan class="cls-6" x="42.23" y="0">t</tspan><tspan x="45.52" y="0">o</tspan></text><text class="cls-7" transform="translate(183.75 252.25)">HONG <tspan class="cls-8" x="33.28" y="0">K</tspan><tspan class="cls-9" x="40.15" y="0">ONG</tspan></text><text class="cls-10" transform="translate(182.72 361.12)"><tspan class="cls-11">M</tspan><tspan x="6.82" y="0">AR DE CHI</tspan><tspan class="cls-11" x="42.82" y="0">N</tspan><tspan x="48.43" y="0">A</tspan><tspan x="0" y="9.6">MERIDON</tspan><tspan class="cls-11" x="34.23" y="9.6">I</tspan><tspan x="36.41" y="9.6">AL</tspan></text><polygon class="cls-12" points="112.37 357.25 107.7 332.86 105.32 333.32 109.99 357.71 107.04 358.27 112.56 364.66 115.33 356.69 112.37 357.25"/><polygon class="cls-13" points="247.38 337.48 226.37 324.25 225.07 326.3 246.09 339.53 244.49 342.08 252.92 342.4 248.99 334.93 247.38 337.48"/><polygon class="cls-14" points="280.02 55.1 266.93 76.2 268.99 77.48 282.08 56.38 284.63 57.96 284.9 49.53 277.46 53.51 280.02 55.1"/><circle cx="130.4" cy="188" r="1.9"/></g></svg>