<svg xmlns="http://www.w3.org/2000/svg" xmlns:xlink="http://www.w3.org/1999/xlink" viewBox="0 0 300 401.2"><defs><style>.cls-1{fill:none;stroke:red;stroke-miterlimit:10;stroke-width:0.75px;}.cls-2{font-size:9px;font-family:Roboto-Light, Roboto;}.cls-10,.cls-2,.cls-7{fill:#666;}.cls-2,.cls-7{font-weight:300;}.cls-3{font-size:10px;font-family:Roboto-Black, Roboto;font-weight:800;}.cls-4{letter-spacing:-0.02em;}.cls-5{letter-spacing:0.02em;}.cls-6{letter-spacing:-0.01em;}.cls-7{font-size:8px;font-family:Roboto-LightItalic, Roboto;font-style:italic;}.cls-8{letter-spacing:0.01em;}.cls-9{fill:url(#Degradado_sin_nombre_6);}</style><linearGradient id="Degradado_sin_nombre_6" x1="105.18" y1="367.46" x2="105.18" y2="335.32" gradientTransform="translate(-59.88 23.54) rotate(-10.84)" gradientUnits="userSpaceOnUse"><stop offset="0"/><stop offset="0.88" stop-color="#b1b1b1" stop-opacity="0.31"/><stop offset="1" stop-color="#fff" stop-opacity="0"/></linearGradient></defs><title>mapa4</title><g id="fondo"><image width="1200" height="1497" transform="translate(0) scale(0.25 0.27)" xlink:href="mapa3.png"/></g><g id="flecha2"><path class="cls-1" d="M130.4,188l-28.33,20.87a7.57,7.57,0,0,0-2.87,7.88L147.71,400" transform="translate(0)"/><path class="cls-1" d="M130.4,189l-28.33,20.87c-2.46,1.81-2.59,3.92-1.87,6.88L151.67,401" transform="translate(0)"/><path class="cls-1" d="M129.81,187,96.92,203.7c-2.46,1.81-1.58,2.47-.86,5.43L158.8,400" transform="translate(0)"/><path class="cls-1" d="M128.93,187.53,95.56,211.11c-2.45,1.81-1.84,2.59-1.12,5.55L147,400" transform="translate(0)"/><path class="cls-1" d="M128.93,188.53,95.56,210c-2.45,1.8-1.69,3-1,5.92l53.95,184.54" transform="translate(0)"/><path class="cls-1" d="M128.93,187.53,96,203.58c-2.45,1.81-1.2,3.45-.48,6.42l49.62,190" transform="translate(0)"/><path class="cls-1" d="M130.4,188l-19.26,22.56a6.33,6.33,0,0,0-1.51,3.84l-.17,26a44,44,0,0,0,1.82,12.79L132,316.47a24.33,24.33,0,0,0,4.63,8.24L201.9,401" transform="translate(0)"/></g><g id="texto2"><text class="cls-2" transform="translate(130.35 100.89)">SHENZHEN</text><text class="cls-3" transform="translate(104.83 175.68)">Ae<tspan class="cls-4" x="12.26" y="0">r</tspan><tspan x="15.87" y="0">opue</tspan><tspan class="cls-5" x="38.2" y="0">r</tspan><tspan class="cls-6" x="42.23" y="0">t</tspan><tspan x="45.52" y="0">o</tspan></text><text class="cls-7" transform="translate(182.72 361.12)"><tspan class="cls-8">M</tspan><tspan x="6.82" y="0">AR DE CHI</tspan><tspan class="cls-8" x="42.82" y="0">N</tspan><tspan x="48.43" y="0">A</tspan><tspan x="0" y="9.6">MERIDON</tspan><tspan class="cls-8" x="34.23" y="9.6">I</tspan><tspan x="36.41" y="9.6">AL</tspan></text><polygon class="cls-9" points="112.37 357.25 107.7 332.86 105.32 333.32 109.99 357.71 107.04 358.27 112.56 364.66 115.33 356.69 112.37 357.25"/><circle cx="130.4" cy="188" r="1.9"/><path class="cls-10" d="M167.86,159.94h-2.39v-4.15h-3.53v4.15h-2.4V150h2.4v3.95h3.53V150h2.39Z" transform="translate(0)"/><path class="cls-10" d="M177.81,155.17a5.89,5.89,0,0,1-.54,2.58,4,4,0,0,1-1.54,1.73,4.29,4.29,0,0,1-2.26.6,4.35,4.35,0,0,1-2.26-.58,4,4,0,0,1-1.54-1.67,5.86,5.86,0,0,1-.57-2.5v-.56a6,6,0,0,1,.53-2.58,4,4,0,0,1,1.54-1.73,4.37,4.37,0,0,1,2.28-.61,4.3,4.3,0,0,1,2.26.61,4.07,4.07,0,0,1,1.54,1.71,5.75,5.75,0,0,1,.56,2.54Zm-2.44-.41a4.23,4.23,0,0,0-.5-2.26,1.59,1.59,0,0,0-1.42-.77c-1.2,0-1.84.91-1.91,2.71v.73a4.33,4.33,0,0,0,.48,2.25,1.69,1.69,0,0,0,2.85,0,4.26,4.26,0,0,0,.5-2.23Z" transform="translate(0)"/><path class="cls-10" d="M187.36,159.94H185l-3.53-6.19v6.19H179V150h2.4l3.52,6.19V150h2.4Z" transform="translate(0)"/><path class="cls-10" d="M197,158.71a4,4,0,0,1-1.62,1,7,7,0,0,1-2.34.37,4.16,4.16,0,0,1-3.12-1.2,4.78,4.78,0,0,1-1.25-3.32v-.87a6,6,0,0,1,.52-2.56,3.84,3.84,0,0,1,1.49-1.69,4.14,4.14,0,0,1,2.24-.59,4.41,4.41,0,0,1,2.89.85,3.65,3.65,0,0,1,1.2,2.54H194.7a1.84,1.84,0,0,0-.53-1.19,1.7,1.7,0,0,0-1.16-.36,1.56,1.56,0,0,0-1.39.77,4,4,0,0,0-.5,2.19v.6a4,4,0,0,0,.51,2.24,1.78,1.78,0,0,0,1.6.75,2,2,0,0,0,1.39-.42v-1.55H193v-1.64H197Z" transform="translate(0)"/><path class="cls-10" d="M205.29,156.24l-1,1.08v2.62h-2.4V150h2.4v4.39l.84-1.26,2.14-3.13h3l-3.36,4.4,3.36,5.55h-2.84Z" transform="translate(0)"/><path class="cls-10" d="M219.08,155.17a5.89,5.89,0,0,1-.54,2.58,4.12,4.12,0,0,1-1.54,1.73,4.62,4.62,0,0,1-4.52,0,4,4,0,0,1-1.54-1.67,5.71,5.71,0,0,1-.57-2.5v-.56a5.83,5.83,0,0,1,.53-2.58,4,4,0,0,1,1.54-1.73,4.37,4.37,0,0,1,2.28-.61,4.3,4.3,0,0,1,2.26.61,4.07,4.07,0,0,1,1.54,1.71,5.89,5.89,0,0,1,.56,2.54Zm-2.45-.41a4.24,4.24,0,0,0-.49-2.26,1.59,1.59,0,0,0-1.42-.77c-1.2,0-1.84.91-1.91,2.71v.73a4.33,4.33,0,0,0,.48,2.25,1.69,1.69,0,0,0,2.85,0,4.26,4.26,0,0,0,.49-2.23Z" transform="translate(0)"/><path class="cls-10" d="M228.62,159.94h-2.38l-3.53-6.19v6.19h-2.4V150h2.4l3.52,6.19V150h2.39Z" transform="translate(0)"/><path class="cls-10" d="M238.29,158.71a4,4,0,0,1-1.62,1,7,7,0,0,1-2.34.37,4.16,4.16,0,0,1-3.12-1.2,4.78,4.78,0,0,1-1.25-3.32v-.87a5.85,5.85,0,0,1,.52-2.56,3.84,3.84,0,0,1,1.49-1.69,4.14,4.14,0,0,1,2.24-.59,4.36,4.36,0,0,1,2.88.85,3.57,3.57,0,0,1,1.2,2.54H236a1.89,1.89,0,0,0-.53-1.19,1.7,1.7,0,0,0-1.16-.36,1.58,1.58,0,0,0-1.4.77,4.22,4.22,0,0,0-.5,2.19v.6a4,4,0,0,0,.51,2.24,1.81,1.81,0,0,0,1.61.75,2,2,0,0,0,1.39-.42v-1.55h-1.67v-1.64h4.07Z" transform="translate(0)"/></g></svg>