<?xml version="1.0" encoding="utf-8"?>
<!-- Generator: Adobe Illustrator 24.0.1, SVG Export Plug-In . SVG Version: 6.00 Build 0)  -->
<svg version="1.1" xmlns="http://www.w3.org/2000/svg" xmlns:xlink="http://www.w3.org/1999/xlink" x="0px" y="0px"
	 viewBox="0 0 300 400" style="enable-background:new 0 0 300 400;" xml:space="preserve">
<style type="text/css">
	.st0{display:none;}
	.st1{display:inline;fill:none;stroke:#000000;stroke-miterlimit:10;}
	.st2{display:inline;fill:none;stroke:#FF0000;stroke-miterlimit:10;}
	.st3{display:inline;fill:none;}
	.st4{display:inline;fill:#666666;}
	.st5{font-family:'Roboto-Light';}
	.st6{font-size:9px;}
	.st7{display:inline;}
	.st8{font-family:'Roboto-Black';}
	.st9{font-size:10px;}
	.st10{font-size:11px;}
	.st11{fill:#666666;}
	.st12{font-family:'Roboto-LightItalic';}
	.st13{font-size:8px;}
	.st14{display:inline;fill:url(#SVGID_1_);}
	.st15{display:inline;fill:url(#SVGID_2_);}
	.st16{display:inline;fill:url(#SVGID_3_);}
	.st17{fill:none;stroke:#FF0000;stroke-width:0.75;stroke-miterlimit:10;}
	.st18{fill:none;}
	.st19{fill:url(#SVGID_4_);}
	.st20{display:inline;fill:#3F3F3F;}
	.st21{font-family:'Roboto-Bold';}
	.st22{fill:none;stroke:#000000;stroke-width:0.5;stroke-miterlimit:10;}
	.st23{display:inline;fill:url(#SVGID_5_);}
	.st24{display:inline;fill:url(#SVGID_6_);}
	.st25{display:inline;fill:url(#SVGID_7_);}
</style>
<g id="square" class="st0">
	<line class="st1" x1="0" y1="0" x2="300" y2="400"/>
	<line class="st1" x1="300" y1="0" x2="0" y2="400"/>
	<rect class="st1" width="300" height="400"/>
</g>
<g id="fondo">
	<image style="overflow:visible;" width="1200" height="1497" xlink:href="mapa3.png"  transform="matrix(0.25 0 0 0.2672 0 0)">
	</image>
</g>
<g id="flecha1" class="st0">
	<path class="st2" d="M130.4,188l-28.3,20.9c-2.5,1.8-3.6,4.9-2.9,7.9l44.7,183.8"/>
	<path class="st2" d="M130.4,189l-28.3,20.9c-2.5,1.8-2.6,3.9-1.9,6.9L150,400.9"/>
	<path class="st2" d="M129.8,187l-28.9,21.5c-2.5,1.8-1.8,4-1,7L157.8,400"/>
</g>
<g id="flecha1b" class="st0">
	<path class="st2" d="M130.4,188L102,210.1c-2.4,1.9-3.5,5-2.7,8l7,27.9c0.7,3,4,4.6,6.8,3.5l28-11.3c1.8-0.7,3.5-1.9,4.9-3.3
		L300,15.1"/>
	<path class="st2" d="M128.4,188L100,210.1c-2.4,1.9-2.5,5-1.7,8l7,27.9c0.7,3,3,3.6,5.8,2.5l27.3-12.8c1.8-0.7,4.8-4.1,6.1-5.6
		L300,6.8"/>
</g>
<g id="flecha1c" class="st0">
	<path class="st2" d="M130.4,188l-28.3,20.9c-2.5,1.8-3.6,4.9-2.9,7.9l14.7,44.5c1.1,3.4,3.4,6.2,6.3,8.1L300,382.9"/>
</g>
<g id="texto1" class="st0">
	<rect x="130.3" y="94.1" class="st3" width="58.1" height="9.3"/>
	<text transform="matrix(1 0 0 1 130.3476 100.891)" class="st4 st5 st6">SHENZHEN</text>
	<rect x="101.3" y="168.2" class="st3" width="58.1" height="9.3"/>
	<text transform="matrix(1 0 0 1 104.7918 175.6785)" class="st7 st8 st9">Aeropuerto</text>
	<rect x="183.7" y="244" class="st3" width="64" height="15.1"/>
	<text transform="matrix(1 0 0 1 183.7488 252.2507)" class="st4 st8 st10">HONG KONG</text>
	<rect x="182.7" y="355.1" class="st3" width="56.6" height="17.8"/>
	<text transform="matrix(1 0 0 1 182.7244 361.1224)" class="st7"><tspan x="0" y="0" class="st11 st12 st13">MAR DE CHINA</tspan><tspan x="0" y="9.6" class="st11 st12 st13">MERIDONIAL</tspan></text>
	
		<linearGradient id="SVGID_1_" gradientUnits="userSpaceOnUse" x1="105.1771" y1="367.4645" x2="105.1771" y2="335.3231" gradientTransform="matrix(0.9821 -0.1881 0.1881 0.9821 -59.8756 23.544)">
		<stop  offset="0" style="stop-color:#000000"/>
		<stop  offset="0.1967" style="stop-color:#030303;stop-opacity:0.8033"/>
		<stop  offset="0.3308" style="stop-color:#0C0C0C;stop-opacity:0.6692"/>
		<stop  offset="0.4463" style="stop-color:#1B1B1B;stop-opacity:0.5537"/>
		<stop  offset="0.5512" style="stop-color:#313131;stop-opacity:0.4488"/>
		<stop  offset="0.6491" style="stop-color:#4D4D4D;stop-opacity:0.3509"/>
		<stop  offset="0.7416" style="stop-color:#6F6F6F;stop-opacity:0.2584"/>
		<stop  offset="0.83" style="stop-color:#989898;stop-opacity:0.17"/>
		<stop  offset="0.9149" style="stop-color:#C7C7C7;stop-opacity:8.505678e-02"/>
		<stop  offset="0.9947" style="stop-color:#FBFBFB;stop-opacity:5.308211e-03"/>
		<stop  offset="1" style="stop-color:#FFFFFF;stop-opacity:0"/>
	</linearGradient>
	<polygon class="st14" points="112.4,357.3 107.7,332.9 105.3,333.3 110,357.7 107,358.3 112.6,364.7 115.3,356.7 	"/>
	
		<linearGradient id="SVGID_2_" gradientUnits="userSpaceOnUse" x1="227.7922" y1="343.5414" x2="227.7922" y2="311.4" gradientTransform="matrix(0.5326 -0.8464 0.8464 0.5326 -159.1612 352.2217)">
		<stop  offset="0" style="stop-color:#000000"/>
		<stop  offset="0.1967" style="stop-color:#030303;stop-opacity:0.8033"/>
		<stop  offset="0.3308" style="stop-color:#0C0C0C;stop-opacity:0.6692"/>
		<stop  offset="0.4463" style="stop-color:#1B1B1B;stop-opacity:0.5537"/>
		<stop  offset="0.5512" style="stop-color:#313131;stop-opacity:0.4488"/>
		<stop  offset="0.6491" style="stop-color:#4D4D4D;stop-opacity:0.3509"/>
		<stop  offset="0.7416" style="stop-color:#6F6F6F;stop-opacity:0.2584"/>
		<stop  offset="0.83" style="stop-color:#989898;stop-opacity:0.17"/>
		<stop  offset="0.9149" style="stop-color:#C7C7C7;stop-opacity:8.505678e-02"/>
		<stop  offset="0.9947" style="stop-color:#FBFBFB;stop-opacity:5.308211e-03"/>
		<stop  offset="1" style="stop-color:#FFFFFF;stop-opacity:0"/>
	</linearGradient>
	<polygon class="st15" points="247.4,337.5 226.4,324.3 225.1,326.3 246.1,339.5 244.5,342.1 252.9,342.4 249,334.9 	"/>
	
		<linearGradient id="SVGID_3_" gradientUnits="userSpaceOnUse" x1="244.0666" y1="291.7963" x2="244.0666" y2="259.6549" gradientTransform="matrix(-0.8498 -0.5271 0.5271 -0.8498 338.5163 426.142)">
		<stop  offset="0" style="stop-color:#000000"/>
		<stop  offset="0.1967" style="stop-color:#030303;stop-opacity:0.8033"/>
		<stop  offset="0.3308" style="stop-color:#0C0C0C;stop-opacity:0.6692"/>
		<stop  offset="0.4463" style="stop-color:#1B1B1B;stop-opacity:0.5537"/>
		<stop  offset="0.5512" style="stop-color:#313131;stop-opacity:0.4488"/>
		<stop  offset="0.6491" style="stop-color:#4D4D4D;stop-opacity:0.3509"/>
		<stop  offset="0.7416" style="stop-color:#6F6F6F;stop-opacity:0.2584"/>
		<stop  offset="0.83" style="stop-color:#989898;stop-opacity:0.17"/>
		<stop  offset="0.9149" style="stop-color:#C7C7C7;stop-opacity:8.505678e-02"/>
		<stop  offset="0.9947" style="stop-color:#FBFBFB;stop-opacity:5.308211e-03"/>
		<stop  offset="1" style="stop-color:#FFFFFF;stop-opacity:0"/>
	</linearGradient>
	<polygon class="st16" points="280,55.1 266.9,76.2 269,77.5 282.1,56.4 284.6,58 284.9,49.5 277.5,53.5 	"/>
	<circle class="st7" cx="130.4" cy="188" r="1.9"/>
</g>
<g id="flecha2">
	<path class="st17" d="M130.4,188l-28.3,20.9c-2.5,1.8-3.6,4.9-2.9,7.9L147.7,400"/>
	<path class="st17" d="M130.4,189l-28.3,20.9c-2.5,1.8-2.6,3.9-1.9,6.9L151.7,401"/>
	<path class="st17" d="M129.8,187l-32.9,16.7c-2.5,1.8-1.6,2.5-0.9,5.4L158.8,400"/>
	<path class="st17" d="M128.9,187.5l-33.4,23.6c-2.5,1.8-1.8,2.6-1.1,5.6L147,400"/>
	<path class="st17" d="M128.9,188.5L95.6,210c-2.5,1.8-1.7,3-1,5.9l53.9,184.5"/>
	<path class="st17" d="M128.9,187.5l-32.9,16c-2.5,1.8-1.2,3.5-0.5,6.4l49.6,190"/>
	<path class="st17" d="M130.4,188l-19.3,22.6c-0.9,1.1-1.4,2.4-1.5,3.8l-0.2,26c0,4.3,0.6,8.6,1.8,12.8l20.8,63.3
		c1,3,2.6,5.8,4.6,8.2l65.2,76.3"/>
</g>
<g id="texto2">
	<rect x="130.3" y="94.1" class="st18" width="58.1" height="9.3"/>
	<text transform="matrix(1 0 0 1 130.3476 100.891)" class="st11 st5 st6">SHENZHEN</text>
	<rect x="101.3" y="168.2" class="st18" width="58.1" height="9.3"/>
	<text transform="matrix(1 0 0 1 104.7918 175.6785)" class="st8 st9">Aeropuerto</text>
	<rect x="182.7" y="355.1" class="st18" width="56.6" height="17.8"/>
	<text transform="matrix(1 0 0 1 182.7244 361.1224)"><tspan x="0" y="0" class="st11 st12 st13">MAR DE CHINA</tspan><tspan x="0" y="9.6" class="st11 st12 st13">MERIDONIAL</tspan></text>
	
		<linearGradient id="SVGID_4_" gradientUnits="userSpaceOnUse" x1="105.1771" y1="367.4645" x2="105.1771" y2="335.3231" gradientTransform="matrix(0.9821 -0.1881 0.1881 0.9821 -59.8756 23.544)">
		<stop  offset="0" style="stop-color:#000000"/>
		<stop  offset="0.1967" style="stop-color:#030303;stop-opacity:0.8033"/>
		<stop  offset="0.3308" style="stop-color:#0C0C0C;stop-opacity:0.6692"/>
		<stop  offset="0.4463" style="stop-color:#1B1B1B;stop-opacity:0.5537"/>
		<stop  offset="0.5512" style="stop-color:#313131;stop-opacity:0.4488"/>
		<stop  offset="0.6491" style="stop-color:#4D4D4D;stop-opacity:0.3509"/>
		<stop  offset="0.7416" style="stop-color:#6F6F6F;stop-opacity:0.2584"/>
		<stop  offset="0.83" style="stop-color:#989898;stop-opacity:0.17"/>
		<stop  offset="0.9149" style="stop-color:#C7C7C7;stop-opacity:8.505678e-02"/>
		<stop  offset="0.9947" style="stop-color:#FBFBFB;stop-opacity:5.308211e-03"/>
		<stop  offset="1" style="stop-color:#FFFFFF;stop-opacity:0"/>
	</linearGradient>
	<polygon class="st19" points="112.4,357.3 107.7,332.9 105.3,333.3 110,357.7 107,358.3 112.6,364.7 115.3,356.7 	"/>
	<circle cx="130.4" cy="188" r="1.9"/>
	<g>
		<path class="st11" d="M167.9,159.9h-2.4v-4.2h-3.5v4.2h-2.4v-10h2.4v4h3.5v-4h2.4V159.9z"/>
		<path class="st11" d="M177.8,155.2c0,1-0.2,1.8-0.5,2.6s-0.9,1.3-1.5,1.7c-0.7,0.4-1.4,0.6-2.3,0.6s-1.6-0.2-2.3-0.6
			s-1.2-0.9-1.5-1.7c-0.4-0.7-0.6-1.6-0.6-2.5v-0.6c0-1,0.2-1.8,0.5-2.6c0.4-0.7,0.9-1.3,1.5-1.7c0.7-0.4,1.4-0.6,2.3-0.6
			c0.8,0,1.6,0.2,2.3,0.6s1.2,1,1.5,1.7c0.4,0.7,0.6,1.6,0.6,2.5V155.2z M175.4,154.8c0-1-0.2-1.7-0.5-2.3c-0.3-0.5-0.8-0.8-1.4-0.8
			c-1.2,0-1.8,0.9-1.9,2.7l0,0.7c0,1,0.2,1.7,0.5,2.2s0.8,0.8,1.4,0.8c0.6,0,1.1-0.3,1.4-0.8s0.5-1.3,0.5-2.2V154.8z"/>
		<path class="st11" d="M187.4,159.9H185l-3.5-6.2v6.2H179v-10h2.4l3.5,6.2V150h2.4V159.9z"/>
		<path class="st11" d="M197,158.7c-0.4,0.4-0.9,0.7-1.6,1s-1.5,0.4-2.3,0.4c-1.3,0-2.3-0.4-3.1-1.2s-1.2-1.9-1.3-3.3l0-0.9
			c0-1,0.2-1.8,0.5-2.6s0.8-1.3,1.5-1.7c0.6-0.4,1.4-0.6,2.2-0.6c1.2,0,2.2,0.3,2.9,0.9c0.7,0.6,1.1,1.4,1.2,2.5h-2.3
			c-0.1-0.6-0.3-1-0.5-1.2s-0.7-0.4-1.2-0.4c-0.6,0-1.1,0.3-1.4,0.8s-0.5,1.2-0.5,2.2v0.6c0,1,0.2,1.7,0.5,2.2
			c0.3,0.5,0.9,0.7,1.6,0.7c0.6,0,1.1-0.1,1.4-0.4v-1.5H193v-1.6h4.1V158.7z"/>
		<path class="st11" d="M205.3,156.2l-1,1.1v2.6h-2.4v-10h2.4v4.4l0.8-1.3l2.1-3.1h3l-3.4,4.4l3.4,5.6h-2.8L205.3,156.2z"/>
		<path class="st11" d="M219.1,155.2c0,1-0.2,1.8-0.5,2.6s-0.9,1.3-1.5,1.7c-0.7,0.4-1.4,0.6-2.3,0.6s-1.6-0.2-2.3-0.6
			s-1.2-0.9-1.5-1.7c-0.4-0.7-0.6-1.6-0.6-2.5v-0.6c0-1,0.2-1.8,0.5-2.6c0.4-0.7,0.9-1.3,1.5-1.7c0.7-0.4,1.4-0.6,2.3-0.6
			c0.8,0,1.6,0.2,2.3,0.6s1.2,1,1.5,1.7c0.4,0.7,0.6,1.6,0.6,2.5V155.2z M216.6,154.8c0-1-0.2-1.7-0.5-2.3c-0.3-0.5-0.8-0.8-1.4-0.8
			c-1.2,0-1.8,0.9-1.9,2.7l0,0.7c0,1,0.2,1.7,0.5,2.2s0.8,0.8,1.4,0.8c0.6,0,1.1-0.3,1.4-0.8s0.5-1.3,0.5-2.2V154.8z"/>
		<path class="st11" d="M228.6,159.9h-2.4l-3.5-6.2v6.2h-2.4v-10h2.4l3.5,6.2V150h2.4V159.9z"/>
		<path class="st11" d="M238.3,158.7c-0.4,0.4-0.9,0.7-1.6,1s-1.5,0.4-2.3,0.4c-1.3,0-2.3-0.4-3.1-1.2s-1.2-1.9-1.3-3.3l0-0.9
			c0-1,0.2-1.8,0.5-2.6s0.8-1.3,1.5-1.7c0.6-0.4,1.4-0.6,2.2-0.6c1.2,0,2.2,0.3,2.9,0.9c0.7,0.6,1.1,1.4,1.2,2.5H236
			c-0.1-0.6-0.3-1-0.5-1.2s-0.7-0.4-1.2-0.4c-0.6,0-1.1,0.3-1.4,0.8s-0.5,1.2-0.5,2.2v0.6c0,1,0.2,1.7,0.5,2.2
			c0.3,0.5,0.9,0.7,1.6,0.7c0.6,0,1.1-0.1,1.4-0.4v-1.5h-1.7v-1.6h4.1V158.7z"/>
	</g>
</g>
<g id="texto3" class="st0">
	<rect x="130.3" y="94.1" class="st3" width="58.1" height="9.3"/>
	<text transform="matrix(1 0 0 1 130.3476 100.891)" class="st4 st5 st6">SHENZHEN</text>
	<rect x="101.3" y="168.2" class="st3" width="58.1" height="9.3"/>
	<text transform="matrix(1 0 0 1 104.7918 175.6785)" class="st7 st8 st9">Aeropuerto</text>
	<g class="st7">
		<path class="st11" d="M168.5,157.1h-2.4V153h-3.5v4.2h-2.4v-10h2.4v4h3.5v-4h2.4V157.1z"/>
		<path class="st11" d="M178.5,152.3c0,1-0.2,1.8-0.5,2.6s-0.9,1.3-1.5,1.7c-0.7,0.4-1.4,0.6-2.3,0.6s-1.6-0.2-2.3-0.6
			s-1.2-0.9-1.5-1.7c-0.4-0.7-0.6-1.6-0.6-2.5v-0.6c0-1,0.2-1.8,0.5-2.6c0.4-0.7,0.9-1.3,1.5-1.7c0.7-0.4,1.4-0.6,2.3-0.6
			c0.8,0,1.6,0.2,2.3,0.6s1.2,1,1.5,1.7c0.4,0.7,0.6,1.6,0.6,2.5V152.3z M176,151.9c0-1-0.2-1.7-0.5-2.3c-0.3-0.5-0.8-0.8-1.4-0.8
			c-1.2,0-1.8,0.9-1.9,2.7l0,0.7c0,1,0.2,1.7,0.5,2.2s0.8,0.8,1.4,0.8c0.6,0,1.1-0.3,1.4-0.8s0.5-1.3,0.5-2.2V151.9z"/>
		<path class="st11" d="M188,157.1h-2.4l-3.5-6.2v6.2h-2.4v-10h2.4l3.5,6.2v-6.2h2.4V157.1z"/>
		<path class="st11" d="M197.7,155.9c-0.4,0.4-0.9,0.7-1.6,1s-1.5,0.4-2.3,0.4c-1.3,0-2.3-0.4-3.1-1.2s-1.2-1.9-1.3-3.3l0-0.9
			c0-1,0.2-1.8,0.5-2.6s0.8-1.3,1.5-1.7c0.6-0.4,1.4-0.6,2.2-0.6c1.2,0,2.2,0.3,2.9,0.9c0.7,0.6,1.1,1.4,1.2,2.5h-2.3
			c-0.1-0.6-0.3-1-0.5-1.2s-0.7-0.4-1.2-0.4c-0.6,0-1.1,0.3-1.4,0.8s-0.5,1.2-0.5,2.2v0.6c0,1,0.2,1.7,0.5,2.2
			c0.3,0.5,0.9,0.7,1.6,0.7c0.6,0,1.1-0.1,1.4-0.4v-1.5h-1.7v-1.6h4.1V155.9z"/>
		<path class="st11" d="M205.9,153.4l-1,1.1v2.6h-2.4v-10h2.4v4.4l0.8-1.3l2.1-3.1h3l-3.4,4.4l3.4,5.6h-2.8L205.9,153.4z"/>
		<path class="st11" d="M219.7,152.3c0,1-0.2,1.8-0.5,2.6s-0.9,1.3-1.5,1.7c-0.7,0.4-1.4,0.6-2.3,0.6s-1.6-0.2-2.3-0.6
			s-1.2-0.9-1.5-1.7c-0.4-0.7-0.6-1.6-0.6-2.5v-0.6c0-1,0.2-1.8,0.5-2.6c0.4-0.7,0.9-1.3,1.5-1.7c0.7-0.4,1.4-0.6,2.3-0.6
			c0.8,0,1.6,0.2,2.3,0.6s1.2,1,1.5,1.7c0.4,0.7,0.6,1.6,0.6,2.5V152.3z M217.3,151.9c0-1-0.2-1.7-0.5-2.3c-0.3-0.5-0.8-0.8-1.4-0.8
			c-1.2,0-1.8,0.9-1.9,2.7l0,0.7c0,1,0.2,1.7,0.5,2.2s0.8,0.8,1.4,0.8c0.6,0,1.1-0.3,1.4-0.8s0.5-1.3,0.5-2.2V151.9z"/>
		<path class="st11" d="M229.3,157.1h-2.4l-3.5-6.2v6.2H221v-10h2.4l3.5,6.2v-6.2h2.4V157.1z"/>
		<path class="st11" d="M238.9,155.9c-0.4,0.4-0.9,0.7-1.6,1s-1.5,0.4-2.3,0.4c-1.3,0-2.3-0.4-3.1-1.2s-1.2-1.9-1.3-3.3l0-0.9
			c0-1,0.2-1.8,0.5-2.6s0.8-1.3,1.5-1.7c0.6-0.4,1.4-0.6,2.2-0.6c1.2,0,2.2,0.3,2.9,0.9c0.7,0.6,1.1,1.4,1.2,2.5h-2.3
			c-0.1-0.6-0.3-1-0.5-1.2s-0.7-0.4-1.2-0.4c-0.6,0-1.1,0.3-1.4,0.8s-0.5,1.2-0.5,2.2v0.6c0,1,0.2,1.7,0.5,2.2
			c0.3,0.5,0.9,0.7,1.6,0.7c0.6,0,1.1-0.1,1.4-0.4v-1.5h-1.7v-1.6h4.1V155.9z"/>
	</g>
	<rect x="182.7" y="355.1" class="st3" width="56.6" height="17.8"/>
	<text transform="matrix(1 0 0 1 182.7244 361.1224)" class="st7"><tspan x="0" y="0" class="st11 st12 st13">MAR DE CHINA</tspan><tspan x="0" y="9.6" class="st11 st12 st13">MERIDONIAL</tspan></text>
	<circle class="st7" cx="136.3" cy="189.9" r="1.9"/>
	<rect x="185.1" y="225.9" class="st3" width="58.1" height="9.3"/>
	<text transform="matrix(1 0 0 1 185.0802 234.1681)" class="st20 st21 st10">Sin salidas</text>
	<g class="st7">
		<g>
			<path class="st22" d="M136.3,197.6c9,33,34.7,34.6,43.7,33.3"/>
			<g>
				<polygon points="135.8,198.8 136.4,197.8 137.4,198.3 137.2,197.6 136.1,197.1 135.6,198.1 				"/>
			</g>
		</g>
	</g>
</g>
<g id="texto1_copia" class="st0">
	<g class="st7">
		<path class="st11" d="M134.8,99.3c0-0.4-0.1-0.6-0.4-0.8c-0.3-0.2-0.7-0.4-1.4-0.6c-0.7-0.2-1.1-0.4-1.5-0.6
			c-0.4-0.3-0.7-0.7-0.7-1.2c0-0.5,0.2-0.9,0.6-1.2c0.4-0.3,0.9-0.5,1.5-0.5c0.4,0,0.8,0.1,1.1,0.2c0.3,0.2,0.6,0.4,0.8,0.7
			s0.3,0.6,0.3,1h-0.5c0-0.4-0.2-0.8-0.4-1.1s-0.7-0.4-1.2-0.4c-0.5,0-0.9,0.1-1.2,0.3c-0.3,0.2-0.4,0.5-0.4,0.9
			c0,0.3,0.1,0.6,0.4,0.8c0.3,0.2,0.7,0.4,1.3,0.5c0.6,0.2,1,0.3,1.3,0.5s0.5,0.4,0.7,0.6c0.2,0.2,0.2,0.5,0.2,0.8
			c0,0.5-0.2,0.9-0.6,1.2c-0.4,0.3-0.9,0.5-1.6,0.5c-0.5,0-0.9-0.1-1.2-0.2c-0.4-0.2-0.7-0.4-0.9-0.7c-0.2-0.3-0.3-0.6-0.3-1h0.5
			c0,0.5,0.2,0.8,0.5,1.1s0.8,0.4,1.3,0.4c0.5,0,0.9-0.1,1.2-0.3S134.8,99.7,134.8,99.3z"/>
		<path class="st11" d="M141.2,100.9h-0.5v-3.1H137v3.1h-0.5v-6.4h0.5v2.9h3.7v-2.9h0.5V100.9z"/>
		<path class="st11" d="M146.4,97.8h-3v2.6h3.4v0.5h-4v-6.4h4v0.5h-3.4v2.4h3V97.8z"/>
		<path class="st11" d="M152.7,100.9h-0.5l-3.7-5.5v5.5H148v-6.4h0.5l3.7,5.5v-5.5h0.5V100.9z"/>
		<path class="st11" d="M154.6,100.4h4v0.5h-4.6v-0.4l3.8-5.5h-3.7v-0.5h4.4v0.4L154.6,100.4z"/>
		<path class="st11" d="M164.5,100.9h-0.5v-3.1h-3.7v3.1h-0.5v-6.4h0.5v2.9h3.7v-2.9h0.5V100.9z"/>
		<path class="st11" d="M169.6,97.8h-3v2.6h3.4v0.5h-4v-6.4h4v0.5h-3.4v2.4h3V97.8z"/>
		<path class="st11" d="M176,100.9h-0.5l-3.7-5.5v5.5h-0.5v-6.4h0.5l3.7,5.5v-5.5h0.5V100.9z"/>
	</g>
	<rect x="101.3" y="168.2" class="st3" width="58.1" height="9.3"/>
	<text transform="matrix(1 0 0 1 104.7918 175.6785)" class="st7 st8 st9">Aeropuerto</text>
	<g class="st7">
		<path class="st11" d="M190.9,252.3H189V249h-2.8v3.3h-1.9v-7.8h1.9v3.1h2.8v-3.1h1.9V252.3z"/>
		<path class="st11" d="M198.7,248.5c0,0.8-0.1,1.4-0.4,2c-0.3,0.6-0.7,1-1.2,1.4c-0.5,0.3-1.1,0.5-1.8,0.5s-1.3-0.2-1.8-0.5
			c-0.5-0.3-0.9-0.7-1.2-1.3s-0.4-1.2-0.5-2v-0.4c0-0.8,0.1-1.4,0.4-2c0.3-0.6,0.7-1,1.2-1.4c0.5-0.3,1.1-0.5,1.8-0.5
			c0.7,0,1.3,0.2,1.8,0.5c0.5,0.3,0.9,0.8,1.2,1.3c0.3,0.6,0.4,1.2,0.4,2V248.5z M196.8,248.2c0-0.8-0.1-1.4-0.4-1.8
			c-0.3-0.4-0.6-0.6-1.1-0.6c-0.9,0-1.4,0.7-1.5,2.1l0,0.6c0,0.8,0.1,1.4,0.4,1.8c0.3,0.4,0.6,0.6,1.1,0.6c0.5,0,0.8-0.2,1.1-0.6
			c0.3-0.4,0.4-1,0.4-1.7V248.2z"/>
		<path class="st11" d="M206.2,252.3h-1.9l-2.8-4.9v4.9h-1.9v-7.8h1.9l2.8,4.9v-4.9h1.9V252.3z"/>
		<path class="st11" d="M213.8,251.3c-0.3,0.3-0.7,0.6-1.3,0.8c-0.6,0.2-1.2,0.3-1.8,0.3c-1,0-1.8-0.3-2.5-0.9
			c-0.6-0.6-0.9-1.5-1-2.6l0-0.7c0-0.8,0.1-1.4,0.4-2c0.3-0.6,0.7-1,1.2-1.3s1.1-0.5,1.8-0.5c1,0,1.7,0.2,2.3,0.7
			c0.5,0.4,0.9,1.1,0.9,2H212c-0.1-0.4-0.2-0.7-0.4-0.9c-0.2-0.2-0.5-0.3-0.9-0.3c-0.5,0-0.8,0.2-1.1,0.6c-0.3,0.4-0.4,1-0.4,1.7
			v0.5c0,0.8,0.1,1.4,0.4,1.8c0.3,0.4,0.7,0.6,1.3,0.6c0.5,0,0.9-0.1,1.1-0.3v-1.2h-1.3v-1.3h3.2V251.3z"/>
		<path class="st11" d="M220.3,249.3l-0.8,0.8v2.1h-1.9v-7.8h1.9v3.4l0.7-1l1.7-2.5h2.3l-2.6,3.5l2.6,4.4h-2.2L220.3,249.3z"/>
		<path class="st11" d="M231.1,248.5c0,0.8-0.1,1.4-0.4,2c-0.3,0.6-0.7,1-1.2,1.4c-0.5,0.3-1.1,0.5-1.8,0.5s-1.3-0.2-1.8-0.5
			c-0.5-0.3-0.9-0.7-1.2-1.3s-0.4-1.2-0.5-2v-0.4c0-0.8,0.1-1.4,0.4-2c0.3-0.6,0.7-1,1.2-1.4c0.5-0.3,1.1-0.5,1.8-0.5
			c0.7,0,1.3,0.2,1.8,0.5c0.5,0.3,0.9,0.8,1.2,1.3c0.3,0.6,0.4,1.2,0.4,2V248.5z M229.2,248.2c0-0.8-0.1-1.4-0.4-1.8
			c-0.3-0.4-0.6-0.6-1.1-0.6c-0.9,0-1.4,0.7-1.5,2.1l0,0.6c0,0.8,0.1,1.4,0.4,1.8c0.3,0.4,0.6,0.6,1.1,0.6c0.5,0,0.8-0.2,1.1-0.6
			c0.3-0.4,0.4-1,0.4-1.7V248.2z"/>
		<path class="st11" d="M238.6,252.3h-1.9l-2.8-4.9v4.9h-1.9v-7.8h1.9l2.8,4.9v-4.9h1.9V252.3z"/>
		<path class="st11" d="M246.2,251.3c-0.3,0.3-0.7,0.6-1.3,0.8c-0.6,0.2-1.2,0.3-1.8,0.3c-1,0-1.8-0.3-2.5-0.9
			c-0.6-0.6-0.9-1.5-1-2.6l0-0.7c0-0.8,0.1-1.4,0.4-2c0.3-0.6,0.7-1,1.2-1.3s1.1-0.5,1.8-0.5c1,0,1.7,0.2,2.3,0.7
			c0.5,0.4,0.9,1.1,0.9,2h-1.8c-0.1-0.4-0.2-0.7-0.4-0.9c-0.2-0.2-0.5-0.3-0.9-0.3c-0.5,0-0.8,0.2-1.1,0.6c-0.3,0.4-0.4,1-0.4,1.7
			v0.5c0,0.8,0.1,1.4,0.4,1.8c0.3,0.4,0.7,0.6,1.3,0.6c0.5,0,0.9-0.1,1.1-0.3v-1.2H243v-1.3h3.2V251.3z"/>
	</g>
	<g class="st7">
		<path class="st11" d="M184.6,355.4l1.2,5l2.9-5h0.6l-1,5.7h-0.5l0.4-2.5l0.5-2.5l-2.9,5h-0.4l-1.2-5l-0.4,2.5l-0.4,2.5H183l1-5.7
			H184.6z"/>
		<path class="st11" d="M193.1,359.5h-2.5l-0.8,1.6h-0.5l3.1-5.7h0.5l1.1,5.7h-0.5L193.1,359.5z M190.8,359.1h2.2l-0.6-3.1
			L190.8,359.1z"/>
		<path class="st11" d="M197.2,358.8h-1.6l-0.4,2.4h-0.5l1-5.7l1.7,0c0.6,0,1,0.1,1.3,0.4c0.3,0.3,0.4,0.7,0.4,1.2
			c0,0.4-0.2,0.7-0.4,1c-0.2,0.3-0.6,0.5-1,0.6l1,2.4l0,0.1h-0.5L197.2,358.8z M195.7,358.3l1.4,0c0.4,0,0.7-0.1,1-0.4
			c0.3-0.2,0.5-0.5,0.5-0.9c0-0.4,0-0.7-0.2-0.9c-0.2-0.2-0.5-0.3-0.9-0.3l-1.3,0L195.7,358.3z"/>
		<path class="st11" d="M201.6,361.1l1-5.7l1.5,0c0.4,0,0.8,0.1,1.1,0.3c0.3,0.2,0.6,0.5,0.7,0.9c0.1,0.4,0.2,0.8,0.1,1.3l-0.1,0.5
			c-0.1,0.8-0.4,1.4-0.9,1.9c-0.5,0.5-1.1,0.7-1.9,0.7H201.6z M203,355.8l-0.8,4.9l1,0c0.4,0,0.8-0.1,1.1-0.3
			c0.3-0.2,0.6-0.4,0.8-0.8s0.4-0.7,0.4-1.1s0.1-0.7,0.1-0.9c0-0.2,0-0.3,0-0.5c-0.1-0.4-0.2-0.7-0.5-1c-0.3-0.2-0.6-0.4-1-0.4
			L203,355.8z"/>
		<path class="st11" d="M210.3,358.4h-2.6l-0.4,2.3h3l-0.1,0.4h-3.4l1-5.7h3.4l-0.1,0.4h-2.9l-0.4,2.1h2.6L210.3,358.4z"/>
		<path class="st11" d="M217.3,359.3c-0.1,0.6-0.4,1-0.8,1.4s-0.9,0.5-1.5,0.5c-0.5,0-0.9-0.2-1.2-0.5c-0.3-0.3-0.5-0.8-0.5-1.4
			c0-0.2,0-0.4,0-0.6l0.1-0.7c0.1-0.5,0.2-1,0.5-1.4c0.2-0.4,0.5-0.7,0.9-0.9s0.7-0.3,1.2-0.3c0.5,0,1,0.2,1.3,0.5
			c0.3,0.3,0.5,0.8,0.4,1.3l-0.5,0c0-0.5-0.1-0.8-0.3-1.1c-0.2-0.3-0.5-0.4-0.9-0.4c-0.5,0-1,0.2-1.3,0.6c-0.4,0.4-0.6,0.9-0.7,1.6
			l-0.1,0.8l0,0.4c0,0.3,0,0.6,0.1,0.9c0.1,0.3,0.2,0.5,0.4,0.6c0.2,0.1,0.4,0.2,0.7,0.2c0.5,0,0.8-0.1,1.1-0.3
			c0.3-0.2,0.5-0.6,0.7-1.1L217.3,359.3z"/>
		<path class="st11" d="M222.3,361.1h-0.5l0.5-2.7h-3.1l-0.5,2.7h-0.5l1-5.7h0.5l-0.4,2.6h3.1l0.4-2.6h0.5L222.3,361.1z"/>
		<path class="st11" d="M224.3,361.1h-0.5l1-5.7h0.5L224.3,361.1z"/>
		<path class="st11" d="M229.9,361.1h-0.5l-2.3-4.9l-0.8,4.9h-0.5l1-5.7h0.5l2.3,4.9l0.8-4.9h0.5L229.9,361.1z"/>
		<path class="st11" d="M234.7,359.5h-2.5l-0.8,1.6h-0.5l3.1-5.7h0.5l1.1,5.7H235L234.7,359.5z M232.4,359.1h2.2l-0.6-3.1
			L232.4,359.1z"/>
		<path class="st11" d="M184.6,365l1.2,5l2.9-5h0.6l-1,5.7h-0.5l0.4-2.5l0.5-2.5l-2.9,5h-0.4l-1.2-5l-0.4,2.5l-0.4,2.5H183l1-5.7
			H184.6z"/>
		<path class="st11" d="M193.3,368h-2.6l-0.4,2.3h3l-0.1,0.4h-3.4l1-5.7h3.4l-0.1,0.4h-2.9l-0.4,2.1h2.6L193.3,368z"/>
		<path class="st11" d="M196.7,368.4h-1.6l-0.4,2.4h-0.5l1-5.7l1.7,0c0.6,0,1,0.1,1.3,0.4c0.3,0.3,0.4,0.7,0.4,1.2
			c0,0.4-0.2,0.7-0.4,1c-0.2,0.3-0.6,0.5-1,0.6l1,2.4l0,0.1h-0.5L196.7,368.4z M195.2,367.9l1.4,0c0.4,0,0.7-0.1,1-0.4
			c0.3-0.2,0.5-0.5,0.5-0.9c0-0.4,0-0.7-0.2-0.9c-0.2-0.2-0.5-0.3-0.9-0.3l-1.3,0L195.2,367.9z"/>
		<path class="st11" d="M199.8,370.7h-0.5l1-5.7h0.5L199.8,370.7z"/>
		<path class="st11" d="M201.3,370.7l1-5.7l1.5,0c0.4,0,0.8,0.1,1.1,0.3c0.3,0.2,0.6,0.5,0.7,0.9c0.1,0.4,0.2,0.8,0.1,1.3l-0.1,0.5
			c-0.1,0.8-0.4,1.4-0.9,1.9c-0.5,0.5-1.1,0.7-1.9,0.7H201.3z M202.7,365.4l-0.8,4.9l1,0c0.4,0,0.8-0.1,1.1-0.3
			c0.3-0.2,0.6-0.4,0.8-0.8s0.4-0.7,0.4-1.1s0.1-0.7,0.1-0.9c0-0.2,0-0.3,0-0.5c-0.1-0.4-0.2-0.7-0.5-1c-0.3-0.2-0.6-0.4-1-0.4
			L202.7,365.4z"/>
		<path class="st11" d="M208.4,370.8c-0.5,0-1-0.2-1.3-0.6c-0.3-0.4-0.5-0.8-0.5-1.4c0-0.2,0-0.4,0-0.6l0.1-0.5
			c0.1-0.8,0.4-1.4,0.9-1.9c0.5-0.5,1-0.8,1.7-0.8c0.3,0,0.7,0.1,0.9,0.3c0.3,0.2,0.5,0.4,0.6,0.7c0.1,0.3,0.2,0.7,0.2,1
			c0,0.2,0,0.4,0,0.7l-0.1,0.6c-0.1,0.5-0.3,1-0.5,1.4c-0.2,0.4-0.5,0.7-0.9,0.9S208.8,370.8,208.4,370.8z M210.6,367.6
			c0-0.2,0-0.3,0-0.5c0-0.3,0-0.6-0.1-0.9c-0.1-0.3-0.2-0.5-0.4-0.6c-0.2-0.1-0.4-0.2-0.7-0.2c-0.5,0-1,0.2-1.3,0.6
			s-0.6,0.9-0.7,1.6c-0.1,0.5-0.1,0.9-0.1,1.2c0,0.5,0.1,0.9,0.3,1.2s0.6,0.5,1,0.5c0.6,0,1-0.2,1.4-0.6s0.6-1,0.7-1.6L210.6,367.6z
			"/>
		<path class="st11" d="M215.8,370.7h-0.5l-2.3-4.9l-0.8,4.9h-0.5l1-5.7h0.5l2.3,4.9l0.8-4.9h0.5L215.8,370.7z"/>
		<path class="st11" d="M217.8,370.7h-0.5l1-5.7h0.5L217.8,370.7z"/>
		<path class="st11" d="M222.7,369.1h-2.5l-0.8,1.6h-0.5l3.1-5.7h0.5l1.1,5.7H223L222.7,369.1z M220.4,368.7h2.2l-0.6-3.1
			L220.4,368.7z"/>
		<path class="st11" d="M224.9,370.3h2.7l-0.1,0.4h-3.2l1-5.7h0.5L224.9,370.3z"/>
	</g>
	
		<linearGradient id="SVGID_5_" gradientUnits="userSpaceOnUse" x1="112.0521" y1="368.7815" x2="112.0521" y2="336.6401" gradientTransform="matrix(0.9821 -0.1881 0.1881 0.9821 -59.8756 23.544)">
		<stop  offset="0" style="stop-color:#000000"/>
		<stop  offset="0.1967" style="stop-color:#030303;stop-opacity:0.8033"/>
		<stop  offset="0.3308" style="stop-color:#0C0C0C;stop-opacity:0.6692"/>
		<stop  offset="0.4463" style="stop-color:#1B1B1B;stop-opacity:0.5537"/>
		<stop  offset="0.5512" style="stop-color:#313131;stop-opacity:0.4488"/>
		<stop  offset="0.6491" style="stop-color:#4D4D4D;stop-opacity:0.3509"/>
		<stop  offset="0.7416" style="stop-color:#6F6F6F;stop-opacity:0.2584"/>
		<stop  offset="0.83" style="stop-color:#989898;stop-opacity:0.17"/>
		<stop  offset="0.9149" style="stop-color:#C7C7C7;stop-opacity:8.505678e-02"/>
		<stop  offset="0.9947" style="stop-color:#FBFBFB;stop-opacity:5.308211e-03"/>
		<stop  offset="1" style="stop-color:#FFFFFF;stop-opacity:0"/>
	</linearGradient>
	<polygon class="st23" points="119.4,357.3 114.7,332.9 112.3,333.3 117,357.7 114,358.3 119.6,364.7 122.3,356.7 	"/>
	
		<linearGradient id="SVGID_6_" gradientUnits="userSpaceOnUse" x1="227.7922" y1="343.5414" x2="227.7922" y2="311.4" gradientTransform="matrix(0.5326 -0.8464 0.8464 0.5326 -159.1612 352.2217)">
		<stop  offset="0" style="stop-color:#000000"/>
		<stop  offset="0.1967" style="stop-color:#030303;stop-opacity:0.8033"/>
		<stop  offset="0.3308" style="stop-color:#0C0C0C;stop-opacity:0.6692"/>
		<stop  offset="0.4463" style="stop-color:#1B1B1B;stop-opacity:0.5537"/>
		<stop  offset="0.5512" style="stop-color:#313131;stop-opacity:0.4488"/>
		<stop  offset="0.6491" style="stop-color:#4D4D4D;stop-opacity:0.3509"/>
		<stop  offset="0.7416" style="stop-color:#6F6F6F;stop-opacity:0.2584"/>
		<stop  offset="0.83" style="stop-color:#989898;stop-opacity:0.17"/>
		<stop  offset="0.9149" style="stop-color:#C7C7C7;stop-opacity:8.505678e-02"/>
		<stop  offset="0.9947" style="stop-color:#FBFBFB;stop-opacity:5.308211e-03"/>
		<stop  offset="1" style="stop-color:#FFFFFF;stop-opacity:0"/>
	</linearGradient>
	<polygon class="st24" points="247.4,337.5 226.4,324.3 225.1,326.3 246.1,339.5 244.5,342.1 252.9,342.4 249,334.9 	"/>
	
		<linearGradient id="SVGID_7_" gradientUnits="userSpaceOnUse" x1="244.0666" y1="291.7963" x2="244.0666" y2="259.6549" gradientTransform="matrix(-0.8498 -0.5271 0.5271 -0.8498 338.5163 426.142)">
		<stop  offset="0" style="stop-color:#000000"/>
		<stop  offset="0.1967" style="stop-color:#030303;stop-opacity:0.8033"/>
		<stop  offset="0.3308" style="stop-color:#0C0C0C;stop-opacity:0.6692"/>
		<stop  offset="0.4463" style="stop-color:#1B1B1B;stop-opacity:0.5537"/>
		<stop  offset="0.5512" style="stop-color:#313131;stop-opacity:0.4488"/>
		<stop  offset="0.6491" style="stop-color:#4D4D4D;stop-opacity:0.3509"/>
		<stop  offset="0.7416" style="stop-color:#6F6F6F;stop-opacity:0.2584"/>
		<stop  offset="0.83" style="stop-color:#989898;stop-opacity:0.17"/>
		<stop  offset="0.9149" style="stop-color:#C7C7C7;stop-opacity:8.505678e-02"/>
		<stop  offset="0.9947" style="stop-color:#FBFBFB;stop-opacity:5.308211e-03"/>
		<stop  offset="1" style="stop-color:#FFFFFF;stop-opacity:0"/>
	</linearGradient>
	<polygon class="st25" points="280,55.1 266.9,76.2 269,77.5 282.1,56.4 284.6,58 284.9,49.5 277.5,53.5 	"/>
	<circle class="st7" cx="130.4" cy="188" r="1.9"/>
</g>
</svg>
