<?xml version="1.0" encoding="utf-8"?>
<!-- Generator: Adobe Illustrator 24.0.1, SVG Export Plug-In . SVG Version: 6.00 Build 0)  -->
<svg version="1.1" xmlns="http://www.w3.org/2000/svg" xmlns:xlink="http://www.w3.org/1999/xlink" x="0px" y="0px"
	 viewBox="0 0 700 150" style="enable-background:new 0 0 700 150;" xml:space="preserve">
<style type="text/css">
	.st0{display:none;}
	.st1{display:inline;fill:none;stroke:#303030;stroke-miterlimit:10;}
	.st2{display:inline;fill:none;stroke:#303030;stroke-width:0.9695;stroke-miterlimit:10;}
	.st3{fill:#FFA79E;}
	.st4{fill:none;stroke:#000000;stroke-width:0.8;stroke-miterlimit:10;}
	.st5{fill:none;}
	.st6{fill:#303030;}
	.st7{font-family:'Roboto-Bold';}
	.st8{font-size:13px;}
	.st9{font-family:'Roboto-Light';}
	.st10{fill:none;stroke:#303030;stroke-miterlimit:10;}
	.st11{fill:none;stroke:#303030;stroke-width:0.9695;stroke-miterlimit:10;}
	.st12{fill:#383838;}
	.st13{fill:#FFFFFF;}
</style>
<g id="REGLA" class="st0">
</g>
<g id="Capa_1" class="st0">
	
		<image style="display:inline;overflow:visible;" width="633" height="219" xlink:href="captura.png"  transform="matrix(1.1058 0 0 1.1058 0 -288.1801)">
	</image>
	<line class="st1" x1="46.9" y1="-185.8" x2="46.9" y2="-192.6"/>
	<line class="st2" x1="39.9" y1="-178.8" x2="39.9" y2="-199.6"/>
	<line class="st1" x1="53.9" y1="-185.8" x2="53.9" y2="-192.6"/>
	<line class="st1" x1="60.9" y1="-185.8" x2="60.9" y2="-192.6"/>
	<line class="st1" x1="67.9" y1="-185.8" x2="67.9" y2="-192.6"/>
	<line class="st1" x1="74.9" y1="-185.8" x2="74.9" y2="-192.6"/>
	<line class="st1" x1="81.9" y1="-185.8" x2="81.9" y2="-192.6"/>
	<line class="st1" x1="88.9" y1="-185.8" x2="88.9" y2="-192.6"/>
	<line class="st1" x1="95.9" y1="-185.8" x2="95.9" y2="-192.6"/>
	<line class="st1" x1="102.9" y1="-185.8" x2="102.9" y2="-192.6"/>
	<line class="st1" x1="109.9" y1="-185.8" x2="109.9" y2="-192.6"/>
	<line class="st1" x1="116.9" y1="-185.8" x2="116.9" y2="-192.6"/>
	<line class="st1" x1="123.9" y1="-185.8" x2="123.9" y2="-192.6"/>
	<line class="st1" x1="130.9" y1="-185.8" x2="130.9" y2="-192.6"/>
	<line class="st1" x1="137.9" y1="-185.8" x2="137.9" y2="-192.6"/>
	<line class="st1" x1="144.9" y1="-185.8" x2="144.9" y2="-192.6"/>
	<line class="st1" x1="151.9" y1="-185.8" x2="151.9" y2="-192.6"/>
	<line class="st1" x1="158.9" y1="-185.8" x2="158.9" y2="-192.6"/>
	<line class="st1" x1="165.9" y1="-185.8" x2="165.9" y2="-192.6"/>
	<line class="st1" x1="172.9" y1="-185.8" x2="172.9" y2="-192.6"/>
	<line class="st1" x1="179.9" y1="-185.8" x2="179.9" y2="-192.6"/>
	<line class="st1" x1="186.9" y1="-185.8" x2="186.9" y2="-192.6"/>
	<line class="st1" x1="193.9" y1="-185.8" x2="193.9" y2="-192.6"/>
	<line class="st1" x1="200.9" y1="-185.8" x2="200.9" y2="-192.6"/>
	<line class="st1" x1="207.9" y1="-185.8" x2="207.9" y2="-192.6"/>
	<line class="st1" x1="214.9" y1="-185.8" x2="214.9" y2="-192.6"/>
	<line class="st1" x1="221.9" y1="-185.8" x2="221.9" y2="-192.6"/>
	<line class="st1" x1="228.9" y1="-185.8" x2="228.9" y2="-192.6"/>
	<line class="st1" x1="235.9" y1="-185.8" x2="235.9" y2="-192.6"/>
	<line class="st1" x1="242.9" y1="-185.8" x2="242.9" y2="-192.6"/>
	<line class="st1" x1="249.9" y1="-185.8" x2="249.9" y2="-192.6"/>
	<line class="st1" x1="256.9" y1="-185.8" x2="256.9" y2="-192.6"/>
	<line class="st1" x1="263.9" y1="-185.8" x2="263.9" y2="-192.6"/>
	<line class="st1" x1="270.9" y1="-185.8" x2="270.9" y2="-192.6"/>
	<line class="st1" x1="277.9" y1="-185.8" x2="277.9" y2="-192.6"/>
	<line class="st1" x1="284.9" y1="-185.8" x2="284.9" y2="-192.6"/>
	<line class="st1" x1="291.9" y1="-185.8" x2="291.9" y2="-192.6"/>
	<line class="st1" x1="298.9" y1="-185.8" x2="298.9" y2="-192.6"/>
	<line class="st1" x1="305.9" y1="-185.8" x2="305.9" y2="-192.6"/>
	<line class="st1" x1="312.9" y1="-185.8" x2="312.9" y2="-192.6"/>
	<line class="st1" x1="319.9" y1="-185.8" x2="319.9" y2="-192.6"/>
	<line class="st1" x1="326.9" y1="-185.8" x2="326.9" y2="-192.6"/>
	<line class="st1" x1="333.9" y1="-185.8" x2="333.9" y2="-192.6"/>
	<line class="st1" x1="340.9" y1="-185.8" x2="340.9" y2="-192.6"/>
	<line class="st1" x1="347.9" y1="-185.8" x2="347.9" y2="-192.6"/>
	<line class="st1" x1="354.9" y1="-185.8" x2="354.9" y2="-192.6"/>
	<line class="st1" x1="361.9" y1="-185.8" x2="361.9" y2="-192.6"/>
	<line class="st1" x1="368.9" y1="-185.8" x2="368.9" y2="-192.6"/>
	<line class="st1" x1="375.9" y1="-185.8" x2="375.9" y2="-192.6"/>
	<line class="st1" x1="382.9" y1="-185.8" x2="382.9" y2="-192.6"/>
	<line class="st1" x1="389.9" y1="-185.8" x2="389.9" y2="-192.6"/>
	<line class="st1" x1="396.9" y1="-185.8" x2="396.9" y2="-192.6"/>
	<line class="st1" x1="403.9" y1="-185.8" x2="403.9" y2="-192.6"/>
	<line class="st1" x1="410.9" y1="-185.8" x2="410.9" y2="-192.6"/>
	<line class="st1" x1="417.9" y1="-185.8" x2="417.9" y2="-192.6"/>
	<line class="st1" x1="424.9" y1="-185.8" x2="424.9" y2="-192.6"/>
	<line class="st1" x1="431.9" y1="-185.8" x2="431.9" y2="-192.6"/>
	<line class="st1" x1="438.9" y1="-185.8" x2="438.9" y2="-192.6"/>
	<line class="st1" x1="445.9" y1="-185.8" x2="445.9" y2="-192.6"/>
	<line class="st1" x1="452.9" y1="-185.8" x2="452.9" y2="-192.6"/>
	<line class="st1" x1="459.9" y1="-178.8" x2="459.9" y2="-199.6"/>
	<line class="st1" x1="466.9" y1="-185.8" x2="466.9" y2="-192.6"/>
	<line class="st1" x1="473.9" y1="-185.8" x2="473.9" y2="-192.6"/>
	<line class="st1" x1="480.9" y1="-185.8" x2="480.9" y2="-192.6"/>
	<line class="st1" x1="487.9" y1="-185.8" x2="487.9" y2="-192.6"/>
	<line class="st1" x1="494.9" y1="-185.8" x2="494.9" y2="-192.6"/>
	<line class="st1" x1="501.9" y1="-185.8" x2="501.9" y2="-192.6"/>
	<line class="st1" x1="508.9" y1="-185.8" x2="508.9" y2="-192.6"/>
	<line class="st1" x1="515.9" y1="-185.8" x2="515.9" y2="-192.6"/>
	<line class="st1" x1="522.9" y1="-185.8" x2="522.9" y2="-192.6"/>
	<line class="st1" x1="529.9" y1="-185.8" x2="529.9" y2="-192.6"/>
	<line class="st1" x1="536.9" y1="-185.8" x2="536.9" y2="-192.6"/>
	<line class="st1" x1="543.9" y1="-185.8" x2="543.9" y2="-192.6"/>
	<line class="st1" x1="550.9" y1="-185.8" x2="550.9" y2="-192.6"/>
	<line class="st1" x1="557.9" y1="-185.8" x2="557.9" y2="-192.6"/>
	<line class="st1" x1="564.9" y1="-185.8" x2="564.9" y2="-192.6"/>
	<line class="st1" x1="571.9" y1="-185.8" x2="571.9" y2="-192.6"/>
	<line class="st1" x1="578.9" y1="-185.8" x2="578.9" y2="-192.6"/>
	<line class="st1" x1="585.9" y1="-185.8" x2="585.9" y2="-192.6"/>
	<line class="st1" x1="592.9" y1="-185.8" x2="592.9" y2="-192.6"/>
	<line class="st1" x1="599.9" y1="-185.8" x2="599.9" y2="-192.6"/>
	<line class="st1" x1="606.9" y1="-185.8" x2="606.9" y2="-192.6"/>
	<line class="st1" x1="613.9" y1="-185.8" x2="613.9" y2="-192.6"/>
	<line class="st1" x1="620.9" y1="-185.8" x2="620.9" y2="-192.6"/>
	<line class="st1" x1="627.9" y1="-185.8" x2="627.9" y2="-192.6"/>
	<line class="st1" x1="634.9" y1="-185.8" x2="634.9" y2="-192.6"/>
	<line class="st1" x1="641.9" y1="-185.8" x2="641.9" y2="-192.6"/>
	<line class="st1" x1="648.9" y1="-185.8" x2="648.9" y2="-192.6"/>
	<line class="st1" x1="655.9" y1="-185.8" x2="655.9" y2="-192.6"/>
	<line class="st1" x1="662.9" y1="-185.8" x2="662.9" y2="-192.6"/>
	<line class="st1" x1="669.9" y1="-185.8" x2="669.9" y2="-192.6"/>
</g>
<g id="FONDO">
	<rect x="417.9" y="55.3" class="st3" width="126" height="11.7"/>
	<line class="st4" x1="418.6" y1="28.9" x2="418.6" y2="53.1"/>
	<line class="st4" x1="529.9" y1="69.2" x2="529.9" y2="93.4"/>
</g>
<g id="texto">
	<rect x="355" class="st5" width="145" height="28.9"/>
	<text transform="matrix(1 0 0 1 362.2969 9.75)"><tspan x="0" y="0" class="st6 st7 st8">Primera demostración </tspan><tspan x="2.5" y="15.6" class="st6 st7 st8">en la sala de llegadas</tspan></text>
	<rect x="441.8" y="92" class="st5" width="170.2" height="58"/>
	<text transform="matrix(1 0 0 1 472.2603 101.75)"><tspan x="0" y="0" class="st6 st7 st8">5 días seguidos de </tspan><tspan x="-27.7" y="15.6" class="st6 st7 st8">demostraciones terminando </tspan><tspan x="-9" y="31.2" class="st6 st7 st8">en más de 300 vuelos </tspan><tspan x="21.3" y="46.8" class="st6 st7 st8">cancelados</tspan></text>
	<rect x="26" y="92" class="st5" width="137.2" height="44"/>
	<text transform="matrix(1 0 0 1 26.6182 101.75)"><tspan x="0" y="0" class="st6 st7 st8">Empieza el proyecto de </tspan><tspan x="10.7" y="15.6" class="st6 st7 st8">ley de extraditación</tspan></text>
	<rect x="90" y="15.8" class="st5" width="100" height="14.4"/>
	<text transform="matrix(1 0 0 1 121.3994 25.5317)" class="st6 st9 st8">JUNIO</text>
	<rect x="300" y="92" class="st5" width="100" height="14.4"/>
	<text transform="matrix(1 0 0 1 332.5979 101.75)" class="st6 st9 st8">JULIO</text>
	<rect x="526.9" y="15.8" class="st5" width="100" height="14.4"/>
	<text transform="matrix(1 0 0 1 551.8582 25.5317)" class="st6 st9 st8">AGOSTO</text>
	<line class="st10" x1="46.9" y1="64.5" x2="46.9" y2="57.7"/>
	<line class="st11" x1="39.9" y1="71.5" x2="39.9" y2="50.7"/>
	<line class="st10" x1="53.9" y1="64.5" x2="53.9" y2="57.7"/>
	<line class="st10" x1="60.9" y1="64.5" x2="60.9" y2="57.7"/>
	<line class="st10" x1="67.9" y1="64.5" x2="67.9" y2="57.7"/>
	<line class="st10" x1="74.9" y1="64.5" x2="74.9" y2="57.7"/>
	<line class="st10" x1="81.9" y1="64.5" x2="81.9" y2="57.7"/>
	<line class="st10" x1="88.9" y1="64.5" x2="88.9" y2="57.7"/>
	<line class="st10" x1="95.9" y1="64.5" x2="95.9" y2="57.7"/>
	<line class="st10" x1="102.9" y1="64.5" x2="102.9" y2="57.7"/>
	<line class="st10" x1="109.9" y1="64.5" x2="109.9" y2="57.7"/>
	<line class="st10" x1="116.9" y1="64.5" x2="116.9" y2="57.7"/>
	<line class="st10" x1="123.9" y1="64.5" x2="123.9" y2="57.7"/>
	<line class="st10" x1="130.9" y1="64.5" x2="130.9" y2="57.7"/>
	<line class="st10" x1="137.9" y1="64.5" x2="137.9" y2="57.7"/>
	<line class="st10" x1="144.9" y1="64.5" x2="144.9" y2="57.7"/>
	<line class="st10" x1="151.9" y1="64.5" x2="151.9" y2="57.7"/>
	<line class="st10" x1="158.9" y1="64.5" x2="158.9" y2="57.7"/>
	<line class="st10" x1="165.9" y1="64.5" x2="165.9" y2="57.7"/>
	<line class="st10" x1="172.9" y1="64.5" x2="172.9" y2="57.7"/>
	<line class="st10" x1="179.9" y1="64.5" x2="179.9" y2="57.7"/>
	<line class="st10" x1="186.9" y1="64.5" x2="186.9" y2="57.7"/>
	<line class="st10" x1="193.9" y1="64.5" x2="193.9" y2="57.7"/>
	<line class="st10" x1="200.9" y1="64.5" x2="200.9" y2="57.7"/>
	<line class="st10" x1="207.9" y1="64.5" x2="207.9" y2="57.7"/>
	<line class="st10" x1="214.9" y1="64.5" x2="214.9" y2="57.7"/>
	<line class="st10" x1="221.9" y1="64.5" x2="221.9" y2="57.7"/>
	<line class="st10" x1="228.9" y1="64.5" x2="228.9" y2="57.7"/>
	<line class="st10" x1="235.9" y1="64.5" x2="235.9" y2="57.7"/>
	<line class="st10" x1="242.9" y1="64.5" x2="242.9" y2="57.7"/>
	<line class="st10" x1="249.9" y1="71.5" x2="249.9" y2="50.7"/>
	<line class="st10" x1="256.9" y1="64.5" x2="256.9" y2="57.7"/>
	<line class="st10" x1="263.9" y1="64.5" x2="263.9" y2="57.7"/>
	<line class="st10" x1="270.9" y1="64.5" x2="270.9" y2="57.7"/>
	<line class="st10" x1="277.9" y1="64.5" x2="277.9" y2="57.7"/>
	<line class="st10" x1="284.9" y1="64.5" x2="284.9" y2="57.7"/>
	<line class="st10" x1="291.9" y1="64.5" x2="291.9" y2="57.7"/>
	<line class="st10" x1="298.9" y1="64.5" x2="298.9" y2="57.7"/>
	<line class="st10" x1="305.9" y1="64.5" x2="305.9" y2="57.7"/>
	<line class="st10" x1="312.9" y1="64.5" x2="312.9" y2="57.7"/>
	<line class="st10" x1="319.9" y1="64.5" x2="319.9" y2="57.7"/>
	<line class="st10" x1="326.9" y1="64.5" x2="326.9" y2="57.7"/>
	<line class="st10" x1="333.9" y1="64.5" x2="333.9" y2="57.7"/>
	<line class="st10" x1="340.9" y1="64.5" x2="340.9" y2="57.7"/>
	<line class="st10" x1="347.9" y1="64.5" x2="347.9" y2="57.7"/>
	<line class="st10" x1="354.9" y1="64.5" x2="354.9" y2="57.7"/>
	<line class="st10" x1="361.9" y1="64.5" x2="361.9" y2="57.7"/>
	<line class="st10" x1="368.9" y1="64.5" x2="368.9" y2="57.7"/>
	<line class="st10" x1="375.9" y1="64.5" x2="375.9" y2="57.7"/>
	<line class="st10" x1="382.9" y1="64.5" x2="382.9" y2="57.7"/>
	<line class="st10" x1="389.9" y1="64.5" x2="389.9" y2="57.7"/>
	<line class="st10" x1="396.9" y1="64.5" x2="396.9" y2="57.7"/>
	<line class="st10" x1="403.9" y1="64.5" x2="403.9" y2="57.7"/>
	<line class="st10" x1="410.9" y1="64.5" x2="410.9" y2="57.7"/>
	<line class="st10" x1="417.9" y1="64.5" x2="417.9" y2="57.7"/>
	<line class="st10" x1="424.9" y1="64.5" x2="424.9" y2="57.7"/>
	<line class="st10" x1="431.9" y1="64.5" x2="431.9" y2="57.7"/>
	<line class="st10" x1="438.9" y1="64.5" x2="438.9" y2="57.7"/>
	<line class="st10" x1="445.9" y1="64.5" x2="445.9" y2="57.7"/>
	<line class="st10" x1="452.9" y1="64.5" x2="452.9" y2="57.7"/>
	<line class="st10" x1="459.9" y1="71.5" x2="459.9" y2="50.7"/>
	<line class="st10" x1="466.9" y1="64.5" x2="466.9" y2="57.7"/>
	<line class="st10" x1="473.9" y1="64.5" x2="473.9" y2="57.7"/>
	<line class="st10" x1="480.9" y1="64.5" x2="480.9" y2="57.7"/>
	<line class="st10" x1="487.9" y1="64.5" x2="487.9" y2="57.7"/>
	<line class="st10" x1="494.9" y1="64.5" x2="494.9" y2="57.7"/>
	<line class="st10" x1="501.9" y1="64.5" x2="501.9" y2="57.7"/>
	<line class="st10" x1="508.9" y1="64.5" x2="508.9" y2="57.7"/>
	<line class="st10" x1="515.9" y1="64.5" x2="515.9" y2="57.7"/>
	<line class="st10" x1="522.9" y1="64.5" x2="522.9" y2="57.7"/>
	<line class="st10" x1="529.9" y1="64.5" x2="529.9" y2="57.7"/>
	<line class="st10" x1="536.9" y1="64.5" x2="536.9" y2="57.7"/>
	<line class="st10" x1="543.9" y1="64.5" x2="543.9" y2="57.7"/>
	<line class="st10" x1="550.9" y1="64.5" x2="550.9" y2="57.7"/>
	<line class="st10" x1="557.9" y1="64.5" x2="557.9" y2="57.7"/>
	<line class="st10" x1="564.9" y1="64.5" x2="564.9" y2="57.7"/>
	<line class="st10" x1="571.9" y1="64.5" x2="571.9" y2="57.7"/>
	<line class="st10" x1="578.9" y1="64.5" x2="578.9" y2="57.7"/>
	<line class="st10" x1="585.9" y1="64.5" x2="585.9" y2="57.7"/>
	<line class="st10" x1="592.9" y1="64.5" x2="592.9" y2="57.7"/>
	<line class="st10" x1="599.9" y1="64.5" x2="599.9" y2="57.7"/>
	<line class="st10" x1="606.9" y1="64.5" x2="606.9" y2="57.7"/>
	<line class="st10" x1="613.9" y1="64.5" x2="613.9" y2="57.7"/>
	<line class="st10" x1="620.9" y1="64.5" x2="620.9" y2="57.7"/>
	<line class="st10" x1="627.9" y1="64.5" x2="627.9" y2="57.7"/>
	<line class="st10" x1="634.9" y1="64.5" x2="634.9" y2="57.7"/>
	<line class="st10" x1="641.9" y1="64.5" x2="641.9" y2="57.7"/>
	<line class="st10" x1="648.9" y1="64.5" x2="648.9" y2="57.7"/>
	<line class="st10" x1="655.9" y1="64.5" x2="655.9" y2="57.7"/>
	<line class="st10" x1="662.9" y1="64.5" x2="662.9" y2="57.7"/>
	<line class="st10" x1="669.9" y1="64.5" x2="669.9" y2="57.7"/>
	<circle class="st4" cx="96.4" cy="61.1" r="5.2"/>
	<line class="st4" x1="96.4" y1="66.3" x2="96.4" y2="92"/>
	<g>
		<path class="st12" d="M418.6,66.6c-3,0-5.5-2.5-5.5-5.5c0-3,2.5-5.5,5.5-5.5c3,0,5.5,2.5,5.5,5.5
			C424.1,64.1,421.6,66.6,418.6,66.6z"/>
		<path class="st13" d="M418.6,56.1c2.7,0,5,2.2,5,5c0,2.7-2.2,5-5,5c-2.7,0-5-2.2-5-5C413.6,58.4,415.9,56.1,418.6,56.1
			 M418.6,55.1c-3.3,0-6,2.7-6,6c0,3.3,2.7,6,6,6s6-2.7,6-6C424.6,57.8,421.9,55.1,418.6,55.1L418.6,55.1z"/>
	</g>
	<g>
		<path class="st12" d="M515.9,66.6c-3,0-5.5-2.5-5.5-5.5c0-3,2.5-5.5,5.5-5.5s5.5,2.5,5.5,5.5C521.3,64.1,518.9,66.6,515.9,66.6z"
			/>
		<path class="st13" d="M515.9,56.1c2.7,0,5,2.2,5,5c0,2.7-2.2,5-5,5s-5-2.2-5-5C510.9,58.4,513.1,56.1,515.9,56.1 M515.9,55.1
			c-3.3,0-6,2.7-6,6c0,3.3,2.7,6,6,6s6-2.7,6-6C521.8,57.8,519.1,55.1,515.9,55.1L515.9,55.1z"/>
	</g>
	<g>
		<path class="st12" d="M522.9,66.6c-3,0-5.5-2.5-5.5-5.5c0-3,2.5-5.5,5.5-5.5s5.5,2.5,5.5,5.5C528.3,64.1,525.9,66.6,522.9,66.6z"
			/>
		<path class="st13" d="M522.9,56.1c2.7,0,5,2.2,5,5c0,2.7-2.2,5-5,5s-5-2.2-5-5C517.9,58.4,520.1,56.1,522.9,56.1 M522.9,55.1
			c-3.3,0-6,2.7-6,6c0,3.3,2.7,6,6,6s6-2.7,6-6C528.8,57.8,526.1,55.1,522.9,55.1L522.9,55.1z"/>
	</g>
	<g>
		<path class="st12" d="M529.9,66.6c-3,0-5.5-2.5-5.5-5.5c0-3,2.5-5.5,5.5-5.5s5.5,2.5,5.5,5.5C535.3,64.1,532.9,66.6,529.9,66.6z"
			/>
		<path class="st13" d="M529.9,56.1c2.7,0,5,2.2,5,5c0,2.7-2.2,5-5,5s-5-2.2-5-5C524.9,58.4,527.1,56.1,529.9,56.1 M529.9,55.1
			c-3.3,0-6,2.7-6,6c0,3.3,2.7,6,6,6s6-2.7,6-6C535.8,57.8,533.1,55.1,529.9,55.1L529.9,55.1z"/>
	</g>
	<g>
		<path class="st12" d="M536.9,66.6c-3,0-5.5-2.5-5.5-5.5c0-3,2.5-5.5,5.5-5.5s5.5,2.5,5.5,5.5C542.3,64.1,539.9,66.6,536.9,66.6z"
			/>
		<path class="st13" d="M536.9,56.1c2.7,0,5,2.2,5,5c0,2.7-2.2,5-5,5s-5-2.2-5-5C531.9,58.4,534.1,56.1,536.9,56.1 M536.9,55.1
			c-3.3,0-6,2.7-6,6c0,3.3,2.7,6,6,6s6-2.7,6-6C542.8,57.8,540.1,55.1,536.9,55.1L536.9,55.1z"/>
	</g>
	<g>
		<path class="st12" d="M543.9,66.6c-3,0-5.5-2.5-5.5-5.5c0-3,2.5-5.5,5.5-5.5s5.5,2.5,5.5,5.5C549.3,64.1,546.9,66.6,543.9,66.6z"
			/>
		<path class="st13" d="M543.9,56.1c2.7,0,5,2.2,5,5c0,2.7-2.2,5-5,5s-5-2.2-5-5C538.9,58.4,541.1,56.1,543.9,56.1 M543.9,55.1
			c-3.3,0-6,2.7-6,6c0,3.3,2.7,6,6,6s6-2.7,6-6C549.8,57.8,547.1,55.1,543.9,55.1L543.9,55.1z"/>
	</g>
</g>
</svg>
